<?xml version="1.0" standalone="no"?>
<!DOCTYPE svg PUBLIC "-//W3C//DTD SVG 1.1//EN" "http://www.w3.org/Graphics/SVG/1.1/DTD/svg11.dtd" >
<svg xmlns="http://www.w3.org/2000/svg" xmlns:xlink="http://www.w3.org/1999/xlink" version="1.1">
<metadata>
Created by FontForge 20190801 at Mon Aug 29 05:50:41 2022
 By root
Copyright (c) 2022 by Casloop Studio. All rights reserved.
</metadata>
<defs>
<font id="Behind-The-Nineties-Md" horiz-adv-x="0" >
  <font-face 
    font-family="Behind The Nineties Medium"
    font-weight="500"
    font-stretch="normal"
    units-per-em="1000"
    panose-1="0 0 0 0 0 0 0 0 0 0"
    ascent="800"
    descent="-200"
    x-height="500"
    cap-height="704"
    bbox="-178 -364.9 1166 1026"
    underline-thickness="50"
    underline-position="-125"
    unicode-range="U+0020-A78C"
  />
<missing-glyph horiz-adv-x="500" 
d="M410 -200h-317v1000h317v-1000zM333 -131v33h-102l70 47h32v33h-166v-33h70l-70 -47v-33h166zM333 5v113h-166v-113h166zM333 178v113h-100v-56h34v23h33v-47h-100v80h-33v-113h166zM333 313v100h-33v-66h-133v-34h166zM267 370v70h66v33h-166v-33h66v-37h-66v-33h100z
M333 500v34h-66v70h-100v-104h166zM333 630v33h-66v37h66v33h-165v-33h65v-37h-66v-33h166zM200 85h100v-47h-100v47zM200 570h33v-36h-33v36z" />
    <glyph glyph-name="f_f" unicode="ff" horiz-adv-x="576" 
d="M62 -2q-20 -2 -29 -2q-17 0 -17 15q0 12 18 25q15 12 23 23t8 32v334q0 15 -7.5 23t-22.5 15q-11 7 -15.5 11t-4.5 11q0 15 19 15h31v15q0 119 51.5 174t139.5 55q40 0 71 -11.5t50 -30.5q48 42 126 42q43 0 76 -13.5t50.5 -34.5t17.5 -44q0 -16 -9 -25t-25 -9
q-20 0 -31 12t-24 38t-25 38.5t-33 12.5q-38 0 -60 -39.5t-22 -123.5v-56h111q21 0 28 -6.5t7 -23.5q0 -34 -19 -34q-13 0 -32 12q-18 10 -33 15.5t-39 5.5h-23v-378q0 -21 7.5 -32t22.5 -23q18 -13 18 -25q0 -15 -17 -15q-9 0 -29 2q-28 2 -52 2h-7q-24 0 -52 -2
q-20 -2 -29 -2q-17 0 -17 15q0 12 18 25q15 12 23 23t8 32v378h-141v-378q0 -21 7.5 -32t22.5 -23q18 -13 18 -25q0 -15 -17 -15q-9 0 -29 2q-28 2 -52 2h-7q-24 0 -52 -2zM312 500v15q0 69 19 120q-8 9 -20 33q-13 26 -25 38.5t-33 12.5q-38 0 -60 -39.5t-22 -123.5v-56
h141z" />
    <glyph glyph-name="f_f_i" unicode="ffi" horiz-adv-x="719" 
d="M309 -2q-20 -2 -29 -2q-17 0 -17 15q0 12 18 25q15 12 23 23t8 32v378h-141v-378q0 -21 7.5 -32t22.5 -23q18 -13 18 -25q0 -15 -17 -15q-9 0 -29 2q-28 2 -52 2h-7q-24 0 -52 -2q-20 -2 -29 -2q-17 0 -17 15q0 12 18 25q15 12 23 23t8 32v334q0 15 -7.5 23t-22.5 15
q-11 7 -15.5 11t-4.5 11q0 15 19 15h31v15q0 119 51.5 174t139.5 55q40 0 71 -11.5t50 -30.5q48 42 128 42q46 0 82 -16.5t55.5 -42.5t19.5 -53q0 -20 -11.5 -31t-29.5 -11q-27 0 -39.5 17t-23.5 49t-22.5 47.5t-35.5 15.5q-38 0 -60 -39.5t-22 -123.5v-56h242v-409
q0 -21 8 -32t23 -23q18 -13 18 -25q0 -15 -17 -15q-9 0 -29 2q-28 2 -52 2h-8q-23 0 -51 -2q-20 -2 -29 -2q-17 0 -17 15q0 12 18 25q15 12 22.5 23t7.5 32v378h-136v-378q0 -21 7.5 -32t22.5 -23q18 -13 18 -25q0 -15 -17 -15q-9 0 -29 2q-28 2 -52 2h-7q-24 0 -52 -2z
M312 500v15q0 70 19 119q-8 9 -20 33q-13 26 -25 39t-33 13q-38 0 -60 -39.5t-22 -123.5v-56h141z" />
    <glyph glyph-name="f_f_l" unicode="ffl" horiz-adv-x="723" 
d="M62 -2q-20 -2 -29 -2q-17 0 -17 15q0 12 18 25q15 12 23 23t8 32v334q0 15 -7.5 23t-22.5 15q-11 7 -15.5 11t-4.5 11q0 15 19 15h31v15q0 119 51.5 174t139.5 55q40 0 71 -11.5t50 -30.5q48 42 128 42q33 0 52.5 -6t39.5 -16q22 -11 35 -11q5 0 12.5 2t11.5 2q5 0 7 -4
t2 -14v-606q0 -21 7.5 -32t22.5 -23q18 -13 18 -25q0 -15 -17 -15q-9 0 -29 2q-28 2 -52 2h-7q-24 0 -52 -2q-20 -2 -29 -2q-17 0 -17 15q0 12 18 25q15 12 23 23t8 32v490q0 75 -15.5 106.5t-46.5 31.5q-36 0 -57.5 -39.5t-21.5 -123.5v-56h96q21 0 28 -6.5t7 -23.5
q0 -34 -19 -34q-13 0 -28 12q-14 10 -28 15.5t-37 5.5h-19v-378q0 -21 7.5 -32t22.5 -23q18 -13 18 -25q0 -15 -17 -15q-9 0 -29 2q-28 2 -52 2h-7q-24 0 -52 -2q-20 -2 -29 -2q-17 0 -17 15q0 12 18 25q15 12 23 23t8 32v378h-141v-378q0 -21 7.5 -32t22.5 -23
q18 -13 18 -25q0 -15 -17 -15q-9 0 -29 2q-28 2 -52 2h-7q-24 0 -52 -2zM312 500v15q0 70 19 119q-8 9 -20 33q-13 26 -25 39t-33 13q-38 0 -60 -39.5t-22 -123.5v-56h141z" />
    <glyph glyph-name="f_i" unicode="fi" horiz-adv-x="472" 
d="M62 -2q-20 -2 -29 -2q-17 0 -17 15q0 12 18 25q15 12 23 23t8 32v334q0 15 -7.5 23t-22.5 15q-11 7 -15.5 11t-4.5 11q0 15 19 15h31v15q0 119 52 174t141 55q46 0 82 -16.5t55.5 -42.5t19.5 -53q0 -20 -11.5 -31t-29.5 -11q-27 0 -39.5 17t-23.5 49t-22.5 47.5
t-35.5 15.5q-38 0 -60 -39.5t-22 -123.5v-56h242v-409q0 -21 8 -32t23 -23q18 -13 18 -25q0 -15 -17 -15q-9 0 -29 2q-28 2 -52 2h-8q-23 0 -51 -2q-20 -2 -29 -2q-17 0 -17 15q0 12 18 25q15 12 22.5 23t7.5 32v378h-136v-378q0 -21 7.5 -32t22.5 -23q18 -13 18 -25
q0 -15 -17 -15q-9 0 -29 2q-28 2 -52 2h-7q-24 0 -52 -2z" />
    <glyph glyph-name="f_l" unicode="fl" horiz-adv-x="476" 
d="M62 -2q-20 -2 -29 -2q-17 0 -17 15q0 12 18 25q15 12 23 23t8 32v334q0 15 -7.5 23t-22.5 15q-11 7 -15.5 11t-4.5 11q0 15 19 15h31v15q0 119 52 174t141 55q33 0 52.5 -6t39.5 -16q22 -11 35 -11q5 0 12.5 2t11.5 2q5 0 7 -4t2 -14v-606q0 -21 7.5 -32t22.5 -23
q18 -13 18 -25q0 -15 -17 -15q-9 0 -29 2q-28 2 -52 2h-7q-24 0 -52 -2q-20 -2 -29 -2q-17 0 -17 15q0 12 18 25q15 12 23 23t8 32v490q0 75 -15.5 106.5t-46.5 31.5q-36 0 -57.5 -39.5t-21.5 -123.5v-56h96q21 0 28 -6.5t7 -23.5q0 -34 -19 -34q-13 0 -28 12
q-14 10 -28 15.5t-37 5.5h-19v-378q0 -21 7.5 -32t22.5 -23q18 -13 18 -25q0 -15 -17 -15q-9 0 -29 2q-28 2 -52 2h-7q-24 0 -52 -2z" />
    <glyph glyph-name=".notdef" horiz-adv-x="500" 
d="M410 -200h-317v1000h317v-1000zM333 -131v33h-102l70 47h32v33h-166v-33h70l-70 -47v-33h166zM333 5v113h-166v-113h166zM333 178v113h-100v-56h34v23h33v-47h-100v80h-33v-113h166zM333 313v100h-33v-66h-133v-34h166zM267 370v70h66v33h-166v-33h66v-37h-66v-33h100z
M333 500v34h-66v70h-100v-104h166zM333 630v33h-66v37h66v33h-165v-33h65v-37h-66v-33h166zM200 85h100v-47h-100v47zM200 570h33v-36h-33v36z" />
    <glyph glyph-name="space" unicode=" " horiz-adv-x="200" 
 />
    <glyph glyph-name="space" unicode="&#xa0;" horiz-adv-x="200" 
 />
    <glyph glyph-name="A" unicode="A" horiz-adv-x="687" 
d="M11.5 25q6.5 6 22.5 17q23 14 39 29.5t25 39.5l177 474q4 11 4 21q0 19 -12.5 31.5t-33.5 24.5q-14 9 -20.5 14.5t-6.5 12.5q0 15 18 15l35 -2q36 -2 57 -2h49l231 -585q10 -25 25 -41t35 -31q15 -12 20.5 -18t5.5 -14q0 -15 -23 -15l-42 2q-44 2 -72 2h-14q-22 0 -60 -2
q-32 -2 -39 -2q-20 0 -20 15q0 7 7 12.5t21 14.5q22 13 34 24t12 28q0 8 -5 21l-45 114h-246l-41 -110q-4 -9 -4 -20q0 -19 13.5 -32t36.5 -25q15 -8 22 -14t7 -13q0 -15 -20 -15l-36 2q-28 2 -44 2q-20 0 -50 -2l-45 -2q-24 0 -24 15q0 8 6.5 14zM417 271l-109 273
l-101 -273h210z" />
    <glyph glyph-name="Aacute" unicode="&#xc1;" horiz-adv-x="687" 
d="M11.5 25q6.5 6 22.5 17q23 14 39 29.5t25 39.5l177 474q4 11 4 21q0 19 -12.5 31.5t-33.5 24.5q-14 9 -20.5 14.5t-6.5 12.5q0 15 18 15l35 -2q36 -2 57 -2h49l231 -585q10 -25 25 -41t35 -31q15 -12 20.5 -18t5.5 -14q0 -15 -23 -15l-42 2q-44 2 -72 2h-14q-22 0 -60 -2
q-32 -2 -39 -2q-20 0 -20 15q0 7 7 12.5t21 14.5q22 13 34 24t12 28q0 8 -5 21l-45 114h-246l-41 -110q-4 -9 -4 -20q0 -19 13.5 -32t36.5 -25q15 -8 22 -14t7 -13q0 -15 -20 -15l-36 2q-28 2 -44 2q-20 0 -50 -2l-45 -2q-24 0 -24 15q0 8 6.5 14zM417 271l-109 273
l-101 -273h210zM301 792.5q-5 4.5 -5 10.5l-5 79q-2 25 15 34.5t46 9.5q46 0 46 -25q0 -11 -13 -31l-48 -69q-7 -13 -24 -13q-7 0 -12 4.5z" />
    <glyph glyph-name="Abreve" unicode="&#x102;" horiz-adv-x="687" 
d="M11.5 25q6.5 6 22.5 17q23 14 39 29.5t25 39.5l177 474q4 11 4 21q0 19 -12.5 31.5t-33.5 24.5q-14 9 -20.5 14.5t-6.5 12.5q0 15 18 15l35 -2q36 -2 57 -2h49l231 -585q10 -25 25 -41t35 -31q15 -12 20.5 -18t5.5 -14q0 -15 -23 -15l-42 2q-44 2 -72 2h-14q-22 0 -60 -2
q-32 -2 -39 -2q-20 0 -20 15q0 7 7 12.5t21 14.5q22 13 34 24t12 28q0 8 -5 21l-45 114h-246l-41 -110q-4 -9 -4 -20q0 -19 13.5 -32t36.5 -25q15 -8 22 -14t7 -13q0 -15 -20 -15l-36 2q-28 2 -44 2q-20 0 -50 -2l-45 -2q-24 0 -24 15q0 8 6.5 14zM417 271l-109 273
l-101 -273h210zM273.5 825.5q-26.5 35.5 -33.5 82.5v3q0 6 3.5 10t7.5 5q7 0 11 -8q31 -68 81 -68q26 0 47 18t35 51q4 8 11 8q5 0 9 -5t3 -12q-11 -53 -36.5 -86.5t-68.5 -33.5t-69.5 35.5z" />
    <glyph glyph-name="uni01CD" unicode="&#x1cd;" horiz-adv-x="687" 
d="M11.5 25q6.5 6 22.5 17q23 14 39 29.5t25 39.5l177 474q4 11 4 21q0 19 -12.5 31.5t-33.5 24.5q-14 9 -20.5 14.5t-6.5 12.5q0 15 18 15l35 -2q36 -2 57 -2h49l231 -585q10 -25 25 -41t35 -31q15 -12 20.5 -18t5.5 -14q0 -15 -23 -15l-42 2q-44 2 -72 2h-14q-22 0 -60 -2
q-32 -2 -39 -2q-20 0 -20 15q0 7 7 12.5t21 14.5q22 13 34 24t12 28q0 8 -5 21l-45 114h-246l-41 -110q-4 -9 -4 -20q0 -19 13.5 -32t36.5 -25q15 -8 22 -14t7 -13q0 -15 -20 -15l-36 2q-28 2 -44 2q-20 0 -50 -2l-45 -2q-24 0 -24 15q0 8 6.5 14zM417 271l-109 273
l-101 -273h210zM305 813l-56 94q-2 3 -2 8q0 11 15 11q10 0 17 -6l64 -58l65 55q10 9 19 9t13 -6t-1 -12l-57 -95q-7 -11 -17 -17t-21 -6q-24 0 -39 23z" />
    <glyph glyph-name="Acircumflex" unicode="&#xc2;" horiz-adv-x="687" 
d="M11.5 25q6.5 6 22.5 17q23 14 39 29.5t25 39.5l177 474q4 11 4 21q0 19 -12.5 31.5t-33.5 24.5q-14 9 -20.5 14.5t-6.5 12.5q0 15 18 15l35 -2q36 -2 57 -2h49l231 -585q10 -25 25 -41t35 -31q15 -12 20.5 -18t5.5 -14q0 -15 -23 -15l-42 2q-44 2 -72 2h-14q-22 0 -60 -2
q-32 -2 -39 -2q-20 0 -20 15q0 7 7 12.5t21 14.5q22 13 34 24t12 28q0 8 -5 21l-45 114h-246l-41 -110q-4 -9 -4 -20q0 -19 13.5 -32t36.5 -25q15 -8 22 -14t7 -13q0 -15 -20 -15l-36 2q-28 2 -44 2q-20 0 -50 -2l-45 -2q-24 0 -24 15q0 8 6.5 14zM417 271l-109 273
l-101 -273h210zM247 801q0 5 2 8l56 94q14 23 39 23q11 0 21.5 -6t16.5 -17l57 -95q2 -2 2 -7t-3.5 -8t-10.5 -3q-9 0 -19 9l-65 55l-64 -58q-7 -6 -17 -6q-15 0 -15 11z" />
    <glyph glyph-name="Adieresis" unicode="&#xc4;" horiz-adv-x="687" 
d="M11.5 25q6.5 6 22.5 17q23 14 39 29.5t25 39.5l177 474q4 11 4 21q0 19 -12.5 31.5t-33.5 24.5q-14 9 -20.5 14.5t-6.5 12.5q0 15 18 15l35 -2q36 -2 57 -2h49l231 -585q10 -25 25 -41t35 -31q15 -12 20.5 -18t5.5 -14q0 -15 -23 -15l-42 2q-44 2 -72 2h-14q-22 0 -60 -2
q-32 -2 -39 -2q-20 0 -20 15q0 7 7 12.5t21 14.5q22 13 34 24t12 28q0 8 -5 21l-45 114h-246l-41 -110q-4 -9 -4 -20q0 -19 13.5 -32t36.5 -25q15 -8 22 -14t7 -13q0 -15 -20 -15l-36 2q-28 2 -44 2q-20 0 -50 -2l-45 -2q-24 0 -24 15q0 8 6.5 14zM417 271l-109 273
l-101 -273h210zM227 816.5q-18 17.5 -18 41.5t18 42t43 18t43 -18t18 -42t-18 -41.5t-43 -17.5t-43 17.5zM373.5 900q17.5 18 42.5 18t43 -18t18 -42t-18 -41.5t-43 -17.5t-42.5 17.5t-17.5 41.5t17.5 42z" />
    <glyph glyph-name="Agrave" unicode="&#xc0;" horiz-adv-x="687" 
d="M11.5 25q6.5 6 22.5 17q23 14 39 29.5t25 39.5l177 474q4 11 4 21q0 19 -12.5 31.5t-33.5 24.5q-14 9 -20.5 14.5t-6.5 12.5q0 15 18 15l35 -2q36 -2 57 -2h49l231 -585q10 -25 25 -41t35 -31q15 -12 20.5 -18t5.5 -14q0 -15 -23 -15l-42 2q-44 2 -72 2h-14q-22 0 -60 -2
q-32 -2 -39 -2q-20 0 -20 15q0 7 7 12.5t21 14.5q22 13 34 24t12 28q0 8 -5 21l-45 114h-246l-41 -110q-4 -9 -4 -20q0 -19 13.5 -32t36.5 -25q15 -8 22 -14t7 -13q0 -15 -20 -15l-36 2q-28 2 -44 2q-20 0 -50 -2l-45 -2q-24 0 -24 15q0 8 6.5 14zM417 271l-109 273
l-101 -273h210zM351 801l-47 69q-14 19 -14 31q0 25 46 25q29 0 46 -9.5t15 -34.5l-5 -79q0 -6 -4.5 -10.5t-12.5 -4.5q-17 0 -24 13z" />
    <glyph glyph-name="Amacron" unicode="&#x100;" horiz-adv-x="687" 
d="M11.5 25q6.5 6 22.5 17q23 14 39 29.5t25 39.5l177 474q4 11 4 21q0 19 -12.5 31.5t-33.5 24.5q-14 9 -20.5 14.5t-6.5 12.5q0 15 18 15l35 -2q36 -2 57 -2h49l231 -585q10 -25 25 -41t35 -31q15 -12 20.5 -18t5.5 -14q0 -15 -23 -15l-42 2q-44 2 -72 2h-14q-22 0 -60 -2
q-32 -2 -39 -2q-20 0 -20 15q0 7 7 12.5t21 14.5q22 13 34 24t12 28q0 8 -5 21l-45 114h-246l-41 -110q-4 -9 -4 -20q0 -19 13.5 -32t36.5 -25q15 -8 22 -14t7 -13q0 -15 -20 -15l-36 2q-28 2 -44 2q-20 0 -50 -2l-45 -2q-24 0 -24 15q0 8 6.5 14zM417 271l-109 273
l-101 -273h210zM252 887h183v-50h-183v50z" />
    <glyph glyph-name="Aogonek" unicode="&#x104;" horiz-adv-x="687" 
d="M11.5 25q6.5 6 22.5 17q23 14 39 29.5t25 39.5l177 474q4 11 4 21q0 19 -12.5 31.5t-33.5 24.5q-14 9 -20.5 14.5t-6.5 12.5q0 15 18 15l35 -2q36 -2 57 -2h49l231 -585q10 -25 25 -41t35 -31q15 -12 20.5 -18t5.5 -14q0 -15 -23 -15l-42 2q-24 -18 -43.5 -42.5
t-19.5 -45.5q0 -11 8.5 -18t24.5 -7q6 0 10 -4t4 -10q0 -13 -15 -24.5t-41 -11.5q-27 0 -41 14.5t-14 35.5q0 37 29.5 66.5t68.5 47.5q-15 1 -43 1h-14q-22 0 -60 -2q-32 -2 -39 -2q-20 0 -20 15q0 7 7 12.5t21 14.5q22 13 34 24t12 28q0 8 -5 21l-45 114h-246l-41 -110
q-4 -9 -4 -20q0 -19 13.5 -32t36.5 -25q15 -8 22 -14t7 -13q0 -15 -20 -15l-36 2q-28 2 -44 2q-20 0 -50 -2l-45 -2q-24 0 -24 15q0 8 6.5 14zM417 271l-109 273l-101 -273h210z" />
    <glyph glyph-name="Aring" unicode="&#xc5;" horiz-adv-x="687" 
d="M11.5 25q6.5 6 22.5 17q23 14 39 29.5t25 39.5l177 474q4 11 4 21q0 19 -12.5 31.5t-33.5 24.5q-14 9 -20.5 14.5t-6.5 12.5q0 15 18 15l35 -2q36 -2 57 -2h49l231 -585q10 -25 25 -41t35 -31q15 -12 20.5 -18t5.5 -14q0 -15 -23 -15l-42 2q-44 2 -72 2h-14q-22 0 -60 -2
q-32 -2 -39 -2q-20 0 -20 15q0 7 7 12.5t21 14.5q22 13 34 24t12 28q0 8 -5 21l-45 114h-246l-41 -110q-4 -9 -4 -20q0 -19 13.5 -32t36.5 -25q15 -8 22 -14t7 -13q0 -15 -20 -15l-36 2q-28 2 -44 2q-20 0 -50 -2l-45 -2q-24 0 -24 15q0 8 6.5 14zM417 271l-109 273
l-101 -273h210zM285.5 810q-23.5 20 -23.5 49q0 28 24 47.5t60 19.5q34 0 57 -19t23 -48t-23.5 -49t-58.5 -20t-58.5 20zM319 836.5q10 -8.5 25 -8.5q16 0 26 8.5t10 22.5q0 13 -10.5 21.5t-24.5 8.5q-16 0 -26 -8.5t-10 -21.5q0 -14 10 -22.5z" />
    <glyph glyph-name="Atilde" unicode="&#xc3;" horiz-adv-x="687" 
d="M11.5 25q6.5 6 22.5 17q23 14 39 29.5t25 39.5l177 474q4 11 4 21q0 19 -12.5 31.5t-33.5 24.5q-14 9 -20.5 14.5t-6.5 12.5q0 15 18 15l35 -2q36 -2 57 -2h49l231 -585q10 -25 25 -41t35 -31q15 -12 20.5 -18t5.5 -14q0 -15 -23 -15l-42 2q-44 2 -72 2h-14q-22 0 -60 -2
q-32 -2 -39 -2q-20 0 -20 15q0 7 7 12.5t21 14.5q22 13 34 24t12 28q0 8 -5 21l-45 114h-246l-41 -110q-4 -9 -4 -20q0 -19 13.5 -32t36.5 -25q15 -8 22 -14t7 -13q0 -15 -20 -15l-36 2q-28 2 -44 2q-20 0 -50 -2l-45 -2q-24 0 -24 15q0 8 6.5 14zM417 271l-109 273
l-101 -273h210zM364.5 816q-13.5 7 -32.5 20q-13 10 -22.5 14.5t-18.5 4.5q-15 0 -25 -11.5t-10 -29.5q0 -5 -4 -8t-8 -3q-5 0 -9 4t-4 10q0 45 18 67.5t46 22.5q14 0 26 -5t30 -16q29 -19 46 -19q15 0 23.5 12.5t8.5 27.5q0 7 3.5 11.5t8.5 4.5q6 0 10.5 -4.5t4.5 -14.5
q0 -46 -16 -70.5t-45 -24.5q-17 0 -30.5 7z" />
    <glyph glyph-name="AE" unicode="&#xc6;" horiz-adv-x="886" 
d="M12 26q7 7 23 18q23 16 38 30.5t26 36.5l234 474q6 14 6 23q0 17 -12.5 29.5t-34.5 24.5q-3 2 -11.5 7.5t-12.5 10t-4 9.5q0 15 18 15l35 -2q36 -2 57 -2h438q16 0 22.5 -6t6.5 -21q0 -25 13 -81q9 -38 9 -53q0 -11 -10 -11q-9 0 -17.5 10t-23.5 32q-25 39 -49 61.5
t-60 22.5h-177v-282h137q21 0 32 15t23 45q7 18 11 25.5t11 7.5q14 0 14 -27q0 -20 -2 -50q-2 -28 -2 -37q0 -10 2 -38q2 -32 2 -53q0 -27 -14 -27q-7 0 -11 7.5t-11 25.5q-12 30 -23 45t-32 15h-137v-279h206q34 0 58 22.5t50 61.5q16 22 24 31.5t16 9.5q9 0 9 -14
q0 -13 -10 -57q-13 -52 -13 -73q0 -16 -5.5 -22t-17.5 -6h-392q-20 0 -56 -2l-36 -2q-18 0 -18 15q0 7 5.5 13t17.5 14q22 15 34 30.5t12 43.5v113h-206l-54 -110q-5 -10 -5 -22q0 -17 12.5 -28.5t36.5 -25.5q17 -10 24 -15.5t7 -12.5q0 -15 -20 -15l-37 2q-28 2 -44 2
q-18 0 -48 -2q-38 -2 -47 -2q-24 0 -24 15q0 8 7 15zM410 271v376l-183 -376h183z" />
    <glyph glyph-name="B" unicode="B" horiz-adv-x="625" 
d="M60 -2q-28 -2 -35 -2q-19 0 -19 15q0 7 5.5 13t17.5 14q22 15 34 30.5t12 43.5v473q0 29 -12.5 46t-34.5 31q-11 8 -16.5 14t-5.5 13q0 15 19 15l33 -2q36 -2 58 -2h238q100 0 151.5 -39.5t51.5 -106.5q0 -48 -24 -83t-68 -46q68 -13 106 -69.5t38 -129.5
q0 -114 -70.5 -170t-211.5 -56h-211q-20 0 -56 -2zM294 46q95 0 144.5 41.5t49.5 138.5q0 99 -51.5 138.5t-130.5 39.5h-115v-358h103zM304 450q72 0 104 25t32 76q0 103 -123 103h-126v-204h113z" />
    <glyph glyph-name="C" unicode="C" horiz-adv-x="614" 
d="M176.5 33.5q-76.5 49.5 -119.5 134.5t-43 189q0 100 40 181.5t120.5 129.5t197.5 48q70 0 126.5 -17t60.5 -39l20 -102l2 -20q0 -15 -9 -15q-6 0 -15.5 10t-20.5 23q-38 47 -78 77t-99 30q-111 0 -165 -84.5t-54 -213.5q0 -93 29.5 -167.5t85 -118t130.5 -43.5
q64 0 110.5 25t82.5 69q5 8 13 8q4 0 7 -3t4 -7v-3q0 -7 -5 -15q-35 -58 -96 -92t-151 -34q-97 0 -173.5 49.5z" />
    <glyph glyph-name="Cacute" unicode="&#x106;" horiz-adv-x="614" 
d="M176.5 33.5q-76.5 49.5 -119.5 134.5t-43 189q0 100 40 181.5t120.5 129.5t197.5 48q70 0 126.5 -17t60.5 -39l20 -102l2 -20q0 -15 -9 -15q-6 0 -15.5 10t-20.5 23q-38 47 -78 77t-99 30q-111 0 -165 -84.5t-54 -213.5q0 -93 29.5 -167.5t85 -118t130.5 -43.5
q64 0 110.5 25t82.5 69q5 8 13 8q4 0 7 -3t4 -7v-3q0 -7 -5 -15q-35 -58 -96 -92t-151 -34q-97 0 -173.5 49.5zM304 792.5q-5 4.5 -5 10.5l-5 79q-2 25 15 34.5t46 9.5q46 0 46 -25q0 -11 -13 -31l-48 -69q-7 -13 -24 -13q-7 0 -12 4.5z" />
    <glyph glyph-name="Ccaron" unicode="&#x10c;" horiz-adv-x="614" 
d="M176.5 33.5q-76.5 49.5 -119.5 134.5t-43 189q0 100 40 181.5t120.5 129.5t197.5 48q70 0 126.5 -17t60.5 -39l20 -102l2 -20q0 -15 -9 -15q-6 0 -15.5 10t-20.5 23q-38 47 -78 77t-99 30q-111 0 -165 -84.5t-54 -213.5q0 -93 29.5 -167.5t85 -118t130.5 -43.5
q64 0 110.5 25t82.5 69q5 8 13 8q4 0 7 -3t4 -7v-3q0 -7 -5 -15q-35 -58 -96 -92t-151 -34q-97 0 -173.5 49.5zM308 813l-56 94q-2 3 -2 8q0 11 15 11q10 0 17 -6l64 -58l65 55q10 9 19 9t13 -6t-1 -12l-57 -95q-7 -11 -17 -17t-21 -6q-24 0 -39 23z" />
    <glyph glyph-name="Ccedilla" unicode="&#xc7;" horiz-adv-x="614" 
d="M319 -15l-9 -30l1 -2q6 5 16 8.5t20 3.5q24 0 40.5 -18t16.5 -46q0 -32 -21.5 -53t-55.5 -21q-20 0 -38.5 10t-28.5 25q-4 4 -4 8t4 5t8 -3q17 -20 42 -20q18 0 29.5 10t11.5 26t-11 26t-28 10q-9 0 -19.5 -4.5t-13.5 -4.5q-8 0 -8 9q0 5 3 14l18 51q-82 14 -145.5 65.5
t-98 130.5t-34.5 172q0 100 40 181.5t120.5 129.5t197.5 48q70 0 126.5 -17t60.5 -39l20 -102l2 -20q0 -15 -9 -15q-6 0 -15.5 10t-20.5 23q-38 47 -78 77t-99 30q-111 0 -165 -84.5t-54 -213.5q0 -93 29.5 -167.5t85 -118t130.5 -43.5q64 0 110.5 25t82.5 69q5 8 13 8
q4 0 7 -3t4 -7v-3q0 -7 -5 -15q-35 -58 -96 -92t-151 -34q-21 0 -31 1z" />
    <glyph glyph-name="Ccircumflex" unicode="&#x108;" horiz-adv-x="614" 
d="M176.5 33.5q-76.5 49.5 -119.5 134.5t-43 189q0 100 40 181.5t120.5 129.5t197.5 48q70 0 126.5 -17t60.5 -39l20 -102l2 -20q0 -15 -9 -15q-6 0 -15.5 10t-20.5 23q-38 47 -78 77t-99 30q-111 0 -165 -84.5t-54 -213.5q0 -93 29.5 -167.5t85 -118t130.5 -43.5
q64 0 110.5 25t82.5 69q5 8 13 8q4 0 7 -3t4 -7v-3q0 -7 -5 -15q-35 -58 -96 -92t-151 -34q-97 0 -173.5 49.5zM250 801q0 5 2 8l56 94q14 23 39 23q11 0 21.5 -6t16.5 -17l57 -95q2 -2 2 -7t-3.5 -8t-10.5 -3q-9 0 -19 9l-65 55l-64 -58q-7 -6 -17 -6q-15 0 -15 11z" />
    <glyph glyph-name="Cdotaccent" unicode="&#x10a;" horiz-adv-x="614" 
d="M176.5 33.5q-76.5 49.5 -119.5 134.5t-43 189q0 100 40 181.5t120.5 129.5t197.5 48q70 0 126.5 -17t60.5 -39l20 -102l2 -20q0 -15 -9 -15q-6 0 -15.5 10t-20.5 23q-38 47 -78 77t-99 30q-111 0 -165 -84.5t-54 -213.5q0 -93 29.5 -167.5t85 -118t130.5 -43.5
q64 0 110.5 25t82.5 69q5 8 13 8q4 0 7 -3t4 -7v-3q0 -7 -5 -15q-35 -58 -96 -92t-151 -34q-97 0 -173.5 49.5zM297.5 810.5q-20.5 20.5 -20.5 47.5q0 28 20.5 48t49.5 20q28 0 48.5 -20t20.5 -48q0 -27 -20.5 -47.5t-48.5 -20.5q-29 0 -49.5 20.5z" />
    <glyph glyph-name="D" unicode="D" horiz-adv-x="641" 
d="M60 -2q-28 -2 -35 -2q-19 0 -19 15q0 7 5.5 13t17.5 14q22 15 34 30.5t12 43.5v473q0 29 -12.5 46t-34.5 31q-11 8 -16.5 14t-5.5 13q0 15 19 15l33 -2q36 -2 58 -2h182q104 0 178 -44.5t112.5 -123.5t38.5 -181t-38.5 -181.5t-112.5 -124.5t-178 -45h-182q-20 0 -56 -2z
M298 46q105 0 156 82.5t51 222.5q0 138 -51 219.5t-156 81.5h-107v-606h107z" />
    <glyph glyph-name="Eth" unicode="&#xd0;" horiz-adv-x="641" 
d="M60 -2q-28 -2 -35 -2q-19 0 -19 15q0 7 5.5 13t17.5 14q22 15 34 30.5t12 43.5v214h-25v46h25v213q0 29 -12.5 46t-34.5 31q-11 8 -16.5 14t-5.5 13q0 15 19 15l33 -2q36 -2 58 -2h182q104 0 178 -44.5t112.5 -123.5t38.5 -181t-38.5 -181.5t-112.5 -124.5t-178 -45h-182
q-20 0 -56 -2zM298 46q101 0 151.5 75.5t55.5 204.5h-314v-280h107zM505 372q-4 129 -55 204.5t-152 75.5h-107v-280h314z" />
    <glyph glyph-name="Dcaron" unicode="&#x10e;" horiz-adv-x="641" 
d="M60 -2q-28 -2 -35 -2q-19 0 -19 15q0 7 5.5 13t17.5 14q22 15 34 30.5t12 43.5v473q0 29 -12.5 46t-34.5 31q-11 8 -16.5 14t-5.5 13q0 15 19 15l33 -2q36 -2 58 -2h182q104 0 178 -44.5t112.5 -123.5t38.5 -181t-38.5 -181.5t-112.5 -124.5t-178 -45h-182q-20 0 -56 -2z
M298 46q105 0 156 82.5t51 222.5q0 138 -51 219.5t-156 81.5h-107v-606h107zM281 813l-56 94q-2 3 -2 8q0 11 15 11q10 0 17 -6l64 -58l65 55q10 9 19 9t13 -6t-1 -12l-57 -95q-7 -11 -17 -17t-21 -6q-24 0 -39 23z" />
    <glyph glyph-name="Dcroat" unicode="&#x110;" horiz-adv-x="641" 
d="M60 -2q-28 -2 -35 -2q-19 0 -19 15q0 7 5.5 13t17.5 14q22 15 34 30.5t12 43.5v214h-25v46h25v213q0 29 -12.5 46t-34.5 31q-11 8 -16.5 14t-5.5 13q0 15 19 15l33 -2q36 -2 58 -2h182q104 0 178 -44.5t112.5 -123.5t38.5 -181t-38.5 -181.5t-112.5 -124.5t-178 -45h-182
q-20 0 -56 -2zM298 46q101 0 151.5 75.5t55.5 204.5h-314v-280h107zM505 372q-4 129 -55 204.5t-152 75.5h-107v-280h314z" />
    <glyph glyph-name="E" unicode="E" horiz-adv-x="552" 
d="M60 -2q-28 -2 -35 -2q-19 0 -19 15q0 7 5.5 13t17.5 14q22 15 34 30.5t12 43.5v473q0 29 -12.5 46t-34.5 31q-11 8 -16.5 14t-5.5 13q0 15 19 15l33 -2q36 -2 58 -2h362q16 0 22 -5.5t6 -21.5q0 -25 13 -81q10 -42 10 -53q0 -5 -3 -8t-7 -3q-9 0 -17.5 10t-23.5 32
q-27 40 -50.5 62t-59.5 22h-177v-282h137q21 0 33 16t22 44q7 17 11.5 25t11.5 8q13 0 13 -26q0 -19 -2 -51q-2 -26 -2 -36t2 -38q2 -34 2 -54q0 -27 -13 -27q-7 0 -11.5 8t-11.5 25q-10 28 -22 44t-33 16h-137v-279h206q34 0 57.5 22t51.5 62q13 20 22.5 30.5t17.5 10.5
q4 0 6.5 -3.5t2.5 -8.5q0 -17 -11 -59q-1 -4 -7 -30t-6 -47q0 -14 -5.5 -19t-17.5 -5h-392q-20 0 -56 -2z" />
    <glyph glyph-name="Eacute" unicode="&#xc9;" horiz-adv-x="552" 
d="M60 -2q-28 -2 -35 -2q-19 0 -19 15q0 7 5.5 13t17.5 14q22 15 34 30.5t12 43.5v473q0 29 -12.5 46t-34.5 31q-11 8 -16.5 14t-5.5 13q0 15 19 15l33 -2q36 -2 58 -2h362q16 0 22 -5.5t6 -21.5q0 -25 13 -81q10 -42 10 -53q0 -5 -3 -8t-7 -3q-9 0 -17.5 10t-23.5 32
q-27 40 -50.5 62t-59.5 22h-177v-282h137q21 0 33 16t22 44q7 17 11.5 25t11.5 8q13 0 13 -26q0 -19 -2 -51q-2 -26 -2 -36t2 -38q2 -34 2 -54q0 -27 -13 -27q-7 0 -11.5 8t-11.5 25q-10 28 -22 44t-33 16h-137v-279h206q34 0 57.5 22t51.5 62q13 20 22.5 30.5t17.5 10.5
q4 0 6.5 -3.5t2.5 -8.5q0 -17 -11 -59q-1 -4 -7 -30t-6 -47q0 -14 -5.5 -19t-17.5 -5h-392q-20 0 -56 -2zM233 792.5q-5 4.5 -5 10.5l-5 79q-2 25 15 34.5t46 9.5q46 0 46 -25q0 -11 -13 -31l-48 -69q-7 -13 -24 -13q-7 0 -12 4.5z" />
    <glyph glyph-name="Ecaron" unicode="&#x11a;" horiz-adv-x="552" 
d="M60 -2q-28 -2 -35 -2q-19 0 -19 15q0 7 5.5 13t17.5 14q22 15 34 30.5t12 43.5v473q0 29 -12.5 46t-34.5 31q-11 8 -16.5 14t-5.5 13q0 15 19 15l33 -2q36 -2 58 -2h362q16 0 22 -5.5t6 -21.5q0 -25 13 -81q10 -42 10 -53q0 -5 -3 -8t-7 -3q-9 0 -17.5 10t-23.5 32
q-27 40 -50.5 62t-59.5 22h-177v-282h137q21 0 33 16t22 44q7 17 11.5 25t11.5 8q13 0 13 -26q0 -19 -2 -51q-2 -26 -2 -36t2 -38q2 -34 2 -54q0 -27 -13 -27q-7 0 -11.5 8t-11.5 25q-10 28 -22 44t-33 16h-137v-279h206q34 0 57.5 22t51.5 62q13 20 22.5 30.5t17.5 10.5
q4 0 6.5 -3.5t2.5 -8.5q0 -17 -11 -59q-1 -4 -7 -30t-6 -47q0 -14 -5.5 -19t-17.5 -5h-392q-20 0 -56 -2zM237 813l-56 94q-2 3 -2 8q0 11 15 11q10 0 17 -6l64 -58l65 55q10 9 19 9t13 -6t-1 -12l-57 -95q-7 -11 -17 -17t-21 -6q-24 0 -39 23z" />
    <glyph glyph-name="uni0228" unicode="&#x228;" horiz-adv-x="552" 
d="M60 -2q-28 -2 -35 -2q-19 0 -19 15q0 7 5.5 13t17.5 14q22 15 34 30.5t12 43.5v473q0 29 -12.5 46t-34.5 31q-11 8 -16.5 14t-5.5 13q0 15 19 15l33 -2q36 -2 58 -2h362q16 0 22 -5.5t6 -21.5q0 -25 13 -81q10 -42 10 -53q0 -5 -3 -8t-7 -3q-9 0 -17.5 10t-23.5 32
q-27 40 -50.5 62t-59.5 22h-177v-282h137q21 0 33 16t22 44q7 17 11.5 25t11.5 8q13 0 13 -26q0 -19 -2 -51q-2 -26 -2 -36t2 -38q2 -34 2 -54q0 -27 -13 -27q-7 0 -11.5 8t-11.5 25q-10 28 -22 44t-33 16h-137v-279h206q34 0 57.5 22t51.5 62q13 20 22.5 30.5t17.5 10.5
q4 0 6.5 -3.5t2.5 -8.5q0 -17 -11 -59q-1 -4 -7 -30t-6 -47q0 -14 -5.5 -19t-17.5 -5h-392q-20 0 -56 -2zM257.5 -163q-18.5 10 -28.5 25q-4 4 -4 8t4 5t8 -3q17 -20 42 -20q18 0 29.5 10t11.5 26t-11 26t-28 10q-9 0 -19.5 -4.5t-13.5 -4.5q-8 0 -8 9q0 5 3 14l19 55h28
l-11 -38l1 -2q6 5 16 8.5t20 3.5q24 0 40.5 -18t16.5 -46q0 -32 -21.5 -53t-55.5 -21q-20 0 -38.5 10z" />
    <glyph glyph-name="Ecircumflex" unicode="&#xca;" horiz-adv-x="552" 
d="M60 -2q-28 -2 -35 -2q-19 0 -19 15q0 7 5.5 13t17.5 14q22 15 34 30.5t12 43.5v473q0 29 -12.5 46t-34.5 31q-11 8 -16.5 14t-5.5 13q0 15 19 15l33 -2q36 -2 58 -2h362q16 0 22 -5.5t6 -21.5q0 -25 13 -81q10 -42 10 -53q0 -5 -3 -8t-7 -3q-9 0 -17.5 10t-23.5 32
q-27 40 -50.5 62t-59.5 22h-177v-282h137q21 0 33 16t22 44q7 17 11.5 25t11.5 8q13 0 13 -26q0 -19 -2 -51q-2 -26 -2 -36t2 -38q2 -34 2 -54q0 -27 -13 -27q-7 0 -11.5 8t-11.5 25q-10 28 -22 44t-33 16h-137v-279h206q34 0 57.5 22t51.5 62q13 20 22.5 30.5t17.5 10.5
q4 0 6.5 -3.5t2.5 -8.5q0 -17 -11 -59q-1 -4 -7 -30t-6 -47q0 -14 -5.5 -19t-17.5 -5h-392q-20 0 -56 -2zM179 801q0 5 2 8l56 94q14 23 39 23q11 0 21.5 -6t16.5 -17l57 -95q2 -2 2 -7t-3.5 -8t-10.5 -3q-9 0 -19 9l-65 55l-64 -58q-7 -6 -17 -6q-15 0 -15 11z" />
    <glyph glyph-name="Edieresis" unicode="&#xcb;" horiz-adv-x="552" 
d="M60 -2q-28 -2 -35 -2q-19 0 -19 15q0 7 5.5 13t17.5 14q22 15 34 30.5t12 43.5v473q0 29 -12.5 46t-34.5 31q-11 8 -16.5 14t-5.5 13q0 15 19 15l33 -2q36 -2 58 -2h362q16 0 22 -5.5t6 -21.5q0 -25 13 -81q10 -42 10 -53q0 -5 -3 -8t-7 -3q-9 0 -17.5 10t-23.5 32
q-27 40 -50.5 62t-59.5 22h-177v-282h137q21 0 33 16t22 44q7 17 11.5 25t11.5 8q13 0 13 -26q0 -19 -2 -51q-2 -26 -2 -36t2 -38q2 -34 2 -54q0 -27 -13 -27q-7 0 -11.5 8t-11.5 25q-10 28 -22 44t-33 16h-137v-279h206q34 0 57.5 22t51.5 62q13 20 22.5 30.5t17.5 10.5
q4 0 6.5 -3.5t2.5 -8.5q0 -17 -11 -59q-1 -4 -7 -30t-6 -47q0 -14 -5.5 -19t-17.5 -5h-392q-20 0 -56 -2zM160 816.5q-18 17.5 -18 41.5t18 42t43 18t43 -18t18 -42t-18 -41.5t-43 -17.5t-43 17.5zM306.5 900q17.5 18 42.5 18t43 -18t18 -42t-18 -41.5t-43 -17.5t-42.5 17.5
t-17.5 41.5t17.5 42z" />
    <glyph glyph-name="Edotaccent" unicode="&#x116;" horiz-adv-x="552" 
d="M60 -2q-28 -2 -35 -2q-19 0 -19 15q0 7 5.5 13t17.5 14q22 15 34 30.5t12 43.5v473q0 29 -12.5 46t-34.5 31q-11 8 -16.5 14t-5.5 13q0 15 19 15l33 -2q36 -2 58 -2h362q16 0 22 -5.5t6 -21.5q0 -25 13 -81q10 -42 10 -53q0 -5 -3 -8t-7 -3q-9 0 -17.5 10t-23.5 32
q-27 40 -50.5 62t-59.5 22h-177v-282h137q21 0 33 16t22 44q7 17 11.5 25t11.5 8q13 0 13 -26q0 -19 -2 -51q-2 -26 -2 -36t2 -38q2 -34 2 -54q0 -27 -13 -27q-7 0 -11.5 8t-11.5 25q-10 28 -22 44t-33 16h-137v-279h206q34 0 57.5 22t51.5 62q13 20 22.5 30.5t17.5 10.5
q4 0 6.5 -3.5t2.5 -8.5q0 -17 -11 -59q-1 -4 -7 -30t-6 -47q0 -14 -5.5 -19t-17.5 -5h-392q-20 0 -56 -2zM226.5 810.5q-20.5 20.5 -20.5 47.5q0 28 20.5 48t49.5 20q28 0 48.5 -20t20.5 -48q0 -27 -20.5 -47.5t-48.5 -20.5q-29 0 -49.5 20.5z" />
    <glyph glyph-name="Egrave" unicode="&#xc8;" horiz-adv-x="552" 
d="M60 -2q-28 -2 -35 -2q-19 0 -19 15q0 7 5.5 13t17.5 14q22 15 34 30.5t12 43.5v473q0 29 -12.5 46t-34.5 31q-11 8 -16.5 14t-5.5 13q0 15 19 15l33 -2q36 -2 58 -2h362q16 0 22 -5.5t6 -21.5q0 -25 13 -81q10 -42 10 -53q0 -5 -3 -8t-7 -3q-9 0 -17.5 10t-23.5 32
q-27 40 -50.5 62t-59.5 22h-177v-282h137q21 0 33 16t22 44q7 17 11.5 25t11.5 8q13 0 13 -26q0 -19 -2 -51q-2 -26 -2 -36t2 -38q2 -34 2 -54q0 -27 -13 -27q-7 0 -11.5 8t-11.5 25q-10 28 -22 44t-33 16h-137v-279h206q34 0 57.5 22t51.5 62q13 20 22.5 30.5t17.5 10.5
q4 0 6.5 -3.5t2.5 -8.5q0 -17 -11 -59q-1 -4 -7 -30t-6 -47q0 -14 -5.5 -19t-17.5 -5h-392q-20 0 -56 -2zM284 801l-47 69q-14 19 -14 31q0 25 46 25q29 0 46 -9.5t15 -34.5l-5 -79q0 -6 -4.5 -10.5t-12.5 -4.5q-17 0 -24 13z" />
    <glyph glyph-name="Emacron" unicode="&#x112;" horiz-adv-x="552" 
d="M60 -2q-28 -2 -35 -2q-19 0 -19 15q0 7 5.5 13t17.5 14q22 15 34 30.5t12 43.5v473q0 29 -12.5 46t-34.5 31q-11 8 -16.5 14t-5.5 13q0 15 19 15l33 -2q36 -2 58 -2h362q16 0 22 -5.5t6 -21.5q0 -25 13 -81q10 -42 10 -53q0 -5 -3 -8t-7 -3q-9 0 -17.5 10t-23.5 32
q-27 40 -50.5 62t-59.5 22h-177v-282h137q21 0 33 16t22 44q7 17 11.5 25t11.5 8q13 0 13 -26q0 -19 -2 -51q-2 -26 -2 -36t2 -38q2 -34 2 -54q0 -27 -13 -27q-7 0 -11.5 8t-11.5 25q-10 28 -22 44t-33 16h-137v-279h206q34 0 57.5 22t51.5 62q13 20 22.5 30.5t17.5 10.5
q4 0 6.5 -3.5t2.5 -8.5q0 -17 -11 -59q-1 -4 -7 -30t-6 -47q0 -14 -5.5 -19t-17.5 -5h-392q-20 0 -56 -2zM184 887h183v-50h-183v50z" />
    <glyph glyph-name="Eogonek" unicode="&#x118;" horiz-adv-x="552" 
d="M60 -2q-28 -2 -35 -2q-19 0 -19 15q0 7 5.5 13t17.5 14q22 15 34 30.5t12 43.5v473q0 29 -12.5 46t-34.5 31q-11 8 -16.5 14t-5.5 13q0 15 19 15l33 -2q36 -2 58 -2h362q16 0 22 -5.5t6 -21.5q0 -25 13 -81q10 -42 10 -53q0 -5 -3 -8t-7 -3q-9 0 -17.5 10t-23.5 32
q-27 40 -50.5 62t-59.5 22h-177v-282h137q21 0 33 16t22 44q7 17 11.5 25t11.5 8q13 0 13 -26q0 -19 -2 -51q-2 -26 -2 -36t2 -38q2 -34 2 -54q0 -27 -13 -27q-7 0 -11.5 8t-11.5 25q-10 28 -22 44t-33 16h-137v-279h206q34 0 57.5 22t51.5 62q13 20 22.5 30.5t17.5 10.5
q4 0 6.5 -3.5t2.5 -8.5q0 -17 -11 -59q-1 -4 -7 -30t-6 -47q0 -14 -5.5 -19t-17.5 -5h-8q-25 -17 -46 -43t-21 -47q0 -11 8.5 -18t24.5 -7q6 0 10 -4t4 -10q0 -13 -15 -24.5t-41 -11.5q-27 0 -41 14.5t-14 35.5q0 38 30.5 67.5t69.5 47.5h-353q-20 0 -56 -2z" />
    <glyph glyph-name="uni1EBC" unicode="&#x1ebc;" horiz-adv-x="552" 
d="M60 -2q-28 -2 -35 -2q-19 0 -19 15q0 7 5.5 13t17.5 14q22 15 34 30.5t12 43.5v473q0 29 -12.5 46t-34.5 31q-11 8 -16.5 14t-5.5 13q0 15 19 15l33 -2q36 -2 58 -2h362q16 0 22 -5.5t6 -21.5q0 -25 13 -81q10 -42 10 -53q0 -5 -3 -8t-7 -3q-9 0 -17.5 10t-23.5 32
q-27 40 -50.5 62t-59.5 22h-177v-282h137q21 0 33 16t22 44q7 17 11.5 25t11.5 8q13 0 13 -26q0 -19 -2 -51q-2 -26 -2 -36t2 -38q2 -34 2 -54q0 -27 -13 -27q-7 0 -11.5 8t-11.5 25q-10 28 -22 44t-33 16h-137v-279h206q34 0 57.5 22t51.5 62q13 20 22.5 30.5t17.5 10.5
q4 0 6.5 -3.5t2.5 -8.5q0 -17 -11 -59q-1 -4 -7 -30t-6 -47q0 -14 -5.5 -19t-17.5 -5h-392q-20 0 -56 -2zM296.5 816q-13.5 7 -32.5 20q-13 10 -22.5 14.5t-18.5 4.5q-15 0 -25 -11.5t-10 -29.5q0 -5 -4 -8t-8 -3q-5 0 -9 4t-4 10q0 45 18 67.5t46 22.5q14 0 26 -5t30 -16
q29 -19 46 -19q15 0 23.5 12.5t8.5 27.5q0 7 3.5 11.5t8.5 4.5q6 0 10.5 -4.5t4.5 -14.5q0 -46 -16 -70.5t-45 -24.5q-17 0 -30.5 7z" />
    <glyph glyph-name="uni018F" unicode="&#x18f;" horiz-adv-x="638" 
d="M157.5 32.5q-69.5 48.5 -106.5 132t-37 185.5q0 22 1 31l6 3h476q-6 128 -50.5 207t-127.5 79q-61 0 -102 -45.5t-61 -124.5l-4 -2h-118l-5 2q32 98 109.5 157t180.5 59q92 0 161.5 -48.5t106.5 -132t37 -185.5t-37 -185.5t-106.5 -132t-161.5 -48.5t-161.5 48.5z
M187.5 116.5q45.5 -86.5 131.5 -86.5q87 0 132 86t47 222h-358q2 -135 47.5 -221.5z" />
    <glyph glyph-name="F" unicode="F" horiz-adv-x="523" 
d="M60 -2q-28 -2 -35 -2q-19 0 -19 15q0 7 5.5 13t17.5 14q22 15 34 30.5t12 43.5v473q0 29 -12.5 46t-34.5 31q-11 8 -16.5 14t-5.5 13q0 15 19 15l33 -2q36 -2 58 -2h364q16 0 22 -5.5t6 -21.5q0 -25 13 -81q10 -42 10 -53q0 -5 -3 -8t-7 -3q-9 0 -17.5 10t-23.5 32
q-27 40 -50.5 62t-59.5 22h-179v-280h143q21 0 33 16t22 44q7 17 11.5 25t11.5 8q13 0 13 -26q0 -19 -2 -51q-2 -26 -2 -36t2 -38q2 -34 2 -54q0 -27 -13 -27q-7 0 -11.5 8t-11.5 25q-10 28 -22 44t-33 16h-143v-213q0 -29 12.5 -46t34.5 -31q11 -8 16.5 -14t5.5 -13
q0 -15 -19 -15l-33 2q-36 2 -58 2h-34q-20 0 -56 -2z" />
    <glyph glyph-name="G" unicode="G" horiz-adv-x="631" 
d="M180.5 31q-77.5 47 -122 130.5t-44.5 187.5t40.5 187t121 131.5t196.5 48.5q72 0 130.5 -17t62.5 -39l19 -100q2 -14 2 -18q0 -20 -12 -20q-8 0 -15 7t-17 23q-34 53 -74.5 82t-105.5 29q-109 0 -161.5 -86.5t-52.5 -226.5q0 -145 58 -230.5t165 -85.5q59 0 94.5 21.5
t35.5 63.5v125q0 29 -12.5 46t-34.5 31q-11 8 -16.5 14t-5.5 13q0 15 18 15l35 -2q36 -2 57 -2h57q16 0 16 -12q0 -3 -5 -16t-5 -35v-167q0 -72 -71.5 -108.5t-180.5 -36.5q-95 0 -172.5 47z" />
    <glyph glyph-name="Gbreve" unicode="&#x11e;" horiz-adv-x="631" 
d="M180.5 31q-77.5 47 -122 130.5t-44.5 187.5t40.5 187t121 131.5t196.5 48.5q72 0 130.5 -17t62.5 -39l19 -100q2 -14 2 -18q0 -20 -12 -20q-8 0 -15 7t-17 23q-34 53 -74.5 82t-105.5 29q-109 0 -161.5 -86.5t-52.5 -226.5q0 -145 58 -230.5t165 -85.5q59 0 94.5 21.5
t35.5 63.5v125q0 29 -12.5 46t-34.5 31q-11 8 -16.5 14t-5.5 13q0 15 18 15l35 -2q36 -2 57 -2h57q16 0 16 -12q0 -3 -5 -16t-5 -35v-167q0 -72 -71.5 -108.5t-180.5 -36.5q-95 0 -172.5 47zM283.5 825.5q-26.5 35.5 -33.5 82.5v3q0 6 3.5 10t7.5 5q7 0 11 -8q31 -68 81 -68
q26 0 47 18t35 51q4 8 11 8q5 0 9 -5t3 -12q-11 -53 -36.5 -86.5t-68.5 -33.5t-69.5 35.5z" />
    <glyph glyph-name="Gcaron" unicode="&#x1e6;" horiz-adv-x="631" 
d="M180.5 31q-77.5 47 -122 130.5t-44.5 187.5t40.5 187t121 131.5t196.5 48.5q72 0 130.5 -17t62.5 -39l19 -100q2 -14 2 -18q0 -20 -12 -20q-8 0 -15 7t-17 23q-34 53 -74.5 82t-105.5 29q-109 0 -161.5 -86.5t-52.5 -226.5q0 -145 58 -230.5t165 -85.5q59 0 94.5 21.5
t35.5 63.5v125q0 29 -12.5 46t-34.5 31q-11 8 -16.5 14t-5.5 13q0 15 18 15l35 -2q36 -2 57 -2h57q16 0 16 -12q0 -3 -5 -16t-5 -35v-167q0 -72 -71.5 -108.5t-180.5 -36.5q-95 0 -172.5 47zM315 813l-56 94q-2 3 -2 8q0 11 15 11q10 0 17 -6l64 -58l65 55q10 9 19 9t13 -6
t-1 -12l-57 -95q-7 -11 -17 -17t-21 -6q-24 0 -39 23z" />
    <glyph glyph-name="Gcircumflex" unicode="&#x11c;" horiz-adv-x="631" 
d="M180.5 31q-77.5 47 -122 130.5t-44.5 187.5t40.5 187t121 131.5t196.5 48.5q72 0 130.5 -17t62.5 -39l19 -100q2 -14 2 -18q0 -20 -12 -20q-8 0 -15 7t-17 23q-34 53 -74.5 82t-105.5 29q-109 0 -161.5 -86.5t-52.5 -226.5q0 -145 58 -230.5t165 -85.5q59 0 94.5 21.5
t35.5 63.5v125q0 29 -12.5 46t-34.5 31q-11 8 -16.5 14t-5.5 13q0 15 18 15l35 -2q36 -2 57 -2h57q16 0 16 -12q0 -3 -5 -16t-5 -35v-167q0 -72 -71.5 -108.5t-180.5 -36.5q-95 0 -172.5 47zM257 801q0 5 2 8l56 94q14 23 39 23q11 0 21.5 -6t16.5 -17l57 -95q2 -2 2 -7
t-3.5 -8t-10.5 -3q-9 0 -19 9l-65 55l-64 -58q-7 -6 -17 -6q-15 0 -15 11z" />
    <glyph glyph-name="uni0122" unicode="&#x122;" horiz-adv-x="631" 
d="M180.5 31q-77.5 47 -122 130.5t-44.5 187.5t40.5 187t121 131.5t196.5 48.5q72 0 130.5 -17t62.5 -39l19 -100q2 -14 2 -18q0 -20 -12 -20q-8 0 -15 7t-17 23q-34 53 -74.5 82t-105.5 29q-109 0 -161.5 -86.5t-52.5 -226.5q0 -145 58 -230.5t165 -85.5q59 0 94.5 21.5
t35.5 63.5v125q0 29 -12.5 46t-34.5 31q-11 8 -16.5 14t-5.5 13q0 15 18 15l35 -2q36 -2 57 -2h57q16 0 16 -12q0 -3 -5 -16t-5 -35v-167q0 -72 -71.5 -108.5t-180.5 -36.5q-95 0 -172.5 47zM275 -158q-13 0 -13 7q0 3 7.5 6l12.5 5q33 7 33 29q0 8 -4.5 11.5t-12.5 5.5
q-13 2 -20 9.5t-7 20.5q0 17 13 27.5t33 10.5q23 0 37.5 -14t14.5 -37q0 -28 -21 -51.5t-65 -28.5z" />
    <glyph glyph-name="Gdotaccent" unicode="&#x120;" horiz-adv-x="631" 
d="M180.5 31q-77.5 47 -122 130.5t-44.5 187.5t40.5 187t121 131.5t196.5 48.5q72 0 130.5 -17t62.5 -39l19 -100q2 -14 2 -18q0 -20 -12 -20q-8 0 -15 7t-17 23q-34 53 -74.5 82t-105.5 29q-109 0 -161.5 -86.5t-52.5 -226.5q0 -145 58 -230.5t165 -85.5q59 0 94.5 21.5
t35.5 63.5v125q0 29 -12.5 46t-34.5 31q-11 8 -16.5 14t-5.5 13q0 15 18 15l35 -2q36 -2 57 -2h57q16 0 16 -12q0 -3 -5 -16t-5 -35v-167q0 -72 -71.5 -108.5t-180.5 -36.5q-95 0 -172.5 47zM304.5 810.5q-20.5 20.5 -20.5 47.5q0 28 20.5 48t49.5 20q28 0 48.5 -20
t20.5 -48q0 -27 -20.5 -47.5t-48.5 -20.5q-29 0 -49.5 20.5z" />
    <glyph glyph-name="uni1E20" unicode="&#x1e20;" horiz-adv-x="631" 
d="M180.5 31q-77.5 47 -122 130.5t-44.5 187.5t40.5 187t121 131.5t196.5 48.5q72 0 130.5 -17t62.5 -39l19 -100q2 -14 2 -18q0 -20 -12 -20q-8 0 -15 7t-17 23q-34 53 -74.5 82t-105.5 29q-109 0 -161.5 -86.5t-52.5 -226.5q0 -145 58 -230.5t165 -85.5q59 0 94.5 21.5
t35.5 63.5v125q0 29 -12.5 46t-34.5 31q-11 8 -16.5 14t-5.5 13q0 15 18 15l35 -2q36 -2 57 -2h57q16 0 16 -12q0 -3 -5 -16t-5 -35v-167q0 -72 -71.5 -108.5t-180.5 -36.5q-95 0 -172.5 47zM262 887h183v-50h-183v50z" />
    <glyph glyph-name="uni01E4" unicode="&#x1e4;" horiz-adv-x="631" 
d="M180.5 31q-77.5 47 -122 130.5t-44.5 187.5t40.5 187t121 131.5t196.5 48.5q72 0 130.5 -17t62.5 -39l19 -100q2 -14 2 -18q0 -20 -12 -20q-8 0 -15 7t-17 23q-34 53 -74.5 82t-105.5 29q-109 0 -161.5 -86.5t-52.5 -226.5q0 -145 58 -230.5t165 -85.5q59 0 94.5 21.5
t35.5 63.5v59h-75v46h75v20q0 29 -12.5 46t-34.5 31q-11 8 -16.5 14t-5.5 13q0 15 18 15l35 -2q36 -2 57 -2h57q16 0 16 -12q0 -3 -5 -16t-5 -35v-72h57v-46h-57v-49q0 -72 -71.5 -108.5t-180.5 -36.5q-95 0 -172.5 47z" />
    <glyph glyph-name="H" unicode="H" horiz-adv-x="624" 
d="M60 -2q-28 -2 -35 -2q-19 0 -19 15q0 7 5.5 13t17.5 14q22 15 34 30.5t12 43.5v473q0 29 -12.5 46t-34.5 31q-11 8 -16.5 14t-5.5 13q0 15 19 15l33 -2q36 -2 58 -2h34q20 0 56 2q28 2 35 2q19 0 19 -15q0 -7 -5.5 -13t-17.5 -14q-22 -15 -34 -30.5t-12 -43.5v-216h242
v213q0 29 -12.5 46t-34.5 31q-11 8 -16.5 14t-5.5 13q0 15 19 15l33 -2q36 -2 58 -2h34q20 0 56 2q28 2 35 2q19 0 19 -15q0 -7 -5.5 -13t-17.5 -14q-22 -15 -34 -30.5t-12 -43.5v-473q0 -29 12.5 -46t34.5 -31q11 -8 16.5 -14t5.5 -13q0 -15 -19 -15l-33 2q-36 2 -58 2h-34
q-20 0 -56 -2q-28 -2 -35 -2q-19 0 -19 15q0 7 5.5 13t17.5 14q22 15 34 30.5t12 43.5v214h-242v-211q0 -29 12.5 -46t34.5 -31q11 -8 16.5 -14t5.5 -13q0 -15 -19 -15l-33 2q-36 2 -58 2h-34q-20 0 -56 -2z" />
    <glyph glyph-name="Hbar" unicode="&#x126;" horiz-adv-x="624" 
d="M60 -2q-28 -2 -35 -2q-19 0 -19 15q0 7 5.5 13t17.5 14q22 15 34 30.5t12 43.5v439h-51v38h51q-1 27 -13.5 43.5t-33.5 30.5q-12 9 -17 14t-5 12q0 15 19 15l33 -2q36 -2 58 -2h34q20 0 56 2q28 2 35 2q19 0 19 -15q0 -7 -5.5 -13t-17.5 -14q-21 -15 -33 -30.5t-13 -42.5
h242q-1 27 -13.5 43.5t-33.5 30.5q-12 9 -17 14t-5 12q0 15 19 15l33 -2q36 -2 58 -2h34q20 0 56 2q28 2 35 2q19 0 19 -15q0 -7 -5.5 -13t-17.5 -14q-21 -15 -33 -30.5t-13 -42.5h50v-38h-50v-436q0 -29 12.5 -46t34.5 -31q11 -8 16.5 -14t5.5 -13q0 -15 -19 -15l-33 2
q-36 2 -58 2h-34q-20 0 -56 -2q-28 -2 -35 -2q-19 0 -19 15q0 7 5.5 13t17.5 14q22 15 34 30.5t12 43.5v214h-242v-211q0 -29 12.5 -46t34.5 -31q11 -8 16.5 -14t5.5 -13q0 -15 -19 -15l-33 2q-36 2 -58 2h-34q-20 0 -56 -2zM433 372v179h-242v-179h242z" />
    <glyph glyph-name="Hcircumflex" unicode="&#x124;" horiz-adv-x="624" 
d="M60 -2q-28 -2 -35 -2q-19 0 -19 15q0 7 5.5 13t17.5 14q22 15 34 30.5t12 43.5v473q0 29 -12.5 46t-34.5 31q-11 8 -16.5 14t-5.5 13q0 15 19 15l33 -2q36 -2 58 -2h34q20 0 56 2q28 2 35 2q19 0 19 -15q0 -7 -5.5 -13t-17.5 -14q-22 -15 -34 -30.5t-12 -43.5v-216h242
v213q0 29 -12.5 46t-34.5 31q-11 8 -16.5 14t-5.5 13q0 15 19 15l33 -2q36 -2 58 -2h34q20 0 56 2q28 2 35 2q19 0 19 -15q0 -7 -5.5 -13t-17.5 -14q-22 -15 -34 -30.5t-12 -43.5v-473q0 -29 12.5 -46t34.5 -31q11 -8 16.5 -14t5.5 -13q0 -15 -19 -15l-33 2q-36 2 -58 2h-34
q-20 0 -56 -2q-28 -2 -35 -2q-19 0 -19 15q0 7 5.5 13t17.5 14q22 15 34 30.5t12 43.5v214h-242v-211q0 -29 12.5 -46t34.5 -31q11 -8 16.5 -14t5.5 -13q0 -15 -19 -15l-33 2q-36 2 -58 2h-34q-20 0 -56 -2zM215 801q0 5 2 8l56 94q14 23 39 23q11 0 21.5 -6t16.5 -17
l57 -95q2 -2 2 -7t-3.5 -8t-10.5 -3q-9 0 -19 9l-65 55l-64 -58q-7 -6 -17 -6q-15 0 -15 11z" />
    <glyph glyph-name="I" unicode="I" horiz-adv-x="266" 
d="M60 -2q-28 -2 -35 -2q-19 0 -19 15q0 7 5.5 13t17.5 14q22 15 34 30.5t12 43.5v473q0 29 -12.5 46t-34.5 31q-11 8 -16.5 14t-5.5 13q0 15 19 15l33 -2q36 -2 58 -2h34q20 0 56 2q28 2 35 2q19 0 19 -15q0 -7 -5.5 -13t-17.5 -14q-22 -15 -34 -30.5t-12 -43.5v-473
q0 -29 12.5 -46t34.5 -31q11 -8 16.5 -14t5.5 -13q0 -15 -19 -15l-33 2q-36 2 -58 2h-34q-20 0 -56 -2z" />
    <glyph glyph-name="IJ" unicode="&#x132;" horiz-adv-x="715" 
d="M60 -2q-28 -2 -35 -2q-19 0 -19 15q0 7 5.5 13t17.5 14q22 15 34 30.5t12 43.5v473q0 29 -12.5 46t-34.5 31q-11 8 -16.5 14t-5.5 13q0 15 19 15l33 -2q36 -2 58 -2h34q20 0 56 2q28 2 35 2q19 0 19 -15q0 -7 -5.5 -13t-17.5 -14q-22 -15 -34 -30.5t-12 -43.5v-473
q0 -29 12.5 -46t34.5 -31q11 -8 16.5 -14t5.5 -13q0 -15 -19 -15l-33 2q-36 2 -58 2h-34q-20 0 -56 -2zM336 1q-48 15 -48 37q0 23 -9 61q-1 6 -5 28t-4 41q0 12 9 12q5 0 14.5 -12.5t19.5 -28.5q31 -49 59.5 -78.5t64.5 -29.5q42 0 64.5 33.5t22.5 107.5v416q0 28 -12 43.5
t-34 30.5q-12 8 -17.5 14t-5.5 13q0 15 19 15q7 0 35 -2q36 -2 56 -2h34q21 0 57 2l35 2q18 0 18 -15q0 -7 -5.5 -13t-16.5 -14q-22 -14 -34.5 -31t-12.5 -46v-393q0 -108 -55 -157t-151 -49q-50 0 -98 15z" />
    <glyph glyph-name="Iacute" unicode="&#xcd;" horiz-adv-x="266" 
d="M60 -2q-28 -2 -35 -2q-19 0 -19 15q0 7 5.5 13t17.5 14q22 15 34 30.5t12 43.5v473q0 29 -12.5 46t-34.5 31q-11 8 -16.5 14t-5.5 13q0 15 19 15l33 -2q36 -2 58 -2h34q20 0 56 2q28 2 35 2q19 0 19 -15q0 -7 -5.5 -13t-17.5 -14q-22 -15 -34 -30.5t-12 -43.5v-473
q0 -29 12.5 -46t34.5 -31q11 -8 16.5 -14t5.5 -13q0 -15 -19 -15l-33 2q-36 2 -58 2h-34q-20 0 -56 -2zM90 792.5q-5 4.5 -5 10.5l-5 79q-2 25 15 34.5t46 9.5q46 0 46 -25q0 -11 -13 -31l-48 -69q-7 -13 -24 -13q-7 0 -12 4.5z" />
    <glyph glyph-name="Icircumflex" unicode="&#xce;" horiz-adv-x="266" 
d="M60 -2q-28 -2 -35 -2q-19 0 -19 15q0 7 5.5 13t17.5 14q22 15 34 30.5t12 43.5v473q0 29 -12.5 46t-34.5 31q-11 8 -16.5 14t-5.5 13q0 15 19 15l33 -2q36 -2 58 -2h34q20 0 56 2q28 2 35 2q19 0 19 -15q0 -7 -5.5 -13t-17.5 -14q-22 -15 -34 -30.5t-12 -43.5v-473
q0 -29 12.5 -46t34.5 -31q11 -8 16.5 -14t5.5 -13q0 -15 -19 -15l-33 2q-36 2 -58 2h-34q-20 0 -56 -2zM36 801q0 5 2 8l56 94q14 23 39 23q11 0 21.5 -6t16.5 -17l57 -95q2 -2 2 -7t-3.5 -8t-10.5 -3q-9 0 -19 9l-65 55l-64 -58q-7 -6 -17 -6q-15 0 -15 11z" />
    <glyph glyph-name="Idieresis" unicode="&#xcf;" horiz-adv-x="266" 
d="M60 -2q-28 -2 -35 -2q-19 0 -19 15q0 7 5.5 13t17.5 14q22 15 34 30.5t12 43.5v473q0 29 -12.5 46t-34.5 31q-11 8 -16.5 14t-5.5 13q0 15 19 15l33 -2q36 -2 58 -2h34q20 0 56 2q28 2 35 2q19 0 19 -15q0 -7 -5.5 -13t-17.5 -14q-22 -15 -34 -30.5t-12 -43.5v-473
q0 -29 12.5 -46t34.5 -31q11 -8 16.5 -14t5.5 -13q0 -15 -19 -15l-33 2q-36 2 -58 2h-34q-20 0 -56 -2zM16 816.5q-18 17.5 -18 41.5t18 42t43 18t43 -18t18 -42t-18 -41.5t-43 -17.5t-43 17.5zM162.5 900q17.5 18 42.5 18t43 -18t18 -42t-18 -41.5t-43 -17.5t-42.5 17.5
t-17.5 41.5t17.5 42z" />
    <glyph glyph-name="Idotaccent" unicode="&#x130;" horiz-adv-x="266" 
d="M60 -2q-28 -2 -35 -2q-19 0 -19 15q0 7 5.5 13t17.5 14q22 15 34 30.5t12 43.5v473q0 29 -12.5 46t-34.5 31q-11 8 -16.5 14t-5.5 13q0 15 19 15l33 -2q36 -2 58 -2h34q20 0 56 2q28 2 35 2q19 0 19 -15q0 -7 -5.5 -13t-17.5 -14q-22 -15 -34 -30.5t-12 -43.5v-473
q0 -29 12.5 -46t34.5 -31q11 -8 16.5 -14t5.5 -13q0 -15 -19 -15l-33 2q-36 2 -58 2h-34q-20 0 -56 -2zM83.5 810.5q-20.5 20.5 -20.5 47.5q0 28 20.5 48t49.5 20q28 0 48.5 -20t20.5 -48q0 -27 -20.5 -47.5t-48.5 -20.5q-29 0 -49.5 20.5z" />
    <glyph glyph-name="Igrave" unicode="&#xcc;" horiz-adv-x="266" 
d="M60 -2q-28 -2 -35 -2q-19 0 -19 15q0 7 5.5 13t17.5 14q22 15 34 30.5t12 43.5v473q0 29 -12.5 46t-34.5 31q-11 8 -16.5 14t-5.5 13q0 15 19 15l33 -2q36 -2 58 -2h34q20 0 56 2q28 2 35 2q19 0 19 -15q0 -7 -5.5 -13t-17.5 -14q-22 -15 -34 -30.5t-12 -43.5v-473
q0 -29 12.5 -46t34.5 -31q11 -8 16.5 -14t5.5 -13q0 -15 -19 -15l-33 2q-36 2 -58 2h-34q-20 0 -56 -2zM140 801l-47 69q-14 19 -14 31q0 25 46 25q29 0 46 -9.5t15 -34.5l-5 -79q0 -6 -4.5 -10.5t-12.5 -4.5q-17 0 -24 13z" />
    <glyph glyph-name="Imacron" unicode="&#x12a;" horiz-adv-x="266" 
d="M60 -2q-28 -2 -35 -2q-19 0 -19 15q0 7 5.5 13t17.5 14q22 15 34 30.5t12 43.5v473q0 29 -12.5 46t-34.5 31q-11 8 -16.5 14t-5.5 13q0 15 19 15l33 -2q36 -2 58 -2h34q20 0 56 2q28 2 35 2q19 0 19 -15q0 -7 -5.5 -13t-17.5 -14q-22 -15 -34 -30.5t-12 -43.5v-473
q0 -29 12.5 -46t34.5 -31q11 -8 16.5 -14t5.5 -13q0 -15 -19 -15l-33 2q-36 2 -58 2h-34q-20 0 -56 -2zM41 887h183v-50h-183v50z" />
    <glyph glyph-name="Iogonek" unicode="&#x12e;" horiz-adv-x="266" 
d="M60 -2q-28 -2 -35 -2q-19 0 -19 15q0 7 5.5 13t17.5 14q22 15 34 30.5t12 43.5v473q0 29 -12.5 46t-34.5 31q-11 8 -16.5 14t-5.5 13q0 15 19 15l33 -2q36 -2 58 -2h34q20 0 56 2q28 2 35 2q19 0 19 -15q0 -7 -5.5 -13t-17.5 -14q-22 -15 -34 -30.5t-12 -43.5v-473
q0 -29 12.5 -46t34.5 -31q11 -8 16.5 -14t5.5 -13q0 -15 -19 -15h-5q-23 -17 -42 -41.5t-19 -44.5q0 -11 8.5 -18t24.5 -7q6 0 10 -4t4 -10q0 -13 -15 -24.5t-41 -11.5q-27 0 -41 14.5t-14 35.5q0 37 28 66t67 47q-36 2 -56 2h-34q-20 0 -56 -2z" />
    <glyph glyph-name="Itilde" unicode="&#x128;" horiz-adv-x="266" 
d="M60 -2q-28 -2 -35 -2q-19 0 -19 15q0 7 5.5 13t17.5 14q22 15 34 30.5t12 43.5v473q0 29 -12.5 46t-34.5 31q-11 8 -16.5 14t-5.5 13q0 15 19 15l33 -2q36 -2 58 -2h34q20 0 56 2q28 2 35 2q19 0 19 -15q0 -7 -5.5 -13t-17.5 -14q-22 -15 -34 -30.5t-12 -43.5v-473
q0 -29 12.5 -46t34.5 -31q11 -8 16.5 -14t5.5 -13q0 -15 -19 -15l-33 2q-36 2 -58 2h-34q-20 0 -56 -2zM153.5 816q-13.5 7 -32.5 20q-13 10 -22.5 14.5t-18.5 4.5q-15 0 -25 -11.5t-10 -29.5q0 -5 -4 -8t-8 -3q-5 0 -9 4t-4 10q0 45 18 67.5t46 22.5q14 0 26 -5t30 -16
q29 -19 46 -19q15 0 23.5 12.5t8.5 27.5q0 7 3.5 11.5t8.5 4.5q6 0 10.5 -4.5t4.5 -14.5q0 -46 -16 -70.5t-45 -24.5q-17 0 -30.5 7z" />
    <glyph glyph-name="J" unicode="J" horiz-adv-x="449" 
d="M70 1q-48 15 -48 37q0 23 -9 61q-1 6 -5 28t-4 41q0 12 9 12q5 0 14.5 -12.5t19.5 -28.5q31 -49 59.5 -78.5t64.5 -29.5q42 0 64.5 33.5t22.5 107.5v416q0 28 -12 43.5t-34 30.5q-12 8 -17.5 14t-5.5 13q0 15 19 15q7 0 35 -2q36 -2 56 -2h34q21 0 57 2l35 2q18 0 18 -15
q0 -7 -5.5 -13t-16.5 -14q-22 -14 -34.5 -31t-12.5 -46v-393q0 -108 -55 -157t-151 -49q-50 0 -98 15z" />
    <glyph glyph-name="uni004A0301" horiz-adv-x="449" 
d="M70 1q-48 15 -48 37q0 23 -9 61q-1 6 -5 28t-4 41q0 12 9 12q5 0 14.5 -12.5t19.5 -28.5q31 -49 59.5 -78.5t64.5 -29.5q42 0 64.5 33.5t22.5 107.5v416q0 28 -12 43.5t-34 30.5q-12 8 -17.5 14t-5.5 13q0 15 19 15q7 0 35 -2q36 -2 56 -2h34q21 0 57 2l35 2q18 0 18 -15
q0 -7 -5.5 -13t-16.5 -14q-22 -14 -34.5 -31t-12.5 -46v-393q0 -108 -55 -157t-151 -49q-50 0 -98 15zM274 792.5q-5 4.5 -5 10.5l-5 79q-2 25 15 34.5t46 9.5q46 0 46 -25q0 -11 -13 -31l-48 -69q-7 -13 -24 -13q-7 0 -12 4.5z" />
    <glyph glyph-name="Jcircumflex" unicode="&#x134;" horiz-adv-x="449" 
d="M70 1q-48 15 -48 37q0 23 -9 61q-1 6 -5 28t-4 41q0 12 9 12q5 0 14.5 -12.5t19.5 -28.5q31 -49 59.5 -78.5t64.5 -29.5q42 0 64.5 33.5t22.5 107.5v416q0 28 -12 43.5t-34 30.5q-12 8 -17.5 14t-5.5 13q0 15 19 15q7 0 35 -2q36 -2 56 -2h34q21 0 57 2l35 2q18 0 18 -15
q0 -7 -5.5 -13t-16.5 -14q-22 -14 -34.5 -31t-12.5 -46v-393q0 -108 -55 -157t-151 -49q-50 0 -98 15zM220 801q0 5 2 8l56 94q14 23 39 23q11 0 21.5 -6t16.5 -17l57 -95q2 -2 2 -7t-3.5 -8t-10.5 -3q-9 0 -19 9l-65 55l-64 -58q-7 -6 -17 -6q-15 0 -15 11z" />
    <glyph glyph-name="K" unicode="K" horiz-adv-x="656" 
d="M60 -2q-28 -2 -35 -2q-19 0 -19 15q0 7 5.5 13t17.5 14q22 15 34 30.5t12 43.5v473q0 29 -12.5 46t-34.5 31q-11 8 -16.5 14t-5.5 13q0 15 19 15l33 -2q36 -2 58 -2h34q20 0 56 2q28 2 35 2q19 0 19 -15q0 -7 -5.5 -13t-17.5 -14q-22 -15 -34 -30.5t-12 -43.5v-260
l200 256q11 14 11 27q0 14 -10 24.5t-29 24.5q-14 10 -20.5 16t-6.5 13q0 15 15 15l29 -2q22 -2 35 -2q26 0 74 2l68 2q34 0 34 -14q0 -9 -11 -16t-36 -20q-29 -14 -49.5 -27t-34.5 -30l-121 -155l194 -327q13 -22 31 -36.5t45 -32.5q20 -12 28.5 -19.5t8.5 -15.5
q0 -15 -30 -15l-57 2q-58 2 -94 2h-18q-17 0 -47 -2l-28 -2q-16 0 -16 15q0 7 5.5 12.5t17.5 14.5q17 12 26 22t9 24q0 13 -8 26l-140 242l-75 -96v-141q0 -29 12.5 -46t34.5 -31q11 -8 16.5 -14t5.5 -13q0 -15 -19 -15l-33 2q-36 2 -58 2h-34q-20 0 -56 -2z" />
    <glyph glyph-name="uni01E8" unicode="&#x1e8;" horiz-adv-x="656" 
d="M60 -2q-28 -2 -35 -2q-19 0 -19 15q0 7 5.5 13t17.5 14q22 15 34 30.5t12 43.5v473q0 29 -12.5 46t-34.5 31q-11 8 -16.5 14t-5.5 13q0 15 19 15l33 -2q36 -2 58 -2h34q20 0 56 2q28 2 35 2q19 0 19 -15q0 -7 -5.5 -13t-17.5 -14q-22 -15 -34 -30.5t-12 -43.5v-260
l200 256q11 14 11 27q0 14 -10 24.5t-29 24.5q-14 10 -20.5 16t-6.5 13q0 15 15 15l29 -2q22 -2 35 -2q26 0 74 2l68 2q34 0 34 -14q0 -9 -11 -16t-36 -20q-29 -14 -49.5 -27t-34.5 -30l-121 -155l194 -327q13 -22 31 -36.5t45 -32.5q20 -12 28.5 -19.5t8.5 -15.5
q0 -15 -30 -15l-57 2q-58 2 -94 2h-18q-17 0 -47 -2l-28 -2q-16 0 -16 15q0 7 5.5 12.5t17.5 14.5q17 12 26 22t9 24q0 13 -8 26l-140 242l-75 -96v-141q0 -29 12.5 -46t34.5 -31q11 -8 16.5 -14t5.5 -13q0 -15 -19 -15l-33 2q-36 2 -58 2h-34q-20 0 -56 -2zM290 813l-56 94
q-2 3 -2 8q0 11 15 11q10 0 17 -6l64 -58l65 55q10 9 19 9t13 -6t-1 -12l-57 -95q-7 -11 -17 -17t-21 -6q-24 0 -39 23z" />
    <glyph glyph-name="uni0136" unicode="&#x136;" horiz-adv-x="656" 
d="M60 -2q-28 -2 -35 -2q-19 0 -19 15q0 7 5.5 13t17.5 14q22 15 34 30.5t12 43.5v473q0 29 -12.5 46t-34.5 31q-11 8 -16.5 14t-5.5 13q0 15 19 15l33 -2q36 -2 58 -2h34q20 0 56 2q28 2 35 2q19 0 19 -15q0 -7 -5.5 -13t-17.5 -14q-22 -15 -34 -30.5t-12 -43.5v-260
l200 256q11 14 11 27q0 14 -10 24.5t-29 24.5q-14 10 -20.5 16t-6.5 13q0 15 15 15l29 -2q22 -2 35 -2q26 0 74 2l68 2q34 0 34 -14q0 -9 -11 -16t-36 -20q-29 -14 -49.5 -27t-34.5 -30l-121 -155l194 -327q13 -22 31 -36.5t45 -32.5q20 -12 28.5 -19.5t8.5 -15.5
q0 -15 -30 -15l-57 2q-58 2 -94 2h-18q-17 0 -47 -2l-28 -2q-16 0 -16 15q0 7 5.5 12.5t17.5 14.5q17 12 26 22t9 24q0 13 -8 26l-140 242l-75 -96v-141q0 -29 12.5 -46t34.5 -31q11 -8 16.5 -14t5.5 -13q0 -15 -19 -15l-33 2q-36 2 -58 2h-34q-20 0 -56 -2zM288 -158
q-13 0 -13 7q0 3 7.5 6l12.5 5q33 7 33 29q0 8 -4.5 11.5t-12.5 5.5q-13 2 -20 9.5t-7 20.5q0 17 13 27.5t33 10.5q23 0 37.5 -14t14.5 -37q0 -28 -21 -51.5t-65 -28.5z" />
    <glyph glyph-name="L" unicode="L" horiz-adv-x="544" 
d="M58 -2l-33 -2q-19 0 -19 15q0 7 5.5 13t16.5 14q22 14 34.5 31t12.5 46v473q0 28 -12 43.5t-34 30.5q-12 8 -17.5 14t-5.5 13q0 15 19 15q7 0 35 -2q36 -2 56 -2h34q22 0 58 2l33 2q19 0 19 -15q0 -7 -5.5 -13t-16.5 -14q-22 -14 -34.5 -31t-12.5 -46v-538h200
q34 0 57.5 22t51.5 62q13 20 22.5 30.5t17.5 10.5q4 0 6.5 -3.5t2.5 -8.5q0 -17 -11 -59q-1 -4 -7 -30t-6 -47q0 -14 -5.5 -19t-17.5 -5h-386q-22 0 -58 -2z" />
    <glyph glyph-name="Lacute" unicode="&#x139;" horiz-adv-x="544" 
d="M58 -2l-33 -2q-19 0 -19 15q0 7 5.5 13t16.5 14q22 14 34.5 31t12.5 46v473q0 28 -12 43.5t-34 30.5q-12 8 -17.5 14t-5.5 13q0 15 19 15q7 0 35 -2q36 -2 56 -2h34q22 0 58 2l33 2q19 0 19 -15q0 -7 -5.5 -13t-16.5 -14q-22 -14 -34.5 -31t-12.5 -46v-538h200
q34 0 57.5 22t51.5 62q13 20 22.5 30.5t17.5 10.5q4 0 6.5 -3.5t2.5 -8.5q0 -17 -11 -59q-1 -4 -7 -30t-6 -47q0 -14 -5.5 -19t-17.5 -5h-386q-22 0 -58 -2zM229 792.5q-5 4.5 -5 10.5l-5 79q-2 25 15 34.5t46 9.5q46 0 46 -25q0 -11 -13 -31l-48 -69q-7 -13 -24 -13
q-7 0 -12 4.5z" />
    <glyph glyph-name="Lcaron" unicode="&#x13d;" horiz-adv-x="544" 
d="M58 -2l-33 -2q-19 0 -19 15q0 7 5.5 13t16.5 14q22 14 34.5 31t12.5 46v473q0 28 -12 43.5t-34 30.5q-12 8 -17.5 14t-5.5 13q0 15 19 15q7 0 35 -2q36 -2 56 -2h34q22 0 58 2l33 2q19 0 19 -15q0 -7 -5.5 -13t-16.5 -14q-22 -14 -34.5 -31t-12.5 -46v-538h200
q34 0 57.5 22t51.5 62q13 20 22.5 30.5t17.5 10.5q4 0 6.5 -3.5t2.5 -8.5q0 -17 -11 -59q-1 -4 -7 -30t-6 -47q0 -14 -5.5 -19t-17.5 -5h-386q-22 0 -58 -2zM548 566.5q-5 4.5 -5 10.5l-5 79q-4 44 61 44q46 0 46 -25q0 -11 -13 -31l-48 -69q-7 -13 -24 -13q-7 0 -12 4.5z
" />
    <glyph glyph-name="uni013B" unicode="&#x13b;" horiz-adv-x="544" 
d="M58 -2l-33 -2q-19 0 -19 15q0 7 5.5 13t16.5 14q22 14 34.5 31t12.5 46v473q0 28 -12 43.5t-34 30.5q-12 8 -17.5 14t-5.5 13q0 15 19 15q7 0 35 -2q36 -2 56 -2h34q22 0 58 2l33 2q19 0 19 -15q0 -7 -5.5 -13t-16.5 -14q-22 -14 -34.5 -31t-12.5 -46v-538h200
q34 0 57.5 22t51.5 62q13 20 22.5 30.5t17.5 10.5q4 0 6.5 -3.5t2.5 -8.5q0 -17 -11 -59q-1 -4 -7 -30t-6 -47q0 -14 -5.5 -19t-17.5 -5h-386q-22 0 -58 -2zM232 -158q-13 0 -13 7q0 3 7.5 6l12.5 5q33 7 33 29q0 8 -4.5 11.5t-12.5 5.5q-13 2 -20 9.5t-7 20.5q0 17 13 27.5
t33 10.5q23 0 37.5 -14t14.5 -37q0 -28 -21 -51.5t-65 -28.5z" />
    <glyph glyph-name="Lslash" unicode="&#x141;" horiz-adv-x="544" 
d="M58 -2l-33 -2q-19 0 -19 15q0 7 5.5 13t16.5 14q22 14 34.5 31t12.5 46v202l-54 -43l-22 30l76 61v223q0 28 -12 43.5t-34 30.5q-12 8 -17.5 14t-5.5 13q0 15 19 15q7 0 35 -2q36 -2 56 -2h34q22 0 58 2l33 2q19 0 19 -15q0 -7 -5.5 -13t-16.5 -14q-22 -14 -34.5 -31
t-12.5 -46v-128l111 89l22 -30l-133 -106v-363h200q34 0 57.5 22t51.5 62q13 20 22.5 30.5t17.5 10.5q4 0 6.5 -3.5t2.5 -8.5q0 -17 -11 -59q-1 -4 -7 -30t-6 -47q0 -14 -5.5 -19t-17.5 -5h-386q-22 0 -58 -2z" />
    <glyph glyph-name="M" unicode="M" horiz-adv-x="826" 
d="M352 13q-14 13 -24 46l-167 513l-34 -457q-3 -29 8 -45t31 -33q10 -7 15 -12.5t5 -12.5q0 -16 -20 -16l-29 2q-28 2 -41 2q-12 0 -40 -2l-33 -2q-17 0 -17 13q0 8 5.5 13.5t19.5 15.5q22 15 34.5 30.5t15.5 43.5l34 473q3 29 -9 45t-34 33q-11 8 -16.5 13t-5.5 12
q0 16 20 16l33 -1q69 -3 82 -3q28 0 42.5 -8t21.5 -31l168 -524l153 524q6 19 21 29t45 10q18 0 87 3l33 1q17 0 20 -15q0 -7 -5 -12t-17 -14q-22 -17 -34 -33t-10 -45l34 -473q2 -28 15.5 -43.5t35.5 -30.5q12 -8 18 -14t7 -13v-2q0 -13 -18 -13q-7 0 -35 2q-38 2 -66 2
q-48 0 -80 -3l-32 -1q-19 0 -19 16q0 7 5 12.5t15 12.5q20 17 30.5 33t8.5 45l-34 458l-171 -573h-35q-23 0 -37 13z" />
    <glyph glyph-name="N" unicode="N" horiz-adv-x="608" 
d="M443.5 12.5q-19.5 12.5 -37.5 40.5l-285 491v-429q0 -29 12.5 -46t34.5 -31q11 -8 16.5 -14t5.5 -13q0 -15 -19 -15l-33 2q-24 2 -40 2q-15 0 -39 -2l-34 -2q-19 0 -19 15q0 7 5.5 13t17.5 14q22 15 34 30.5t12 43.5v473q0 29 -12.5 46t-34.5 31q-11 8 -16.5 14t-5.5 13
q0 15 19 15l33 -2q36 -2 58 -2h16q16 0 25.5 -5.5t17.5 -17.5l312 -535v443q0 29 -12.5 46t-34.5 31q-11 8 -16.5 14t-5.5 13q0 15 19 15l33 -2q24 -2 40 -2q15 0 39 2l34 2q19 0 19 -15q0 -7 -5.5 -13t-17.5 -14q-22 -15 -34 -30.5t-12 -43.5v-588h-30q-40 0 -59.5 12.5z
" />
    <glyph glyph-name="Nacute" unicode="&#x143;" horiz-adv-x="608" 
d="M443.5 12.5q-19.5 12.5 -37.5 40.5l-285 491v-429q0 -29 12.5 -46t34.5 -31q11 -8 16.5 -14t5.5 -13q0 -15 -19 -15l-33 2q-24 2 -40 2q-15 0 -39 -2l-34 -2q-19 0 -19 15q0 7 5.5 13t17.5 14q22 15 34 30.5t12 43.5v473q0 29 -12.5 46t-34.5 31q-11 8 -16.5 14t-5.5 13
q0 15 19 15l33 -2q36 -2 58 -2h16q16 0 25.5 -5.5t17.5 -17.5l312 -535v443q0 29 -12.5 46t-34.5 31q-11 8 -16.5 14t-5.5 13q0 15 19 15l33 -2q24 -2 40 -2q15 0 39 2l34 2q19 0 19 -15q0 -7 -5.5 -13t-17.5 -14q-22 -15 -34 -30.5t-12 -43.5v-588h-30q-40 0 -59.5 12.5z
M261 792.5q-5 4.5 -5 10.5l-5 79q-2 25 15 34.5t46 9.5q46 0 46 -25q0 -11 -13 -31l-48 -69q-7 -13 -24 -13q-7 0 -12 4.5z" />
    <glyph glyph-name="Ncaron" unicode="&#x147;" horiz-adv-x="608" 
d="M443.5 12.5q-19.5 12.5 -37.5 40.5l-285 491v-429q0 -29 12.5 -46t34.5 -31q11 -8 16.5 -14t5.5 -13q0 -15 -19 -15l-33 2q-24 2 -40 2q-15 0 -39 -2l-34 -2q-19 0 -19 15q0 7 5.5 13t17.5 14q22 15 34 30.5t12 43.5v473q0 29 -12.5 46t-34.5 31q-11 8 -16.5 14t-5.5 13
q0 15 19 15l33 -2q36 -2 58 -2h16q16 0 25.5 -5.5t17.5 -17.5l312 -535v443q0 29 -12.5 46t-34.5 31q-11 8 -16.5 14t-5.5 13q0 15 19 15l33 -2q24 -2 40 -2q15 0 39 2l34 2q19 0 19 -15q0 -7 -5.5 -13t-17.5 -14q-22 -15 -34 -30.5t-12 -43.5v-588h-30q-40 0 -59.5 12.5z
M265 813l-56 94q-2 3 -2 8q0 11 15 11q10 0 17 -6l64 -58l65 55q10 9 19 9t13 -6t-1 -12l-57 -95q-7 -11 -17 -17t-21 -6q-24 0 -39 23z" />
    <glyph glyph-name="uni0145" unicode="&#x145;" horiz-adv-x="608" 
d="M443.5 12.5q-19.5 12.5 -37.5 40.5l-285 491v-429q0 -29 12.5 -46t34.5 -31q11 -8 16.5 -14t5.5 -13q0 -15 -19 -15l-33 2q-24 2 -40 2q-15 0 -39 -2l-34 -2q-19 0 -19 15q0 7 5.5 13t17.5 14q22 15 34 30.5t12 43.5v473q0 29 -12.5 46t-34.5 31q-11 8 -16.5 14t-5.5 13
q0 15 19 15l33 -2q36 -2 58 -2h16q16 0 25.5 -5.5t17.5 -17.5l312 -535v443q0 29 -12.5 46t-34.5 31q-11 8 -16.5 14t-5.5 13q0 15 19 15l33 -2q24 -2 40 -2q15 0 39 2l34 2q19 0 19 -15q0 -7 -5.5 -13t-17.5 -14q-22 -15 -34 -30.5t-12 -43.5v-588h-30q-40 0 -59.5 12.5z
M263 -158q-13 0 -13 7q0 3 7.5 6l12.5 5q33 7 33 29q0 8 -4.5 11.5t-12.5 5.5q-13 2 -20 9.5t-7 20.5q0 17 13 27.5t33 10.5q23 0 37.5 -14t14.5 -37q0 -28 -21 -51.5t-65 -28.5z" />
    <glyph glyph-name="Ntilde" unicode="&#xd1;" horiz-adv-x="608" 
d="M443.5 12.5q-19.5 12.5 -37.5 40.5l-285 491v-429q0 -29 12.5 -46t34.5 -31q11 -8 16.5 -14t5.5 -13q0 -15 -19 -15l-33 2q-24 2 -40 2q-15 0 -39 -2l-34 -2q-19 0 -19 15q0 7 5.5 13t17.5 14q22 15 34 30.5t12 43.5v473q0 29 -12.5 46t-34.5 31q-11 8 -16.5 14t-5.5 13
q0 15 19 15l33 -2q36 -2 58 -2h16q16 0 25.5 -5.5t17.5 -17.5l312 -535v443q0 29 -12.5 46t-34.5 31q-11 8 -16.5 14t-5.5 13q0 15 19 15l33 -2q24 -2 40 -2q15 0 39 2l34 2q19 0 19 -15q0 -7 -5.5 -13t-17.5 -14q-22 -15 -34 -30.5t-12 -43.5v-588h-30q-40 0 -59.5 12.5z
M324.5 816q-13.5 7 -32.5 20q-13 10 -22.5 14.5t-18.5 4.5q-15 0 -25 -11.5t-10 -29.5q0 -5 -4 -8t-8 -3q-5 0 -9 4t-4 10q0 45 18 67.5t46 22.5q14 0 26 -5t30 -16q29 -19 46 -19q15 0 23.5 12.5t8.5 27.5q0 7 3.5 11.5t8.5 4.5q6 0 10.5 -4.5t4.5 -14.5q0 -46 -16 -70.5
t-45 -24.5q-17 0 -30.5 7z" />
    <glyph glyph-name="Eng" unicode="&#x14a;" horiz-adv-x="608" 
d="M306 -132.5q-38 24.5 -38 62.5q0 26 14.5 40t34.5 14q21 0 33.5 -13.5t28.5 -39.5q12 -21 21.5 -32t22.5 -11q15 0 22 10t7 32q0 48 -44 121l-287 491v-427q0 -29 12.5 -46t34.5 -31q11 -8 16.5 -14t5.5 -13q0 -15 -19 -15l-33 2q-24 2 -40 2q-15 0 -39 -2l-34 -2
q-19 0 -19 15q0 7 5.5 13t17.5 14q22 15 34 30.5t12 43.5v473q0 29 -12.5 46t-34.5 31q-11 8 -16.5 14t-5.5 13q0 15 19 15l33 -2q36 -2 58 -2h16q16 0 25.5 -5.5t17.5 -17.5l312 -535v443q0 29 -12.5 46t-34.5 31q-11 8 -16.5 14t-5.5 13q0 15 19 15l33 -2q24 -2 40 -2
q15 0 39 2l34 2q19 0 19 -15q0 -7 -5.5 -13t-17.5 -14q-22 -15 -34 -30.5t-12 -43.5v-566q0 -99 -36 -139t-100 -40q-53 0 -91 24.5z" />
    <glyph glyph-name="O" unicode="O" horiz-adv-x="638" 
d="M157.5 32.5q-69.5 48.5 -106.5 132t-37 185.5t37 185.5t106.5 132t161.5 48.5t161.5 -48.5t106.5 -132t37 -185.5t-37 -185.5t-106.5 -132t-161.5 -48.5t-161.5 48.5zM185.5 120q45.5 -90 133.5 -90q89 0 134 90t45 230t-45 230t-134 90q-88 0 -133.5 -90t-45.5 -230
t45.5 -230z" />
    <glyph glyph-name="Oacute" unicode="&#xd3;" horiz-adv-x="638" 
d="M157.5 32.5q-69.5 48.5 -106.5 132t-37 185.5t37 185.5t106.5 132t161.5 48.5t161.5 -48.5t106.5 -132t37 -185.5t-37 -185.5t-106.5 -132t-161.5 -48.5t-161.5 48.5zM185.5 120q45.5 -90 133.5 -90q89 0 134 90t45 230t-45 230t-134 90q-88 0 -133.5 -90t-45.5 -230
t45.5 -230zM276 792.5q-5 4.5 -5 10.5l-5 79q-2 25 15 34.5t46 9.5q46 0 46 -25q0 -11 -13 -31l-48 -69q-7 -13 -24 -13q-7 0 -12 4.5z" />
    <glyph glyph-name="Ocircumflex" unicode="&#xd4;" horiz-adv-x="638" 
d="M157.5 32.5q-69.5 48.5 -106.5 132t-37 185.5t37 185.5t106.5 132t161.5 48.5t161.5 -48.5t106.5 -132t37 -185.5t-37 -185.5t-106.5 -132t-161.5 -48.5t-161.5 48.5zM185.5 120q45.5 -90 133.5 -90q89 0 134 90t45 230t-45 230t-134 90q-88 0 -133.5 -90t-45.5 -230
t45.5 -230zM222 801q0 5 2 8l56 94q14 23 39 23q11 0 21.5 -6t16.5 -17l57 -95q2 -2 2 -7t-3.5 -8t-10.5 -3q-9 0 -19 9l-65 55l-64 -58q-7 -6 -17 -6q-15 0 -15 11z" />
    <glyph glyph-name="Odieresis" unicode="&#xd6;" horiz-adv-x="638" 
d="M157.5 32.5q-69.5 48.5 -106.5 132t-37 185.5t37 185.5t106.5 132t161.5 48.5t161.5 -48.5t106.5 -132t37 -185.5t-37 -185.5t-106.5 -132t-161.5 -48.5t-161.5 48.5zM185.5 120q45.5 -90 133.5 -90q89 0 134 90t45 230t-45 230t-134 90q-88 0 -133.5 -90t-45.5 -230
t45.5 -230zM203 816.5q-18 17.5 -18 41.5t18 42t43 18t43 -18t18 -42t-18 -41.5t-43 -17.5t-43 17.5zM349.5 900q17.5 18 42.5 18t43 -18t18 -42t-18 -41.5t-43 -17.5t-42.5 17.5t-17.5 41.5t17.5 42z" />
    <glyph glyph-name="Ograve" unicode="&#xd2;" horiz-adv-x="638" 
d="M157.5 32.5q-69.5 48.5 -106.5 132t-37 185.5t37 185.5t106.5 132t161.5 48.5t161.5 -48.5t106.5 -132t37 -185.5t-37 -185.5t-106.5 -132t-161.5 -48.5t-161.5 48.5zM185.5 120q45.5 -90 133.5 -90q89 0 134 90t45 230t-45 230t-134 90q-88 0 -133.5 -90t-45.5 -230
t45.5 -230zM327 801l-47 69q-14 19 -14 31q0 25 46 25q29 0 46 -9.5t15 -34.5l-5 -79q0 -6 -4.5 -10.5t-12.5 -4.5q-17 0 -24 13z" />
    <glyph glyph-name="Ohungarumlaut" unicode="&#x150;" horiz-adv-x="638" 
d="M157.5 32.5q-69.5 48.5 -106.5 132t-37 185.5t37 185.5t106.5 132t161.5 48.5t161.5 -48.5t106.5 -132t37 -185.5t-37 -185.5t-106.5 -132t-161.5 -48.5t-161.5 48.5zM185.5 120q45.5 -90 133.5 -90q89 0 134 90t45 230t-45 230t-134 90q-88 0 -133.5 -90t-45.5 -230
t45.5 -230zM212 792.5q-5 4.5 -5 10.5l-5 79q-2 25 15 34.5t46 9.5q46 0 46 -25q0 -11 -13 -31l-48 -69q-7 -13 -24 -13q-7 0 -12 4.5zM344 916.5q17 9.5 46 9.5q46 0 46 -25q0 -11 -13 -31l-48 -69q-7 -13 -24 -13q-7 0 -12 4.5t-5 10.5l-5 79q-2 25 15 34.5z" />
    <glyph glyph-name="Omacron" unicode="&#x14c;" horiz-adv-x="638" 
d="M157.5 32.5q-69.5 48.5 -106.5 132t-37 185.5t37 185.5t106.5 132t161.5 48.5t161.5 -48.5t106.5 -132t37 -185.5t-37 -185.5t-106.5 -132t-161.5 -48.5t-161.5 48.5zM185.5 120q45.5 -90 133.5 -90q89 0 134 90t45 230t-45 230t-134 90q-88 0 -133.5 -90t-45.5 -230
t45.5 -230zM227 887h183v-50h-183v50z" />
    <glyph glyph-name="Oslash" unicode="&#xd8;" horiz-adv-x="638" 
d="M209 5l-53 -146q-3 -5 -8 -5h-22q-7 0 -6 8l58 158q-77 43 -120.5 131.5t-43.5 198.5q0 102 37 185.5t106.5 132t161.5 48.5q61 0 109 -21l54 145q2 6 7 6h21q3 0 4.5 -2t0.5 -6l-57 -156q78 -44 122 -132.5t44 -199.5q0 -102 -37 -185.5t-106.5 -132t-161.5 -48.5
q-60 0 -110 21zM156 200.5q16 -67.5 48 -110.5l203 548q-37 32 -88 32q-88 0 -133.5 -90t-45.5 -230q0 -82 16 -149.5zM319 30q89 0 134 90t45 230q0 83 -16.5 151.5t-49.5 110.5l-201 -550q38 -32 88 -32z" />
    <glyph glyph-name="Otilde" unicode="&#xd5;" horiz-adv-x="638" 
d="M157.5 32.5q-69.5 48.5 -106.5 132t-37 185.5t37 185.5t106.5 132t161.5 48.5t161.5 -48.5t106.5 -132t37 -185.5t-37 -185.5t-106.5 -132t-161.5 -48.5t-161.5 48.5zM185.5 120q45.5 -90 133.5 -90q89 0 134 90t45 230t-45 230t-134 90q-88 0 -133.5 -90t-45.5 -230
t45.5 -230zM339.5 816q-13.5 7 -32.5 20q-13 10 -22.5 14.5t-18.5 4.5q-15 0 -25 -11.5t-10 -29.5q0 -5 -4 -8t-8 -3q-5 0 -9 4t-4 10q0 45 18 67.5t46 22.5q14 0 26 -5t30 -16q29 -19 46 -19q15 0 23.5 12.5t8.5 27.5q0 7 3.5 11.5t8.5 4.5q6 0 10.5 -4.5t4.5 -14.5
q0 -46 -16 -70.5t-45 -24.5q-17 0 -30.5 7z" />
    <glyph glyph-name="OE" unicode="&#x152;" horiz-adv-x="934" 
d="M157.5 32.5q-69.5 48.5 -106.5 132t-37 185.5t37 185.5t106.5 132t161.5 48.5q51 0 97 -16h444q16 0 22.5 -6t6.5 -21q0 -25 13 -81q9 -38 9 -53q0 -11 -10 -11q-9 0 -17.5 10t-23.5 32q-25 39 -49 61.5t-60 22.5h-253q57 -46 89.5 -120t36.5 -162h87q21 0 32 15t23 45
q7 18 11 25.5t11 7.5q14 0 14 -27t-3 -50q-2 -28 -2 -37q0 -10 2 -38q3 -24 3 -53q0 -27 -14 -27q-7 0 -11 7.5t-11 25.5q-12 30 -23 45t-32 15h-88q-4 -87 -36 -160t-87 -119h280q34 0 57 22t51 62q13 20 22.5 30.5t17.5 10.5q9 0 9 -14q0 -13 -10 -57q-13 -52 -13 -73
q0 -16 -5.5 -22t-17.5 -6h-475q-46 -16 -97 -16q-92 0 -161.5 48.5zM185.5 120q45.5 -90 133.5 -90q89 0 134 90t45 230t-45 230t-134 90q-88 0 -133.5 -90t-45.5 -230t45.5 -230z" />
    <glyph glyph-name="P" unicode="P" horiz-adv-x="563" 
d="M60 -2q-28 -2 -35 -2q-19 0 -19 15q0 7 5.5 13t17.5 14q22 15 34 30.5t12 43.5v473q0 29 -12.5 46t-34.5 31q-11 8 -16.5 14t-5.5 13q0 15 19 15l33 -2q36 -2 58 -2h210q119 0 175 -49.5t56 -144.5q0 -104 -64 -149t-173 -45h-129v-197q0 -29 12.5 -46t34.5 -31
q11 -8 16.5 -14t5.5 -13q0 -15 -19 -15l-33 2q-36 2 -58 2h-34q-20 0 -56 -2zM296 358q74 0 109 34.5t35 109.5q0 84 -35.5 118t-111.5 34h-102v-296h105z" />
    <glyph glyph-name="Thorn" unicode="&#xde;" horiz-adv-x="561" 
d="M60 -2q-28 -2 -35 -2q-19 0 -19 15q0 7 5.5 13t17.5 14q22 15 34 30.5t12 43.5v473q0 29 -12.5 46t-34.5 31q-11 8 -16.5 14t-5.5 13q0 15 19 15l33 -2q36 -2 58 -2h34q20 0 56 2q28 2 35 2q19 0 19 -15q0 -7 -5.5 -13t-17.5 -14q-22 -15 -34 -30.5t-12 -43.5v-33h124
q231 0 231 -195q0 -103 -64.5 -148t-172.5 -45h-118v-52q0 -29 12.5 -46t34.5 -31q11 -8 16.5 -14t5.5 -13q0 -15 -19 -15l-33 2q-36 2 -58 2h-34q-20 0 -56 -2zM284 213q75 0 110 34t35 109q0 85 -35.5 119t-111.5 34h-91v-296h93z" />
    <glyph glyph-name="Q" unicode="Q" horiz-adv-x="638" 
d="M453 120q45 90 45 230t-45 230t-134 90q-88 0 -133.5 -90t-45.5 -230t45.5 -230t133.5 -90q89 0 134 90zM51 535.5q37 83.5 106.5 132t161.5 48.5t161.5 -48.5t106.5 -132t37 -185.5q0 -91 -29.5 -167.5t-85.5 -127.5t-132 -66q30 -15 51 -35t42 -46q20 -23 30.5 -32
t24.5 -9q15 0 24 9.5t18 28.5q14 23 25.5 34.5t31.5 11.5q17 0 27 -10.5t10 -27.5q0 -38 -37.5 -64.5t-97.5 -26.5q-47 0 -82 13.5t-59 32t-53 47.5q-32 32 -55 47.5t-54 15.5q-24 0 -34.5 -8t-21.5 -25q-9 -15 -18 -22.5t-30 -7.5q-17 0 -27.5 11.5t-10.5 26.5
q0 25 25.5 43.5t70.5 24.5q-77 44 -120 131.5t-43 197.5q0 102 37 185.5z" />
    <glyph glyph-name="R" unicode="R" horiz-adv-x="654" 
d="M60 -2q-28 -2 -35 -2q-19 0 -19 15q0 7 5.5 13t17.5 14q22 15 34 30.5t12 43.5v473q0 29 -12.5 46t-34.5 31q-11 8 -16.5 14t-5.5 13q0 15 19 15l33 -2q36 -2 58 -2h210q113 0 168 -48t55 -137q0 -68 -38 -112.5t-96 -53.5q32 -13 53 -51.5t43 -102.5q30 -86 62.5 -128
t59.5 -44q12 -4 12 -12q0 -11 -17 -11h-56q-45 0 -76.5 16.5t-56.5 55.5t-49 108q-25 74 -57 118t-79 44h-63v-227q0 -29 12.5 -46t34.5 -31q11 -8 16.5 -14t5.5 -13q0 -15 -19 -15l-33 2q-36 2 -58 2h-34q-20 0 -56 -2zM296 388q67 0 101.5 31.5t34.5 91.5q0 79 -32.5 111
t-106.5 32h-102v-266h105z" />
    <glyph glyph-name="Racute" unicode="&#x154;" horiz-adv-x="654" 
d="M60 -2q-28 -2 -35 -2q-19 0 -19 15q0 7 5.5 13t17.5 14q22 15 34 30.5t12 43.5v473q0 29 -12.5 46t-34.5 31q-11 8 -16.5 14t-5.5 13q0 15 19 15l33 -2q36 -2 58 -2h210q113 0 168 -48t55 -137q0 -68 -38 -112.5t-96 -53.5q32 -13 53 -51.5t43 -102.5q30 -86 62.5 -128
t59.5 -44q12 -4 12 -12q0 -11 -17 -11h-56q-45 0 -76.5 16.5t-56.5 55.5t-49 108q-25 74 -57 118t-79 44h-63v-227q0 -29 12.5 -46t34.5 -31q11 -8 16.5 -14t5.5 -13q0 -15 -19 -15l-33 2q-36 2 -58 2h-34q-20 0 -56 -2zM296 388q67 0 101.5 31.5t34.5 91.5q0 79 -32.5 111
t-106.5 32h-102v-266h105zM283 792.5q-5 4.5 -5 10.5l-5 79q-2 25 15 34.5t46 9.5q46 0 46 -25q0 -11 -13 -31l-48 -69q-7 -13 -24 -13q-7 0 -12 4.5z" />
    <glyph glyph-name="Rcaron" unicode="&#x158;" horiz-adv-x="654" 
d="M60 -2q-28 -2 -35 -2q-19 0 -19 15q0 7 5.5 13t17.5 14q22 15 34 30.5t12 43.5v473q0 29 -12.5 46t-34.5 31q-11 8 -16.5 14t-5.5 13q0 15 19 15l33 -2q36 -2 58 -2h210q113 0 168 -48t55 -137q0 -68 -38 -112.5t-96 -53.5q32 -13 53 -51.5t43 -102.5q30 -86 62.5 -128
t59.5 -44q12 -4 12 -12q0 -11 -17 -11h-56q-45 0 -76.5 16.5t-56.5 55.5t-49 108q-25 74 -57 118t-79 44h-63v-227q0 -29 12.5 -46t34.5 -31q11 -8 16.5 -14t5.5 -13q0 -15 -19 -15l-33 2q-36 2 -58 2h-34q-20 0 -56 -2zM296 388q67 0 101.5 31.5t34.5 91.5q0 79 -32.5 111
t-106.5 32h-102v-266h105zM288 813l-56 94q-2 3 -2 8q0 11 15 11q10 0 17 -6l64 -58l65 55q10 9 19 9t13 -6t-1 -12l-57 -95q-7 -11 -17 -17t-21 -6q-24 0 -39 23z" />
    <glyph glyph-name="uni0156" unicode="&#x156;" horiz-adv-x="654" 
d="M60 -2q-28 -2 -35 -2q-19 0 -19 15q0 7 5.5 13t17.5 14q22 15 34 30.5t12 43.5v473q0 29 -12.5 46t-34.5 31q-11 8 -16.5 14t-5.5 13q0 15 19 15l33 -2q36 -2 58 -2h210q113 0 168 -48t55 -137q0 -68 -38 -112.5t-96 -53.5q32 -13 53 -51.5t43 -102.5q30 -86 62.5 -128
t59.5 -44q12 -4 12 -12q0 -11 -17 -11h-56q-45 0 -76.5 16.5t-56.5 55.5t-49 108q-25 74 -57 118t-79 44h-63v-227q0 -29 12.5 -46t34.5 -31q11 -8 16.5 -14t5.5 -13q0 -15 -19 -15l-33 2q-36 2 -58 2h-34q-20 0 -56 -2zM296 388q67 0 101.5 31.5t34.5 91.5q0 79 -32.5 111
t-106.5 32h-102v-266h105zM286 -158q-13 0 -13 7q0 3 7.5 6l12.5 5q33 7 33 29q0 8 -4.5 11.5t-12.5 5.5q-13 2 -20 9.5t-7 20.5q0 17 13 27.5t33 10.5q23 0 37.5 -14t14.5 -37q0 -28 -21 -51.5t-65 -28.5z" />
    <glyph glyph-name="S" unicode="S" horiz-adv-x="545" 
d="M154 -3.5q-57 12.5 -91 31.5t-37 37l-9 63q-11 70 -11 81q0 10 9 10q5 0 13 -10t18 -24q30 -41 59.5 -72t76.5 -56t108 -25q70 0 106.5 29t36.5 73q0 37 -26 69t-64 57.5t-103 61.5q-73 41 -116 70t-73 68.5t-30 87.5t31 86t91 60t146 22q83 0 137.5 -17t58.5 -40
q22 -119 22 -127q0 -9 -10 -9q-5 0 -12 7.5t-20 24.5q-26 34 -49 56.5t-59.5 41t-84.5 18.5q-71 0 -107 -24.5t-36 -62.5q0 -30 23 -57t58 -48.5t94 -53.5q77 -41 125 -73t81.5 -76.5t33.5 -100.5q0 -90 -72.5 -140.5t-194.5 -50.5q-66 0 -123 12.5z" />
    <glyph glyph-name="Sacute" unicode="&#x15a;" horiz-adv-x="545" 
d="M154 -3.5q-57 12.5 -91 31.5t-37 37l-9 63q-11 70 -11 81q0 10 9 10q5 0 13 -10t18 -24q30 -41 59.5 -72t76.5 -56t108 -25q70 0 106.5 29t36.5 73q0 37 -26 69t-64 57.5t-103 61.5q-73 41 -116 70t-73 68.5t-30 87.5t31 86t91 60t146 22q83 0 137.5 -17t58.5 -40
q22 -119 22 -127q0 -9 -10 -9q-5 0 -12 7.5t-20 24.5q-26 34 -49 56.5t-59.5 41t-84.5 18.5q-71 0 -107 -24.5t-36 -62.5q0 -30 23 -57t58 -48.5t94 -53.5q77 -41 125 -73t81.5 -76.5t33.5 -100.5q0 -90 -72.5 -140.5t-194.5 -50.5q-66 0 -123 12.5zM229 792.5
q-5 4.5 -5 10.5l-5 79q-2 25 15 34.5t46 9.5q46 0 46 -25q0 -11 -13 -31l-48 -69q-7 -13 -24 -13q-7 0 -12 4.5z" />
    <glyph glyph-name="uniA78B" unicode="&#xa78b;" horiz-adv-x="212" 
d="M46 277v462h116v-461l-44 -75h-28z" />
    <glyph glyph-name="Scaron" unicode="&#x160;" horiz-adv-x="545" 
d="M154 -3.5q-57 12.5 -91 31.5t-37 37l-9 63q-11 70 -11 81q0 10 9 10q5 0 13 -10t18 -24q30 -41 59.5 -72t76.5 -56t108 -25q70 0 106.5 29t36.5 73q0 37 -26 69t-64 57.5t-103 61.5q-73 41 -116 70t-73 68.5t-30 87.5t31 86t91 60t146 22q83 0 137.5 -17t58.5 -40
q22 -119 22 -127q0 -9 -10 -9q-5 0 -12 7.5t-20 24.5q-26 34 -49 56.5t-59.5 41t-84.5 18.5q-71 0 -107 -24.5t-36 -62.5q0 -30 23 -57t58 -48.5t94 -53.5q77 -41 125 -73t81.5 -76.5t33.5 -100.5q0 -90 -72.5 -140.5t-194.5 -50.5q-66 0 -123 12.5zM234 813l-56 94
q-2 3 -2 8q0 11 15 11q10 0 17 -6l64 -58l65 55q10 9 19 9t13 -6t-1 -12l-57 -95q-7 -11 -17 -17t-21 -6q-24 0 -39 23z" />
    <glyph glyph-name="Scedilla" unicode="&#x15e;" horiz-adv-x="545" 
d="M253.5 -163q-18.5 10 -28.5 25q-4 4 -4 8t4 5t8 -3q17 -20 42 -20q18 0 29.5 10t11.5 26t-11 26t-28 10q-9 0 -19.5 -4.5t-13.5 -4.5q-8 0 -8 9q0 5 3 14l16 46q-61 2 -112.5 15t-82.5 31t-34 35l-9 63q-11 70 -11 81q0 10 9 10q5 0 13 -10t18 -24q30 -41 59.5 -72
t76.5 -56t108 -25q70 0 106.5 29t36.5 73q0 37 -26 69t-64 57.5t-103 61.5q-73 41 -116 70t-73 68.5t-30 87.5t31 86t91 60t146 22q83 0 137.5 -17t58.5 -40q22 -119 22 -127q0 -9 -10 -9q-5 0 -12 7.5t-20 24.5q-26 34 -49 56.5t-59.5 41t-84.5 18.5q-71 0 -107 -24.5
t-36 -62.5q0 -30 23 -57t58 -48.5t94 -53.5q77 -41 125 -73t81.5 -76.5t33.5 -100.5q0 -88 -70.5 -138.5t-190.5 -52.5l-8 -29l1 -2q6 5 16 8.5t20 3.5q24 0 40.5 -18t16.5 -46q0 -32 -21.5 -53t-55.5 -21q-20 0 -38.5 10z" />
    <glyph glyph-name="Scircumflex" unicode="&#x15c;" horiz-adv-x="545" 
d="M154 -3.5q-57 12.5 -91 31.5t-37 37l-9 63q-11 70 -11 81q0 10 9 10q5 0 13 -10t18 -24q30 -41 59.5 -72t76.5 -56t108 -25q70 0 106.5 29t36.5 73q0 37 -26 69t-64 57.5t-103 61.5q-73 41 -116 70t-73 68.5t-30 87.5t31 86t91 60t146 22q83 0 137.5 -17t58.5 -40
q22 -119 22 -127q0 -9 -10 -9q-5 0 -12 7.5t-20 24.5q-26 34 -49 56.5t-59.5 41t-84.5 18.5q-71 0 -107 -24.5t-36 -62.5q0 -30 23 -57t58 -48.5t94 -53.5q77 -41 125 -73t81.5 -76.5t33.5 -100.5q0 -90 -72.5 -140.5t-194.5 -50.5q-66 0 -123 12.5zM176 801q0 5 2 8l56 94
q14 23 39 23q11 0 21.5 -6t16.5 -17l57 -95q2 -2 2 -7t-3.5 -8t-10.5 -3q-9 0 -19 9l-65 55l-64 -58q-7 -6 -17 -6q-15 0 -15 11z" />
    <glyph glyph-name="uni0218" unicode="&#x218;" horiz-adv-x="545" 
d="M154 -3.5q-57 12.5 -91 31.5t-37 37l-9 63q-11 70 -11 81q0 10 9 10q5 0 13 -10t18 -24q30 -41 59.5 -72t76.5 -56t108 -25q70 0 106.5 29t36.5 73q0 37 -26 69t-64 57.5t-103 61.5q-73 41 -116 70t-73 68.5t-30 87.5t31 86t91 60t146 22q83 0 137.5 -17t58.5 -40
q22 -119 22 -127q0 -9 -10 -9q-5 0 -12 7.5t-20 24.5q-26 34 -49 56.5t-59.5 41t-84.5 18.5q-71 0 -107 -24.5t-36 -62.5q0 -30 23 -57t58 -48.5t94 -53.5q77 -41 125 -73t81.5 -76.5t33.5 -100.5q0 -90 -72.5 -140.5t-194.5 -50.5q-66 0 -123 12.5zM232 -158q-13 0 -13 7
q0 3 7.5 6l12.5 5q33 7 33 29q0 8 -4.5 11.5t-12.5 5.5q-13 2 -20 9.5t-7 20.5q0 17 13 27.5t33 10.5q23 0 37.5 -14t14.5 -37q0 -28 -21 -51.5t-65 -28.5z" />
    <glyph glyph-name="uni1E9E" unicode="&#x1e9e;" horiz-adv-x="632" 
d="M269.5 2q-37.5 18 -52 41.5t-14.5 43.5q0 21 11 32.5t28 11.5q20 0 32.5 -13.5t12.5 -38.5q0 -27 19.5 -42.5t61.5 -15.5q35 0 64.5 19t47.5 54t18 81q0 65 -38 113.5t-94 75t-109 31.5v33l174 175q0 40 -31.5 65t-92.5 25q-60 0 -98.5 -28.5t-38.5 -108.5v-465
q0 -21 8 -32t23 -23q18 -13 18 -25q0 -15 -17 -15q-10 0 -30 2q-28 2 -51 2h-8q-23 0 -51 -2q-20 -2 -30 -2q-17 0 -17 15q0 12 18 25q15 12 23 23t8 32v334q0 15 -7.5 23t-22.5 15q-11 7 -15.5 11t-4.5 11q0 15 20 15h30v15q0 115 67.5 164.5t169.5 49.5q104 0 151.5 -35.5
t47.5 -89.5l-184 -182v-4q78 -2 143.5 -28t104.5 -76t39 -118q0 -61 -30.5 -109.5t-84 -75.5t-117.5 -27t-101.5 18z" />
    <glyph glyph-name="T" unicode="T" horiz-adv-x="519" 
d="M187 -2q-28 -2 -35 -2q-19 0 -19 15q0 7 5.5 13t17.5 14q22 15 34 30.5t12 43.5v542h-55q-34 0 -56 -22t-46 -61q-13 -22 -21.5 -32.5t-18.5 -10.5q-4 0 -7 3t-3 8q0 16 9 52q13 56 13 82q0 15 6.5 21t22.5 6h427q16 0 22.5 -6t6.5 -21q0 -26 13 -82q9 -36 9 -52
q0 -11 -10 -11t-18.5 10.5t-21.5 32.5q-24 39 -46 61t-56 22h-54v-539q0 -29 12.5 -46t34.5 -31q11 -8 16.5 -14t5.5 -13q0 -15 -18 -15l-35 2q-36 2 -57 2h-34q-20 0 -56 -2z" />
    <glyph glyph-name="Tbar" unicode="&#x166;" horiz-adv-x="519" 
d="M187 -2q-28 -2 -35 -2q-19 0 -19 15q0 7 5.5 13t17.5 14q22 15 34 30.5t12 43.5v214h-88v46h88v282h-55q-34 0 -56 -22t-46 -61q-13 -22 -21.5 -32.5t-18.5 -10.5q-4 0 -7 3t-3 8q0 16 9 52q13 56 13 82q0 15 6.5 21t22.5 6h427q16 0 22.5 -6t6.5 -21q0 -26 13 -82
q9 -36 9 -52q0 -11 -10 -11t-18.5 10.5t-21.5 32.5q-24 39 -46 61t-56 22h-54v-282h103v-46h-103v-211q0 -29 12.5 -46t34.5 -31q11 -8 16.5 -14t5.5 -13q0 -15 -18 -15l-35 2q-36 2 -57 2h-34q-20 0 -56 -2z" />
    <glyph glyph-name="Tcaron" unicode="&#x164;" horiz-adv-x="519" 
d="M187 -2q-28 -2 -35 -2q-19 0 -19 15q0 7 5.5 13t17.5 14q22 15 34 30.5t12 43.5v542h-55q-34 0 -56 -22t-46 -61q-13 -22 -21.5 -32.5t-18.5 -10.5q-4 0 -7 3t-3 8q0 16 9 52q13 56 13 82q0 15 6.5 21t22.5 6h427q16 0 22.5 -6t6.5 -21q0 -26 13 -82q9 -36 9 -52
q0 -11 -10 -11t-18.5 10.5t-21.5 32.5q-24 39 -46 61t-56 22h-54v-539q0 -29 12.5 -46t34.5 -31q11 -8 16.5 -14t5.5 -13q0 -15 -18 -15l-35 2q-36 2 -57 2h-34q-20 0 -56 -2zM221 813l-56 94q-2 3 -2 8q0 11 15 11q10 0 17 -6l64 -58l65 55q10 9 19 9t13 -6t-1 -12l-57 -95
q-7 -11 -17 -17t-21 -6q-24 0 -39 23z" />
    <glyph glyph-name="uni0162" unicode="&#x162;" horiz-adv-x="519" 
d="M187 -2q-28 -2 -35 -2q-19 0 -19 15q0 7 5.5 13t17.5 14q22 15 34 30.5t12 43.5v542h-55q-34 0 -56 -22t-46 -61q-13 -22 -21.5 -32.5t-18.5 -10.5q-4 0 -7 3t-3 8q0 16 9 52q13 56 13 82q0 15 6.5 21t22.5 6h427q16 0 22.5 -6t6.5 -21q0 -26 13 -82q9 -36 9 -52
q0 -11 -10 -11t-18.5 10.5t-21.5 32.5q-24 39 -46 61t-56 22h-54v-539q0 -29 12.5 -46t34.5 -31q11 -8 16.5 -14t5.5 -13q0 -15 -18 -15l-35 2q-36 2 -57 2h-34q-20 0 -56 -2zM241.5 -163q-18.5 10 -28.5 25q-4 4 -4 8t4 5t8 -3q17 -20 42 -20q18 0 29.5 10t11.5 26t-11 26
t-28 10q-9 0 -19.5 -4.5t-13.5 -4.5q-8 0 -8 9q0 5 3 14l19 55h28l-11 -38l1 -2q6 5 16 8.5t20 3.5q24 0 40.5 -18t16.5 -46q0 -32 -21.5 -53t-55.5 -21q-20 0 -38.5 10z" />
    <glyph glyph-name="uni021A" unicode="&#x21a;" horiz-adv-x="519" 
d="M187 -2q-28 -2 -35 -2q-19 0 -19 15q0 7 5.5 13t17.5 14q22 15 34 30.5t12 43.5v542h-55q-34 0 -56 -22t-46 -61q-13 -22 -21.5 -32.5t-18.5 -10.5q-4 0 -7 3t-3 8q0 16 9 52q13 56 13 82q0 15 6.5 21t22.5 6h427q16 0 22.5 -6t6.5 -21q0 -26 13 -82q9 -36 9 -52
q0 -11 -10 -11t-18.5 10.5t-21.5 32.5q-24 39 -46 61t-56 22h-54v-539q0 -29 12.5 -46t34.5 -31q11 -8 16.5 -14t5.5 -13q0 -15 -18 -15l-35 2q-36 2 -57 2h-34q-20 0 -56 -2zM220 -158q-13 0 -13 7q0 3 7.5 6l12.5 5q33 7 33 29q0 8 -4.5 11.5t-12.5 5.5q-13 2 -20 9.5
t-7 20.5q0 17 13 27.5t33 10.5q23 0 37.5 -14t14.5 -37q0 -28 -21 -51.5t-65 -28.5z" />
    <glyph glyph-name="U" unicode="U" horiz-adv-x="627" 
d="M152.5 33.5q-74.5 47.5 -74.5 154.5v397q0 29 -12.5 46t-34.5 31q-11 8 -16.5 14t-5.5 13q0 15 19 15l33 -2q36 -2 58 -2h34q20 0 56 2q28 2 35 2q19 0 19 -15q0 -7 -5.5 -13t-17.5 -14q-22 -15 -34 -30.5t-12 -43.5v-400q0 -80 45 -117t113 -37q64 0 107.5 34t43.5 110
v407q0 29 -12.5 46t-34.5 31q-11 8 -16.5 14t-5.5 13q0 15 18 15l34 -2q24 -2 39 -2t39 2q28 2 35 2q19 0 19 -15q0 -7 -5.5 -13t-17.5 -14q-22 -15 -34 -30.5t-12 -43.5v-410q0 -96 -59.5 -144t-150.5 -48q-112 0 -186.5 47.5z" />
    <glyph glyph-name="Uacute" unicode="&#xda;" horiz-adv-x="627" 
d="M152.5 33.5q-74.5 47.5 -74.5 154.5v397q0 29 -12.5 46t-34.5 31q-11 8 -16.5 14t-5.5 13q0 15 19 15l33 -2q36 -2 58 -2h34q20 0 56 2q28 2 35 2q19 0 19 -15q0 -7 -5.5 -13t-17.5 -14q-22 -15 -34 -30.5t-12 -43.5v-400q0 -80 45 -117t113 -37q64 0 107.5 34t43.5 110
v407q0 29 -12.5 46t-34.5 31q-11 8 -16.5 14t-5.5 13q0 15 18 15l34 -2q24 -2 39 -2t39 2q28 2 35 2q19 0 19 -15q0 -7 -5.5 -13t-17.5 -14q-22 -15 -34 -30.5t-12 -43.5v-410q0 -96 -59.5 -144t-150.5 -48q-112 0 -186.5 47.5zM297 792.5q-5 4.5 -5 10.5l-5 79
q-2 25 15 34.5t46 9.5q46 0 46 -25q0 -11 -13 -31l-48 -69q-7 -13 -24 -13q-7 0 -12 4.5z" />
    <glyph glyph-name="Ubreve" unicode="&#x16c;" horiz-adv-x="627" 
d="M152.5 33.5q-74.5 47.5 -74.5 154.5v397q0 29 -12.5 46t-34.5 31q-11 8 -16.5 14t-5.5 13q0 15 19 15l33 -2q36 -2 58 -2h34q20 0 56 2q28 2 35 2q19 0 19 -15q0 -7 -5.5 -13t-17.5 -14q-22 -15 -34 -30.5t-12 -43.5v-400q0 -80 45 -117t113 -37q64 0 107.5 34t43.5 110
v407q0 29 -12.5 46t-34.5 31q-11 8 -16.5 14t-5.5 13q0 15 18 15l34 -2q24 -2 39 -2t39 2q28 2 35 2q19 0 19 -15q0 -7 -5.5 -13t-17.5 -14q-22 -15 -34 -30.5t-12 -43.5v-410q0 -96 -59.5 -144t-150.5 -48q-112 0 -186.5 47.5zM269.5 825.5q-26.5 35.5 -33.5 82.5v3
q0 6 3.5 10t7.5 5q7 0 11 -8q31 -68 81 -68q26 0 47 18t35 51q4 8 11 8q5 0 9 -5t3 -12q-11 -53 -36.5 -86.5t-68.5 -33.5t-69.5 35.5z" />
    <glyph glyph-name="Ucircumflex" unicode="&#xdb;" horiz-adv-x="627" 
d="M152.5 33.5q-74.5 47.5 -74.5 154.5v397q0 29 -12.5 46t-34.5 31q-11 8 -16.5 14t-5.5 13q0 15 19 15l33 -2q36 -2 58 -2h34q20 0 56 2q28 2 35 2q19 0 19 -15q0 -7 -5.5 -13t-17.5 -14q-22 -15 -34 -30.5t-12 -43.5v-400q0 -80 45 -117t113 -37q64 0 107.5 34t43.5 110
v407q0 29 -12.5 46t-34.5 31q-11 8 -16.5 14t-5.5 13q0 15 18 15l34 -2q24 -2 39 -2t39 2q28 2 35 2q19 0 19 -15q0 -7 -5.5 -13t-17.5 -14q-22 -15 -34 -30.5t-12 -43.5v-410q0 -96 -59.5 -144t-150.5 -48q-112 0 -186.5 47.5zM243 801q0 5 2 8l56 94q14 23 39 23
q11 0 21.5 -6t16.5 -17l57 -95q2 -2 2 -7t-3.5 -8t-10.5 -3q-9 0 -19 9l-65 55l-64 -58q-7 -6 -17 -6q-15 0 -15 11z" />
    <glyph glyph-name="Udieresis" unicode="&#xdc;" horiz-adv-x="627" 
d="M152.5 33.5q-74.5 47.5 -74.5 154.5v397q0 29 -12.5 46t-34.5 31q-11 8 -16.5 14t-5.5 13q0 15 19 15l33 -2q36 -2 58 -2h34q20 0 56 2q28 2 35 2q19 0 19 -15q0 -7 -5.5 -13t-17.5 -14q-22 -15 -34 -30.5t-12 -43.5v-400q0 -80 45 -117t113 -37q64 0 107.5 34t43.5 110
v407q0 29 -12.5 46t-34.5 31q-11 8 -16.5 14t-5.5 13q0 15 18 15l34 -2q24 -2 39 -2t39 2q28 2 35 2q19 0 19 -15q0 -7 -5.5 -13t-17.5 -14q-22 -15 -34 -30.5t-12 -43.5v-410q0 -96 -59.5 -144t-150.5 -48q-112 0 -186.5 47.5zM223 816.5q-18 17.5 -18 41.5t18 42t43 18
t43 -18t18 -42t-18 -41.5t-43 -17.5t-43 17.5zM369.5 900q17.5 18 42.5 18t43 -18t18 -42t-18 -41.5t-43 -17.5t-42.5 17.5t-17.5 41.5t17.5 42z" />
    <glyph glyph-name="Ugrave" unicode="&#xd9;" horiz-adv-x="627" 
d="M152.5 33.5q-74.5 47.5 -74.5 154.5v397q0 29 -12.5 46t-34.5 31q-11 8 -16.5 14t-5.5 13q0 15 19 15l33 -2q36 -2 58 -2h34q20 0 56 2q28 2 35 2q19 0 19 -15q0 -7 -5.5 -13t-17.5 -14q-22 -15 -34 -30.5t-12 -43.5v-400q0 -80 45 -117t113 -37q64 0 107.5 34t43.5 110
v407q0 29 -12.5 46t-34.5 31q-11 8 -16.5 14t-5.5 13q0 15 18 15l34 -2q24 -2 39 -2t39 2q28 2 35 2q19 0 19 -15q0 -7 -5.5 -13t-17.5 -14q-22 -15 -34 -30.5t-12 -43.5v-410q0 -96 -59.5 -144t-150.5 -48q-112 0 -186.5 47.5zM347 801l-47 69q-14 19 -14 31q0 25 46 25
q29 0 46 -9.5t15 -34.5l-5 -79q0 -6 -4.5 -10.5t-12.5 -4.5q-17 0 -24 13z" />
    <glyph glyph-name="Uhungarumlaut" unicode="&#x170;" horiz-adv-x="627" 
d="M152.5 33.5q-74.5 47.5 -74.5 154.5v397q0 29 -12.5 46t-34.5 31q-11 8 -16.5 14t-5.5 13q0 15 19 15l33 -2q36 -2 58 -2h34q20 0 56 2q28 2 35 2q19 0 19 -15q0 -7 -5.5 -13t-17.5 -14q-22 -15 -34 -30.5t-12 -43.5v-400q0 -80 45 -117t113 -37q64 0 107.5 34t43.5 110
v407q0 29 -12.5 46t-34.5 31q-11 8 -16.5 14t-5.5 13q0 15 18 15l34 -2q24 -2 39 -2t39 2q28 2 35 2q19 0 19 -15q0 -7 -5.5 -13t-17.5 -14q-22 -15 -34 -30.5t-12 -43.5v-410q0 -96 -59.5 -144t-150.5 -48q-112 0 -186.5 47.5zM233 792.5q-5 4.5 -5 10.5l-5 79
q-2 25 15 34.5t46 9.5q46 0 46 -25q0 -11 -13 -31l-48 -69q-7 -13 -24 -13q-7 0 -12 4.5zM365 916.5q17 9.5 46 9.5q46 0 46 -25q0 -11 -13 -31l-48 -69q-7 -13 -24 -13q-7 0 -12 4.5t-5 10.5l-5 79q-2 25 15 34.5z" />
    <glyph glyph-name="Umacron" unicode="&#x16a;" horiz-adv-x="627" 
d="M152.5 33.5q-74.5 47.5 -74.5 154.5v397q0 29 -12.5 46t-34.5 31q-11 8 -16.5 14t-5.5 13q0 15 19 15l33 -2q36 -2 58 -2h34q20 0 56 2q28 2 35 2q19 0 19 -15q0 -7 -5.5 -13t-17.5 -14q-22 -15 -34 -30.5t-12 -43.5v-400q0 -80 45 -117t113 -37q64 0 107.5 34t43.5 110
v407q0 29 -12.5 46t-34.5 31q-11 8 -16.5 14t-5.5 13q0 15 18 15l34 -2q24 -2 39 -2t39 2q28 2 35 2q19 0 19 -15q0 -7 -5.5 -13t-17.5 -14q-22 -15 -34 -30.5t-12 -43.5v-410q0 -96 -59.5 -144t-150.5 -48q-112 0 -186.5 47.5zM248 887h183v-50h-183v50z" />
    <glyph glyph-name="Uogonek" unicode="&#x172;" horiz-adv-x="627" 
d="M152.5 33.5q-74.5 47.5 -74.5 154.5v397q0 29 -12.5 46t-34.5 31q-11 8 -16.5 14t-5.5 13q0 15 19 15l33 -2q36 -2 58 -2h34q20 0 56 2q28 2 35 2q19 0 19 -15q0 -7 -5.5 -13t-17.5 -14q-22 -15 -34 -30.5t-12 -43.5v-400q0 -80 45 -117t113 -37q64 0 107.5 34t43.5 110
v407q0 29 -12.5 46t-34.5 31q-11 8 -16.5 14t-5.5 13q0 15 18 15l34 -2q24 -2 39 -2t39 2q28 2 35 2q19 0 19 -15q0 -7 -5.5 -13t-17.5 -14q-22 -15 -34 -30.5t-12 -43.5v-410q0 -96 -59.5 -144t-150.5 -48q-112 0 -186.5 47.5zM450 -150.5q-14 14.5 -14 35.5
q0 41 35.5 72.5t76.5 47.5h27q-24 -13 -49.5 -42.5t-25.5 -52.5q0 -11 8.5 -18t24.5 -7q6 0 10 -4t4 -10q0 -13 -15 -24.5t-41 -11.5q-27 0 -41 14.5z" />
    <glyph glyph-name="Uring" unicode="&#x16e;" horiz-adv-x="627" 
d="M152.5 33.5q-74.5 47.5 -74.5 154.5v397q0 29 -12.5 46t-34.5 31q-11 8 -16.5 14t-5.5 13q0 15 19 15l33 -2q36 -2 58 -2h34q20 0 56 2q28 2 35 2q19 0 19 -15q0 -7 -5.5 -13t-17.5 -14q-22 -15 -34 -30.5t-12 -43.5v-400q0 -80 45 -117t113 -37q64 0 107.5 34t43.5 110
v407q0 29 -12.5 46t-34.5 31q-11 8 -16.5 14t-5.5 13q0 15 18 15l34 -2q24 -2 39 -2t39 2q28 2 35 2q19 0 19 -15q0 -7 -5.5 -13t-17.5 -14q-22 -15 -34 -30.5t-12 -43.5v-410q0 -96 -59.5 -144t-150.5 -48q-112 0 -186.5 47.5zM281.5 810q-23.5 20 -23.5 49q0 28 24 47.5
t60 19.5q34 0 57 -19t23 -48t-23.5 -49t-58.5 -20t-58.5 20zM315 836.5q10 -8.5 25 -8.5q16 0 26 8.5t10 22.5q0 13 -10.5 21.5t-24.5 8.5q-16 0 -26 -8.5t-10 -21.5q0 -14 10 -22.5z" />
    <glyph glyph-name="Utilde" unicode="&#x168;" horiz-adv-x="627" 
d="M152.5 33.5q-74.5 47.5 -74.5 154.5v397q0 29 -12.5 46t-34.5 31q-11 8 -16.5 14t-5.5 13q0 15 19 15l33 -2q36 -2 58 -2h34q20 0 56 2q28 2 35 2q19 0 19 -15q0 -7 -5.5 -13t-17.5 -14q-22 -15 -34 -30.5t-12 -43.5v-400q0 -80 45 -117t113 -37q64 0 107.5 34t43.5 110
v407q0 29 -12.5 46t-34.5 31q-11 8 -16.5 14t-5.5 13q0 15 18 15l34 -2q24 -2 39 -2t39 2q28 2 35 2q19 0 19 -15q0 -7 -5.5 -13t-17.5 -14q-22 -15 -34 -30.5t-12 -43.5v-410q0 -96 -59.5 -144t-150.5 -48q-112 0 -186.5 47.5zM360.5 816q-13.5 7 -32.5 20
q-13 10 -22.5 14.5t-18.5 4.5q-15 0 -25 -11.5t-10 -29.5q0 -5 -4 -8t-8 -3q-5 0 -9 4t-4 10q0 45 18 67.5t46 22.5q14 0 26 -5t30 -16q29 -19 46 -19q15 0 23.5 12.5t8.5 27.5q0 7 3.5 11.5t8.5 4.5q6 0 10.5 -4.5t4.5 -14.5q0 -46 -16 -70.5t-45 -24.5q-17 0 -30.5 7z" />
    <glyph glyph-name="V" unicode="V" horiz-adv-x="677" 
d="M64 626q-15 16 -35 31q-15 12 -20.5 18t-5.5 14q0 15 23 15l42 -2q44 -2 72 -2h14q22 0 60 2q32 2 39 2q20 0 20 -15q0 -7 -7 -12.5t-21 -14.5q-22 -13 -34 -24t-12 -28q0 -8 5 -21l173 -434l159 430q4 9 4 20q0 19 -13.5 32t-36.5 25q-15 8 -22 14t-7 13q0 15 20 15
l37 -2q28 -2 44 -2q17 0 47 2q34 2 43 2q22 0 22 -15q0 -8 -6 -14t-21 -17q-23 -17 -37 -31t-23 -38l-220 -589h-47l-231 585q-10 25 -25 41z" />
    <glyph glyph-name="W" unicode="W" horiz-adv-x="1007" 
d="M64 626q-15 16 -35 31q-15 12 -20.5 18t-5.5 14q0 15 23 15l42 -2q44 -2 72 -2h14q22 0 60 2q32 2 39 2q20 0 20 -15q0 -7 -7 -12.5t-21 -14.5q-22 -13 -34 -24t-12 -28q0 -8 5 -21l172 -433l116 323l-40 106q-9 24 -23.5 40t-34.5 32q-15 13 -20 18.5t-5 13.5
q0 15 22 15l40 -2q44 -2 70 -2h15q22 0 60 2q32 2 39 2q20 0 20 -15q0 -7 -7 -12.5t-21 -14.5q-22 -12 -34 -24t-12 -30q0 -10 4 -19l160 -433l142 429q3 11 3 19q0 20 -12 31.5t-37 27.5q-15 9 -21.5 14t-6.5 12q0 15 20 15l35 -2q28 -2 45 -2t45 2l44 2q22 0 22 -15
q0 -7 -6.5 -14t-20.5 -16q-23 -17 -37 -32t-23 -39l-201 -588h-47l-153 413l-149 -413h-47l-231 585q-10 25 -25 41z" />
    <glyph glyph-name="Wacute" unicode="&#x1e82;" horiz-adv-x="1007" 
d="M64 626q-15 16 -35 31q-15 12 -20.5 18t-5.5 14q0 15 23 15l42 -2q44 -2 72 -2h14q22 0 60 2q32 2 39 2q20 0 20 -15q0 -7 -7 -12.5t-21 -14.5q-22 -13 -34 -24t-12 -28q0 -8 5 -21l172 -433l116 323l-40 106q-9 24 -23.5 40t-34.5 32q-15 13 -20 18.5t-5 13.5
q0 15 22 15l40 -2q44 -2 70 -2h15q22 0 60 2q32 2 39 2q20 0 20 -15q0 -7 -7 -12.5t-21 -14.5q-22 -12 -34 -24t-12 -30q0 -10 4 -19l160 -433l142 429q3 11 3 19q0 20 -12 31.5t-37 27.5q-15 9 -21.5 14t-6.5 12q0 15 20 15l35 -2q28 -2 45 -2t45 2l44 2q22 0 22 -15
q0 -7 -6.5 -14t-20.5 -16q-23 -17 -37 -32t-23 -39l-201 -588h-47l-153 413l-149 -413h-47l-231 585q-10 25 -25 41zM460 792.5q-5 4.5 -5 10.5l-5 79q-2 25 15 34.5t46 9.5q46 0 46 -25q0 -11 -13 -31l-48 -69q-7 -13 -24 -13q-7 0 -12 4.5z" />
    <glyph glyph-name="Wcircumflex" unicode="&#x174;" horiz-adv-x="1007" 
d="M64 626q-15 16 -35 31q-15 12 -20.5 18t-5.5 14q0 15 23 15l42 -2q44 -2 72 -2h14q22 0 60 2q32 2 39 2q20 0 20 -15q0 -7 -7 -12.5t-21 -14.5q-22 -13 -34 -24t-12 -28q0 -8 5 -21l172 -433l116 323l-40 106q-9 24 -23.5 40t-34.5 32q-15 13 -20 18.5t-5 13.5
q0 15 22 15l40 -2q44 -2 70 -2h15q22 0 60 2q32 2 39 2q20 0 20 -15q0 -7 -7 -12.5t-21 -14.5q-22 -12 -34 -24t-12 -30q0 -10 4 -19l160 -433l142 429q3 11 3 19q0 20 -12 31.5t-37 27.5q-15 9 -21.5 14t-6.5 12q0 15 20 15l35 -2q28 -2 45 -2t45 2l44 2q22 0 22 -15
q0 -7 -6.5 -14t-20.5 -16q-23 -17 -37 -32t-23 -39l-201 -588h-47l-153 413l-149 -413h-47l-231 585q-10 25 -25 41zM407 801q0 5 2 8l56 94q14 23 39 23q11 0 21.5 -6t16.5 -17l57 -95q2 -2 2 -7t-3.5 -8t-10.5 -3q-9 0 -19 9l-65 55l-64 -58q-7 -6 -17 -6q-15 0 -15 11z
" />
    <glyph glyph-name="Wdieresis" unicode="&#x1e84;" horiz-adv-x="1007" 
d="M64 626q-15 16 -35 31q-15 12 -20.5 18t-5.5 14q0 15 23 15l42 -2q44 -2 72 -2h14q22 0 60 2q32 2 39 2q20 0 20 -15q0 -7 -7 -12.5t-21 -14.5q-22 -13 -34 -24t-12 -28q0 -8 5 -21l172 -433l116 323l-40 106q-9 24 -23.5 40t-34.5 32q-15 13 -20 18.5t-5 13.5
q0 15 22 15l40 -2q44 -2 70 -2h15q22 0 60 2q32 2 39 2q20 0 20 -15q0 -7 -7 -12.5t-21 -14.5q-22 -12 -34 -24t-12 -30q0 -10 4 -19l160 -433l142 429q3 11 3 19q0 20 -12 31.5t-37 27.5q-15 9 -21.5 14t-6.5 12q0 15 20 15l35 -2q28 -2 45 -2t45 2l44 2q22 0 22 -15
q0 -7 -6.5 -14t-20.5 -16q-23 -17 -37 -32t-23 -39l-201 -588h-47l-153 413l-149 -413h-47l-231 585q-10 25 -25 41zM387 816.5q-18 17.5 -18 41.5t18 42t43 18t43 -18t18 -42t-18 -41.5t-43 -17.5t-43 17.5zM533.5 900q17.5 18 42.5 18t43 -18t18 -42t-18 -41.5t-43 -17.5
t-42.5 17.5t-17.5 41.5t17.5 42z" />
    <glyph glyph-name="Wgrave" unicode="&#x1e80;" horiz-adv-x="1007" 
d="M64 626q-15 16 -35 31q-15 12 -20.5 18t-5.5 14q0 15 23 15l42 -2q44 -2 72 -2h14q22 0 60 2q32 2 39 2q20 0 20 -15q0 -7 -7 -12.5t-21 -14.5q-22 -13 -34 -24t-12 -28q0 -8 5 -21l172 -433l116 323l-40 106q-9 24 -23.5 40t-34.5 32q-15 13 -20 18.5t-5 13.5
q0 15 22 15l40 -2q44 -2 70 -2h15q22 0 60 2q32 2 39 2q20 0 20 -15q0 -7 -7 -12.5t-21 -14.5q-22 -12 -34 -24t-12 -30q0 -10 4 -19l160 -433l142 429q3 11 3 19q0 20 -12 31.5t-37 27.5q-15 9 -21.5 14t-6.5 12q0 15 20 15l35 -2q28 -2 45 -2t45 2l44 2q22 0 22 -15
q0 -7 -6.5 -14t-20.5 -16q-23 -17 -37 -32t-23 -39l-201 -588h-47l-153 413l-149 -413h-47l-231 585q-10 25 -25 41zM511 801l-47 69q-14 19 -14 31q0 25 46 25q29 0 46 -9.5t15 -34.5l-5 -79q0 -6 -4.5 -10.5t-12.5 -4.5q-17 0 -24 13z" />
    <glyph glyph-name="X" unicode="X" horiz-adv-x="677" 
d="M34 704l51 -2q56 -2 89 -2h24q16 0 44 2l28 2q14 0 14 -15q0 -7 -5.5 -12.5t-17.5 -14.5q-16 -12 -24.5 -22t-8.5 -23t10 -27l132 -197l122 191q9 15 9 27q0 15 -10.5 26t-29.5 24q-13 8 -20 14.5t-7 13.5q0 15 16 15l27 -2q22 -2 35 -2q15 0 35 1t30 2q42 2 53 2
q28 0 28 -16q0 -9 -9.5 -17.5t-28.5 -19.5q-27 -18 -44 -32t-30 -35l-148 -233l161 -237q23 -34 76 -66q20 -14 29 -21.5t9 -16.5q0 -15 -30 -15l-57 2q-58 2 -94 2h-18q-18 0 -46 -2q-24 -2 -30 -2q-15 0 -15 15q0 7 6 12.5t19 14.5q17 13 26 23t9 23q0 12 -10 26l-129 191
l-121 -186q-9 -15 -9 -26q0 -15 10.5 -26t29.5 -24q13 -8 20 -14.5t7 -13.5q0 -15 -16 -15l-26 2q-22 2 -35 2q-6 0 -69 -3l-56 -2q-14 0 -22 4t-8 12q0 9 9 16t32 21q27 16 47 31t33 36l146 227l-165 243q-23 33 -70 65q-19 14 -27.5 22t-8.5 17q0 15 29 15z" />
    <glyph glyph-name="Y" unicode="Y" horiz-adv-x="660" 
d="M261 -2l-36 -2q-19 0 -19 15q0 7 5.5 13t17.5 14q22 15 34 30.5t12 43.5v144l-184 329q-12 21 -25.5 35.5t-32.5 31.5q-15 13 -21.5 20.5t-6.5 16.5q0 15 23 15l42 -2q46 -2 72 -2h24q22 0 60 2q32 2 39 2q20 0 20 -15q0 -7 -7 -12.5t-22 -14.5q-21 -12 -33.5 -23.5
t-12.5 -26.5q0 -12 7 -23l149 -277l143 273q6 12 6 22q0 17 -13.5 29t-37.5 26q-15 9 -22.5 14.5t-7.5 12.5q0 15 20 15l40 -2q28 -2 44 -2q17 0 49 2l45 2q23 0 23 -15q0 -9 -6.5 -16t-22.5 -19q-42 -31 -60 -65l-175 -330v-144q0 -29 12.5 -46t34.5 -31q11 -8 16.5 -14
t5.5 -13q0 -15 -18 -15l-34 2q-36 2 -58 2h-33q-20 0 -56 -2z" />
    <glyph glyph-name="Yacute" unicode="&#xdd;" horiz-adv-x="660" 
d="M261 -2l-36 -2q-19 0 -19 15q0 7 5.5 13t17.5 14q22 15 34 30.5t12 43.5v144l-184 329q-12 21 -25.5 35.5t-32.5 31.5q-15 13 -21.5 20.5t-6.5 16.5q0 15 23 15l42 -2q46 -2 72 -2h24q22 0 60 2q32 2 39 2q20 0 20 -15q0 -7 -7 -12.5t-22 -14.5q-21 -12 -33.5 -23.5
t-12.5 -26.5q0 -12 7 -23l149 -277l143 273q6 12 6 22q0 17 -13.5 29t-37.5 26q-15 9 -22.5 14.5t-7.5 12.5q0 15 20 15l40 -2q28 -2 44 -2q17 0 49 2l45 2q23 0 23 -15q0 -9 -6.5 -16t-22.5 -19q-42 -31 -60 -65l-175 -330v-144q0 -29 12.5 -46t34.5 -31q11 -8 16.5 -14
t5.5 -13q0 -15 -18 -15l-34 2q-36 2 -58 2h-33q-20 0 -56 -2zM287 792.5q-5 4.5 -5 10.5l-5 79q-2 25 15 34.5t46 9.5q46 0 46 -25q0 -11 -13 -31l-48 -69q-7 -13 -24 -13q-7 0 -12 4.5z" />
    <glyph glyph-name="Ycircumflex" unicode="&#x176;" horiz-adv-x="660" 
d="M261 -2l-36 -2q-19 0 -19 15q0 7 5.5 13t17.5 14q22 15 34 30.5t12 43.5v144l-184 329q-12 21 -25.5 35.5t-32.5 31.5q-15 13 -21.5 20.5t-6.5 16.5q0 15 23 15l42 -2q46 -2 72 -2h24q22 0 60 2q32 2 39 2q20 0 20 -15q0 -7 -7 -12.5t-22 -14.5q-21 -12 -33.5 -23.5
t-12.5 -26.5q0 -12 7 -23l149 -277l143 273q6 12 6 22q0 17 -13.5 29t-37.5 26q-15 9 -22.5 14.5t-7.5 12.5q0 15 20 15l40 -2q28 -2 44 -2q17 0 49 2l45 2q23 0 23 -15q0 -9 -6.5 -16t-22.5 -19q-42 -31 -60 -65l-175 -330v-144q0 -29 12.5 -46t34.5 -31q11 -8 16.5 -14
t5.5 -13q0 -15 -18 -15l-34 2q-36 2 -58 2h-33q-20 0 -56 -2zM233 801q0 5 2 8l56 94q14 23 39 23q11 0 21.5 -6t16.5 -17l57 -95q2 -2 2 -7t-3.5 -8t-10.5 -3q-9 0 -19 9l-65 55l-64 -58q-7 -6 -17 -6q-15 0 -15 11z" />
    <glyph glyph-name="Ydieresis" unicode="&#x178;" horiz-adv-x="660" 
d="M261 -2l-36 -2q-19 0 -19 15q0 7 5.5 13t17.5 14q22 15 34 30.5t12 43.5v144l-184 329q-12 21 -25.5 35.5t-32.5 31.5q-15 13 -21.5 20.5t-6.5 16.5q0 15 23 15l42 -2q46 -2 72 -2h24q22 0 60 2q32 2 39 2q20 0 20 -15q0 -7 -7 -12.5t-22 -14.5q-21 -12 -33.5 -23.5
t-12.5 -26.5q0 -12 7 -23l149 -277l143 273q6 12 6 22q0 17 -13.5 29t-37.5 26q-15 9 -22.5 14.5t-7.5 12.5q0 15 20 15l40 -2q28 -2 44 -2q17 0 49 2l45 2q23 0 23 -15q0 -9 -6.5 -16t-22.5 -19q-42 -31 -60 -65l-175 -330v-144q0 -29 12.5 -46t34.5 -31q11 -8 16.5 -14
t5.5 -13q0 -15 -18 -15l-34 2q-36 2 -58 2h-33q-20 0 -56 -2zM214 816.5q-18 17.5 -18 41.5t18 42t43 18t43 -18t18 -42t-18 -41.5t-43 -17.5t-43 17.5zM360.5 900q17.5 18 42.5 18t43 -18t18 -42t-18 -41.5t-43 -17.5t-42.5 17.5t-17.5 41.5t17.5 42z" />
    <glyph glyph-name="Ygrave" unicode="&#x1ef2;" horiz-adv-x="660" 
d="M261 -2l-36 -2q-19 0 -19 15q0 7 5.5 13t17.5 14q22 15 34 30.5t12 43.5v144l-184 329q-12 21 -25.5 35.5t-32.5 31.5q-15 13 -21.5 20.5t-6.5 16.5q0 15 23 15l42 -2q46 -2 72 -2h24q22 0 60 2q32 2 39 2q20 0 20 -15q0 -7 -7 -12.5t-22 -14.5q-21 -12 -33.5 -23.5
t-12.5 -26.5q0 -12 7 -23l149 -277l143 273q6 12 6 22q0 17 -13.5 29t-37.5 26q-15 9 -22.5 14.5t-7.5 12.5q0 15 20 15l40 -2q28 -2 44 -2q17 0 49 2l45 2q23 0 23 -15q0 -9 -6.5 -16t-22.5 -19q-42 -31 -60 -65l-175 -330v-144q0 -29 12.5 -46t34.5 -31q11 -8 16.5 -14
t5.5 -13q0 -15 -18 -15l-34 2q-36 2 -58 2h-33q-20 0 -56 -2zM338 801l-47 69q-14 19 -14 31q0 25 46 25q29 0 46 -9.5t15 -34.5l-5 -79q0 -6 -4.5 -10.5t-12.5 -4.5q-17 0 -24 13z" />
    <glyph glyph-name="uni1EF8" unicode="&#x1ef8;" horiz-adv-x="660" 
d="M261 -2l-36 -2q-19 0 -19 15q0 7 5.5 13t17.5 14q22 15 34 30.5t12 43.5v144l-184 329q-12 21 -25.5 35.5t-32.5 31.5q-15 13 -21.5 20.5t-6.5 16.5q0 15 23 15l42 -2q46 -2 72 -2h24q22 0 60 2q32 2 39 2q20 0 20 -15q0 -7 -7 -12.5t-22 -14.5q-21 -12 -33.5 -23.5
t-12.5 -26.5q0 -12 7 -23l149 -277l143 273q6 12 6 22q0 17 -13.5 29t-37.5 26q-15 9 -22.5 14.5t-7.5 12.5q0 15 20 15l40 -2q28 -2 44 -2q17 0 49 2l45 2q23 0 23 -15q0 -9 -6.5 -16t-22.5 -19q-42 -31 -60 -65l-175 -330v-144q0 -29 12.5 -46t34.5 -31q11 -8 16.5 -14
t5.5 -13q0 -15 -18 -15l-34 2q-36 2 -58 2h-33q-20 0 -56 -2zM350.5 816q-13.5 7 -32.5 20q-13 10 -22.5 14.5t-18.5 4.5q-15 0 -25 -11.5t-10 -29.5q0 -5 -4 -8t-8 -3q-5 0 -9 4t-4 10q0 45 18 67.5t46 22.5q14 0 26 -5t30 -16q29 -19 46 -19q15 0 23.5 12.5t8.5 27.5
q0 7 3.5 11.5t8.5 4.5q6 0 10.5 -4.5t4.5 -14.5q0 -46 -16 -70.5t-45 -24.5q-17 0 -30.5 7z" />
    <glyph glyph-name="Z" unicode="Z" horiz-adv-x="533" 
d="M11 10l2 8q3 4 15 16.5t26 39.5l304 580h-173q-36 0 -60 -22.5t-49 -61.5q-15 -22 -23.5 -32t-17.5 -10q-5 0 -8 3t-3 8q0 11 10 53q13 56 13 81q0 15 6.5 21t22.5 6h434q5 0 8 -2.5t3 -6.5t-3 -9q-3 -4 -15 -16.5t-26 -38.5l-308 -580h199q34 0 57 22t51 62
q13 20 22.5 30.5t17.5 10.5q9 0 9 -13t-10 -57q-13 -52 -13 -73q0 -16 -5.5 -22.5t-17.5 -6.5h-458q-10 0 -10 10z" />
    <glyph glyph-name="Zacute" unicode="&#x179;" horiz-adv-x="533" 
d="M11 10l2 8q3 4 15 16.5t26 39.5l304 580h-173q-36 0 -60 -22.5t-49 -61.5q-15 -22 -23.5 -32t-17.5 -10q-5 0 -8 3t-3 8q0 11 10 53q13 56 13 81q0 15 6.5 21t22.5 6h434q5 0 8 -2.5t3 -6.5t-3 -9q-3 -4 -15 -16.5t-26 -38.5l-308 -580h199q34 0 57 22t51 62
q13 20 22.5 30.5t17.5 10.5q9 0 9 -13t-10 -57q-13 -52 -13 -73q0 -16 -5.5 -22.5t-17.5 -6.5h-458q-10 0 -10 10zM223 792.5q-5 4.5 -5 10.5l-5 79q-2 25 15 34.5t46 9.5q46 0 46 -25q0 -11 -13 -31l-48 -69q-7 -13 -24 -13q-7 0 -12 4.5z" />
    <glyph glyph-name="Zcaron" unicode="&#x17d;" horiz-adv-x="533" 
d="M11 10l2 8q3 4 15 16.5t26 39.5l304 580h-173q-36 0 -60 -22.5t-49 -61.5q-15 -22 -23.5 -32t-17.5 -10q-5 0 -8 3t-3 8q0 11 10 53q13 56 13 81q0 15 6.5 21t22.5 6h434q5 0 8 -2.5t3 -6.5t-3 -9q-3 -4 -15 -16.5t-26 -38.5l-308 -580h199q34 0 57 22t51 62
q13 20 22.5 30.5t17.5 10.5q9 0 9 -13t-10 -57q-13 -52 -13 -73q0 -16 -5.5 -22.5t-17.5 -6.5h-458q-10 0 -10 10zM228 813l-56 94q-2 3 -2 8q0 11 15 11q10 0 17 -6l64 -58l65 55q10 9 19 9t13 -6t-1 -12l-57 -95q-7 -11 -17 -17t-21 -6q-24 0 -39 23z" />
    <glyph glyph-name="Zdotaccent" unicode="&#x17b;" horiz-adv-x="533" 
d="M11 10l2 8q3 4 15 16.5t26 39.5l304 580h-173q-36 0 -60 -22.5t-49 -61.5q-15 -22 -23.5 -32t-17.5 -10q-5 0 -8 3t-3 8q0 11 10 53q13 56 13 81q0 15 6.5 21t22.5 6h434q5 0 8 -2.5t3 -6.5t-3 -9q-3 -4 -15 -16.5t-26 -38.5l-308 -580h199q34 0 57 22t51 62
q13 20 22.5 30.5t17.5 10.5q9 0 9 -13t-10 -57q-13 -52 -13 -73q0 -16 -5.5 -22.5t-17.5 -6.5h-458q-10 0 -10 10zM217.5 810.5q-20.5 20.5 -20.5 47.5q0 28 20.5 48t49.5 20q28 0 48.5 -20t20.5 -48q0 -27 -20.5 -47.5t-48.5 -20.5q-29 0 -49.5 20.5z" />
    <glyph glyph-name="uni013B.loclMAH" horiz-adv-x="544" 
d="M58 -2l-33 -2q-19 0 -19 15q0 7 5.5 13t16.5 14q22 14 34.5 31t12.5 46v473q0 28 -12 43.5t-34 30.5q-12 8 -17.5 14t-5.5 13q0 15 19 15q7 0 35 -2q36 -2 56 -2h34q22 0 58 2l33 2q19 0 19 -15q0 -7 -5.5 -13t-16.5 -14q-22 -14 -34.5 -31t-12.5 -46v-538h200
q34 0 57.5 22t51.5 62q13 20 22.5 30.5t17.5 10.5q4 0 6.5 -3.5t2.5 -8.5q0 -17 -11 -59q-1 -4 -7 -30t-6 -47q0 -14 -5.5 -19t-17.5 -5h-386q-22 0 -58 -2zM211 -360q-2 2 -1 5t4 4q37 23 56 49.5t19 51.5q0 17 -10 26t-25 10q-25 3 -41 21t-16 42q0 28 20 47t52 19
q34 0 57 -24t23 -72q0 -65 -36 -112t-93 -71q-6 -3 -9 4z" />
    <glyph glyph-name="uni0145.loclMAH" horiz-adv-x="608" 
d="M443.5 12.5q-19.5 12.5 -37.5 40.5l-285 491v-429q0 -29 12.5 -46t34.5 -31q11 -8 16.5 -14t5.5 -13q0 -15 -19 -15l-33 2q-24 2 -40 2q-15 0 -39 -2l-34 -2q-19 0 -19 15q0 7 5.5 13t17.5 14q22 15 34 30.5t12 43.5v473q0 29 -12.5 46t-34.5 31q-11 8 -16.5 14t-5.5 13
q0 15 19 15l33 -2q36 -2 58 -2h16q16 0 25.5 -5.5t17.5 -17.5l312 -535v443q0 29 -12.5 46t-34.5 31q-11 8 -16.5 14t-5.5 13q0 15 19 15l33 -2q24 -2 40 -2q15 0 39 2l34 2q19 0 19 -15q0 -7 -5.5 -13t-17.5 -14q-22 -15 -34 -30.5t-12 -43.5v-588h-30q-40 0 -59.5 12.5z
M242 -360q-2 2 -1 5t4 4q37 23 56 49.5t19 51.5q0 17 -10 26t-25 10q-25 3 -41 21t-16 42q0 28 20 47t52 19q34 0 57 -24t23 -72q0 -65 -36 -112t-93 -71q-6 -3 -9 4z" />
    <glyph glyph-name="T_h" horiz-adv-x="865" 
d="M187 -2q-28 -2 -35 -2q-19 0 -19 15q0 7 5.5 13t17.5 14q22 15 34 30.5t12 43.5v542h-55q-34 0 -56 -22t-46 -61q-13 -22 -21.5 -32.5t-18.5 -10.5q-4 0 -7 3t-3 8q0 16 9 52q13 56 13 82q0 15 6.5 21t22.5 6h395q38 0 78 11q17 5 28 5q14 0 14 -21v-278h2q14 37 47 68
t83 31q112 0 112 -118v-307q0 -21 8 -32t23 -23q18 -13 18 -25q0 -15 -17 -15q-9 0 -29 2q-28 2 -52 2h-8q-23 0 -51 -2q-20 -2 -29 -2q-17 0 -17 15q0 12 18 25q15 12 22.5 23t7.5 32v300q0 39 -13 54t-37 15q-29 0 -53 -29.5t-35 -78.5v-261q0 -21 7.5 -32t22.5 -23
q18 -13 18 -25q0 -15 -17 -15q-9 0 -29 2q-28 2 -52 2h-7q-24 0 -52 -2q-20 -2 -29 -2q-17 0 -17 15q0 12 18 25q15 12 23 23t8 32v493q0 42 -17.5 56t-65.5 14h-54v-539q0 -29 12.5 -46t34.5 -31q11 -8 16.5 -14t5.5 -13q0 -15 -18 -15l-35 2q-36 2 -57 2h-34q-20 0 -56 -2
z" />
    <glyph glyph-name="a" unicode="a" horiz-adv-x="448" 
d="M46.5 15.5q-37.5 31.5 -37.5 90.5q0 54 36.5 95.5t101.5 65.5t148 26v64q0 124 -75 124q-29 0 -45.5 -17t-32.5 -49q-15 -28 -26.5 -41t-31.5 -13q-19 0 -31 12t-12 30q0 49 48.5 81t123.5 32q90 0 139 -46t49 -140v-206q0 -42 7.5 -61.5t18.5 -31.5t11 -19t-7 -9t-28 -5
l-49 -8q-28 -6 -45 -6q-8 0 -11 4.5t-3 16.5v49q-22 -29 -60 -49.5t-91 -20.5q-60 0 -97.5 31.5zM196 40q33 0 58.5 17.5t40.5 45.5v159q-81 -4 -131 -43t-50 -99q0 -80 82 -80z" />
    <glyph glyph-name="aacute" unicode="&#xe1;" horiz-adv-x="448" 
d="M46.5 15.5q-37.5 31.5 -37.5 90.5q0 54 36.5 95.5t101.5 65.5t148 26v64q0 124 -75 124q-29 0 -45.5 -17t-32.5 -49q-15 -28 -26.5 -41t-31.5 -13q-19 0 -31 12t-12 30q0 49 48.5 81t123.5 32q90 0 139 -46t49 -140v-206q0 -42 7.5 -61.5t18.5 -31.5t11 -19t-7 -9t-28 -5
l-49 -8q-28 -6 -45 -6q-8 0 -11 4.5t-3 16.5v49q-22 -29 -60 -49.5t-91 -20.5q-60 0 -97.5 31.5zM196 40q33 0 58.5 17.5t40.5 45.5v159q-81 -4 -131 -43t-50 -99q0 -80 82 -80zM180 592.5q-5 4.5 -5 10.5l-5 79q-2 25 15 34.5t46 9.5q46 0 46 -25q0 -11 -13 -31l-48 -69
q-7 -13 -24 -13q-7 0 -12 4.5z" />
    <glyph glyph-name="abreve" unicode="&#x103;" horiz-adv-x="448" 
d="M46.5 15.5q-37.5 31.5 -37.5 90.5q0 54 36.5 95.5t101.5 65.5t148 26v64q0 124 -75 124q-29 0 -45.5 -17t-32.5 -49q-15 -28 -26.5 -41t-31.5 -13q-19 0 -31 12t-12 30q0 49 48.5 81t123.5 32q90 0 139 -46t49 -140v-206q0 -42 7.5 -61.5t18.5 -31.5t11 -19t-7 -9t-28 -5
l-49 -8q-28 -6 -45 -6q-8 0 -11 4.5t-3 16.5v49q-22 -29 -60 -49.5t-91 -20.5q-60 0 -97.5 31.5zM196 40q33 0 58.5 17.5t40.5 45.5v159q-81 -4 -131 -43t-50 -99q0 -80 82 -80zM153.5 625.5q-26.5 35.5 -33.5 82.5v3q0 6 3.5 10t7.5 5q7 0 11 -8q31 -68 81 -68q26 0 47 18
t35 51q4 8 11 8q5 0 9 -5t3 -12q-11 -53 -36.5 -86.5t-68.5 -33.5t-69.5 35.5z" />
    <glyph glyph-name="uni01CE" unicode="&#x1ce;" horiz-adv-x="448" 
d="M46.5 15.5q-37.5 31.5 -37.5 90.5q0 54 36.5 95.5t101.5 65.5t148 26v64q0 124 -75 124q-29 0 -45.5 -17t-32.5 -49q-15 -28 -26.5 -41t-31.5 -13q-19 0 -31 12t-12 30q0 49 48.5 81t123.5 32q90 0 139 -46t49 -140v-206q0 -42 7.5 -61.5t18.5 -31.5t11 -19t-7 -9t-28 -5
l-49 -8q-28 -6 -45 -6q-8 0 -11 4.5t-3 16.5v49q-22 -29 -60 -49.5t-91 -20.5q-60 0 -97.5 31.5zM196 40q33 0 58.5 17.5t40.5 45.5v159q-81 -4 -131 -43t-50 -99q0 -80 82 -80zM185 613l-56 94q-2 3 -2 8q0 11 15 11q10 0 17 -6l64 -58l65 55q10 9 19 9t13 -6t-1 -12
l-57 -95q-7 -11 -17 -17t-21 -6q-24 0 -39 23z" />
    <glyph glyph-name="acircumflex" unicode="&#xe2;" horiz-adv-x="448" 
d="M46.5 15.5q-37.5 31.5 -37.5 90.5q0 54 36.5 95.5t101.5 65.5t148 26v64q0 124 -75 124q-29 0 -45.5 -17t-32.5 -49q-15 -28 -26.5 -41t-31.5 -13q-19 0 -31 12t-12 30q0 49 48.5 81t123.5 32q90 0 139 -46t49 -140v-206q0 -42 7.5 -61.5t18.5 -31.5t11 -19t-7 -9t-28 -5
l-49 -8q-28 -6 -45 -6q-8 0 -11 4.5t-3 16.5v49q-22 -29 -60 -49.5t-91 -20.5q-60 0 -97.5 31.5zM196 40q33 0 58.5 17.5t40.5 45.5v159q-81 -4 -131 -43t-50 -99q0 -80 82 -80zM127 601q0 5 2 8l56 94q14 23 39 23q11 0 21.5 -6t16.5 -17l57 -95q2 -2 2 -7t-3.5 -8
t-10.5 -3q-9 0 -19 9l-65 55l-64 -58q-7 -6 -17 -6q-15 0 -15 11z" />
    <glyph glyph-name="adieresis" unicode="&#xe4;" horiz-adv-x="448" 
d="M46.5 15.5q-37.5 31.5 -37.5 90.5q0 54 36.5 95.5t101.5 65.5t148 26v64q0 124 -75 124q-29 0 -45.5 -17t-32.5 -49q-15 -28 -26.5 -41t-31.5 -13q-19 0 -31 12t-12 30q0 49 48.5 81t123.5 32q90 0 139 -46t49 -140v-206q0 -42 7.5 -61.5t18.5 -31.5t11 -19t-7 -9t-28 -5
l-49 -8q-28 -6 -45 -6q-8 0 -11 4.5t-3 16.5v49q-22 -29 -60 -49.5t-91 -20.5q-60 0 -97.5 31.5zM196 40q33 0 58.5 17.5t40.5 45.5v159q-81 -4 -131 -43t-50 -99q0 -80 82 -80zM107 616.5q-18 17.5 -18 41.5t18 42t43 18t43 -18t18 -42t-18 -41.5t-43 -17.5t-43 17.5z
M253.5 700q17.5 18 42.5 18t43 -18t18 -42t-18 -41.5t-43 -17.5t-42.5 17.5t-17.5 41.5t17.5 42z" />
    <glyph glyph-name="agrave" unicode="&#xe0;" horiz-adv-x="448" 
d="M46.5 15.5q-37.5 31.5 -37.5 90.5q0 54 36.5 95.5t101.5 65.5t148 26v64q0 124 -75 124q-29 0 -45.5 -17t-32.5 -49q-15 -28 -26.5 -41t-31.5 -13q-19 0 -31 12t-12 30q0 49 48.5 81t123.5 32q90 0 139 -46t49 -140v-206q0 -42 7.5 -61.5t18.5 -31.5t11 -19t-7 -9t-28 -5
l-49 -8q-28 -6 -45 -6q-8 0 -11 4.5t-3 16.5v49q-22 -29 -60 -49.5t-91 -20.5q-60 0 -97.5 31.5zM196 40q33 0 58.5 17.5t40.5 45.5v159q-81 -4 -131 -43t-50 -99q0 -80 82 -80zM231 601l-47 69q-14 19 -14 31q0 25 46 25q29 0 46 -9.5t15 -34.5l-5 -79q0 -6 -4.5 -10.5
t-12.5 -4.5q-17 0 -24 13z" />
    <glyph glyph-name="amacron" unicode="&#x101;" horiz-adv-x="448" 
d="M46.5 15.5q-37.5 31.5 -37.5 90.5q0 54 36.5 95.5t101.5 65.5t148 26v64q0 124 -75 124q-29 0 -45.5 -17t-32.5 -49q-15 -28 -26.5 -41t-31.5 -13q-19 0 -31 12t-12 30q0 49 48.5 81t123.5 32q90 0 139 -46t49 -140v-206q0 -42 7.5 -61.5t18.5 -31.5t11 -19t-7 -9t-28 -5
l-49 -8q-28 -6 -45 -6q-8 0 -11 4.5t-3 16.5v49q-22 -29 -60 -49.5t-91 -20.5q-60 0 -97.5 31.5zM196 40q33 0 58.5 17.5t40.5 45.5v159q-81 -4 -131 -43t-50 -99q0 -80 82 -80zM132 687h183v-50h-183v50z" />
    <glyph glyph-name="aogonek" unicode="&#x105;" horiz-adv-x="448" 
d="M46.5 15.5q-37.5 31.5 -37.5 90.5q0 54 36.5 95.5t101.5 65.5t148 26v64q0 124 -75 124q-29 0 -45.5 -17t-32.5 -49q-15 -28 -26.5 -41t-31.5 -13q-19 0 -31 12t-12 30q0 49 48.5 81t123.5 32q90 0 139 -46t49 -140v-206q0 -42 7.5 -61.5t18.5 -31.5t11 -19t-7 -9t-28 -5
q-24 -17 -44 -42t-20 -46q0 -11 8.5 -18t24.5 -7q6 0 10 -4t4 -10q0 -13 -15 -24.5t-41 -11.5q-27 0 -41 14.5t-14 35.5q0 33 23 59.5t57 45.5q-8 -1 -22.5 -3.5t-23.5 -2.5q-8 0 -11 4.5t-3 16.5v49q-22 -29 -60 -49.5t-91 -20.5q-60 0 -97.5 31.5zM196 40q33 0 58.5 17.5
t40.5 45.5v159q-81 -4 -131 -43t-50 -99q0 -80 82 -80z" />
    <glyph glyph-name="aring" unicode="&#xe5;" horiz-adv-x="448" 
d="M46.5 15.5q-37.5 31.5 -37.5 90.5q0 54 36.5 95.5t101.5 65.5t148 26v64q0 124 -75 124q-29 0 -45.5 -17t-32.5 -49q-15 -28 -26.5 -41t-31.5 -13q-19 0 -31 12t-12 30q0 49 48.5 81t123.5 32q90 0 139 -46t49 -140v-206q0 -42 7.5 -61.5t18.5 -31.5t11 -19t-7 -9t-28 -5
l-49 -8q-28 -6 -45 -6q-8 0 -11 4.5t-3 16.5v49q-22 -29 -60 -49.5t-91 -20.5q-60 0 -97.5 31.5zM196 40q33 0 58.5 17.5t40.5 45.5v159q-81 -4 -131 -43t-50 -99q0 -80 82 -80zM164.5 610q-23.5 20 -23.5 49q0 28 24 47.5t60 19.5q34 0 57 -19t23 -48t-23.5 -49t-58.5 -20
t-58.5 20zM198 636.5q10 -8.5 25 -8.5q16 0 26 8.5t10 22.5q0 13 -10.5 21.5t-24.5 8.5q-16 0 -26 -8.5t-10 -21.5q0 -14 10 -22.5z" />
    <glyph glyph-name="atilde" unicode="&#xe3;" horiz-adv-x="448" 
d="M46.5 15.5q-37.5 31.5 -37.5 90.5q0 54 36.5 95.5t101.5 65.5t148 26v64q0 124 -75 124q-29 0 -45.5 -17t-32.5 -49q-15 -28 -26.5 -41t-31.5 -13q-19 0 -31 12t-12 30q0 49 48.5 81t123.5 32q90 0 139 -46t49 -140v-206q0 -42 7.5 -61.5t18.5 -31.5t11 -19t-7 -9t-28 -5
l-49 -8q-28 -6 -45 -6q-8 0 -11 4.5t-3 16.5v49q-22 -29 -60 -49.5t-91 -20.5q-60 0 -97.5 31.5zM196 40q33 0 58.5 17.5t40.5 45.5v159q-81 -4 -131 -43t-50 -99q0 -80 82 -80zM244.5 616q-13.5 7 -32.5 20q-13 10 -22.5 14.5t-18.5 4.5q-15 0 -25 -11.5t-10 -29.5
q0 -5 -4 -8t-8 -3q-5 0 -9 4t-4 10q0 45 18 67.5t46 22.5q14 0 26 -5t30 -16q29 -19 46 -19q15 0 23.5 12.5t8.5 27.5q0 7 3.5 11.5t8.5 4.5q6 0 10.5 -4.5t4.5 -14.5q0 -46 -16 -70.5t-45 -24.5q-17 0 -30.5 7z" />
    <glyph glyph-name="ae" unicode="&#xe6;" horiz-adv-x="748" 
d="M433.5 7.5q-51.5 23.5 -85.5 70.5h-11q-31 -45 -80.5 -69.5t-112.5 -24.5q-60 0 -97.5 31.5t-37.5 90.5q0 54 36.5 95.5t101.5 65.5t148 26v64q0 124 -75 124q-29 0 -45.5 -17t-32.5 -49q-15 -28 -26.5 -41t-31.5 -13q-19 0 -31 12t-12 30q0 49 48.5 81t123.5 32
q112 0 159 -66q34 33 79.5 49.5t95.5 16.5q54 0 97 -20t68 -55t25 -80q0 -59 -39.5 -88t-122.5 -29h-161q4 -102 48.5 -154t112.5 -52q45 0 78 16t55 41q13 9 17 9q7 0 7 -6t-6 -14q-61 -100 -183 -100q-58 0 -109.5 23.5zM196 40q34 0 60 16t39 46v160q-81 -4 -131 -43
t-50 -99q0 -80 82 -80zM537 276q96 0 96 86q0 47 -24 75.5t-64 28.5q-57 0 -92.5 -45.5t-38.5 -144.5h123z" />
    <glyph glyph-name="b" unicode="b" horiz-adv-x="479" 
d="M41 13q0 3 5.5 16.5t5.5 37.5v516q0 30 -7.5 45t-18.5 25t-11 16q0 14 35 19q18 1 32 5.5t32 12.5q22 9 30 9t11 -4.5t3 -15.5v-218h3q20 20 43.5 29.5t53.5 9.5q46 0 92 -27.5t77 -86t31 -146.5q0 -92 -26.5 -153t-71 -90t-99.5 -29q-32 0 -60.5 11.5t-47.5 34.5h-3
q-8 -12 -20.5 -21t-23.5 -9h-48q-17 0 -17 13zM188.5 50.5q22.5 -20.5 54.5 -20.5q45 0 72 56t27 173q0 104 -31 157t-79 53q-27 0 -46.5 -12.5t-27.5 -34.5v-321q8 -30 30.5 -50.5z" />
    <glyph glyph-name="c" unicode="c" horiz-adv-x="468" 
d="M143 13.5q-55 29.5 -89 89t-34 145.5q0 88 35.5 148.5t93 90t122.5 29.5q56 0 98.5 -17t65 -45t22.5 -59q0 -20 -12 -33.5t-31 -13.5q-23 0 -36.5 13.5t-26.5 40.5q-16 32 -33 48.5t-50 16.5q-60 0 -97 -51.5t-37 -152.5q0 -112 47.5 -169t125.5 -57q37 0 69.5 17
t52.5 41q6 5 11.5 7.5t8.5 0.5q3 -3 3 -6q0 -5 -6 -13q-61 -100 -183 -100q-65 0 -120 29.5z" />
    <glyph glyph-name="cacute" unicode="&#x107;" horiz-adv-x="468" 
d="M143 13.5q-55 29.5 -89 89t-34 145.5q0 88 35.5 148.5t93 90t122.5 29.5q56 0 98.5 -17t65 -45t22.5 -59q0 -20 -12 -33.5t-31 -13.5q-23 0 -36.5 13.5t-26.5 40.5q-16 32 -33 48.5t-50 16.5q-60 0 -97 -51.5t-37 -152.5q0 -112 47.5 -169t125.5 -57q37 0 69.5 17
t52.5 41q6 5 11.5 7.5t8.5 0.5q3 -3 3 -6q0 -5 -6 -13q-61 -100 -183 -100q-65 0 -120 29.5zM207 592.5q-5 4.5 -5 10.5l-5 79q-2 25 15 34.5t46 9.5q46 0 46 -25q0 -11 -13 -31l-48 -69q-7 -13 -24 -13q-7 0 -12 4.5z" />
    <glyph glyph-name="ccaron" unicode="&#x10d;" horiz-adv-x="468" 
d="M143 13.5q-55 29.5 -89 89t-34 145.5q0 88 35.5 148.5t93 90t122.5 29.5q56 0 98.5 -17t65 -45t22.5 -59q0 -20 -12 -33.5t-31 -13.5q-23 0 -36.5 13.5t-26.5 40.5q-16 32 -33 48.5t-50 16.5q-60 0 -97 -51.5t-37 -152.5q0 -112 47.5 -169t125.5 -57q37 0 69.5 17
t52.5 41q6 5 11.5 7.5t8.5 0.5q3 -3 3 -6q0 -5 -6 -13q-61 -100 -183 -100q-65 0 -120 29.5zM211 613l-56 94q-2 3 -2 8q0 11 15 11q10 0 17 -6l64 -58l65 55q10 9 19 9t13 -6t-1 -12l-57 -95q-7 -11 -17 -17t-21 -6q-24 0 -39 23z" />
    <glyph glyph-name="ccedilla" unicode="&#xe7;" horiz-adv-x="468" 
d="M246 -15l-9 -30l1 -2q6 5 16 8.5t20 3.5q24 0 40.5 -18t16.5 -46q0 -32 -21.5 -53t-55.5 -21q-20 0 -38.5 10t-28.5 25q-4 4 -4 8t4 5t8 -3q17 -20 42 -20q18 0 29.5 10t11.5 26t-11 26t-28 10q-9 0 -19.5 -4.5t-13.5 -4.5q-8 0 -8 9q0 5 3 14l17 50q-86 15 -142 81.5
t-56 178.5q0 88 35.5 148.5t93 90t122.5 29.5q56 0 98.5 -17t65 -45t22.5 -59q0 -20 -12 -33.5t-31 -13.5q-23 0 -36.5 13.5t-26.5 40.5q-16 32 -33 48.5t-50 16.5q-60 0 -97 -51.5t-37 -152.5q0 -112 47.5 -169t125.5 -57q37 0 69.5 17t52.5 41q6 5 11.5 7.5t8.5 0.5
q3 -3 3 -6q0 -5 -6 -13q-61 -100 -183 -100q-12 0 -17 1z" />
    <glyph glyph-name="ccircumflex" unicode="&#x109;" horiz-adv-x="468" 
d="M143 13.5q-55 29.5 -89 89t-34 145.5q0 88 35.5 148.5t93 90t122.5 29.5q56 0 98.5 -17t65 -45t22.5 -59q0 -20 -12 -33.5t-31 -13.5q-23 0 -36.5 13.5t-26.5 40.5q-16 32 -33 48.5t-50 16.5q-60 0 -97 -51.5t-37 -152.5q0 -112 47.5 -169t125.5 -57q37 0 69.5 17
t52.5 41q6 5 11.5 7.5t8.5 0.5q3 -3 3 -6q0 -5 -6 -13q-61 -100 -183 -100q-65 0 -120 29.5zM153 601q0 5 2 8l56 94q14 23 39 23q11 0 21.5 -6t16.5 -17l57 -95q2 -2 2 -7t-3.5 -8t-10.5 -3q-9 0 -19 9l-65 55l-64 -58q-7 -6 -17 -6q-15 0 -15 11z" />
    <glyph glyph-name="cdotaccent" unicode="&#x10b;" horiz-adv-x="468" 
d="M143 13.5q-55 29.5 -89 89t-34 145.5q0 88 35.5 148.5t93 90t122.5 29.5q56 0 98.5 -17t65 -45t22.5 -59q0 -20 -12 -33.5t-31 -13.5q-23 0 -36.5 13.5t-26.5 40.5q-16 32 -33 48.5t-50 16.5q-60 0 -97 -51.5t-37 -152.5q0 -112 47.5 -169t125.5 -57q37 0 69.5 17
t52.5 41q6 5 11.5 7.5t8.5 0.5q3 -3 3 -6q0 -5 -6 -13q-61 -100 -183 -100q-65 0 -120 29.5zM200.5 610.5q-20.5 20.5 -20.5 47.5q0 28 20.5 48t49.5 20q28 0 48.5 -20t20.5 -48q0 -27 -20.5 -47.5t-48.5 -20.5q-29 0 -49.5 20.5z" />
    <glyph glyph-name="d" unicode="d" horiz-adv-x="473" 
d="M324 -11.5q-3 4.5 -3 16.5v34h-5q-11 -21 -40.5 -38t-64.5 -17q-48 0 -91.5 26.5t-71.5 84t-28 145.5q0 99 30.5 160.5t75.5 88.5t89 27q33 0 56.5 -9t44.5 -30h5v106q0 30 -7.5 45t-18.5 25t-11 16q0 14 35 19q18 1 32 5.5t32 12.5q22 9 30 9t11 -4.5t3 -15.5v-571
q0 -42 7.5 -61.5t18 -31.5t10.5 -19t-7.5 -10.5t-26.5 -5.5q-10 -1 -49 -7q-32 -5 -45 -5q-8 0 -11 4.5zM163.5 82.5q27.5 -52.5 73.5 -52.5q32 0 54.5 32.5t29.5 85.5v259h-1q-8 29 -27 46t-45 17q-51 0 -81.5 -54t-30.5 -175q0 -106 27.5 -158.5z" />
    <glyph glyph-name="eth" unicode="&#xf0;" horiz-adv-x="549" 
d="M143.5 15.5q-55.5 31.5 -89.5 93t-34 147.5q0 80 35.5 139t91.5 90t117 31q58 0 107.5 -33t71.5 -87q-4 54 -20 102.5t-40 85.5l-88 -21l-12 44l67 15q-49 44 -104 44q-13 0 -21 6t-8 18q0 14 8 20.5t22 6.5q52 0 97 -19.5t80 -54.5l45 13l12 -44l-22 -6
q37 -51 56.5 -119.5t19.5 -143.5q0 -101 -32.5 -182.5t-93.5 -129t-145 -47.5q-65 0 -120.5 31.5zM170.5 89q34.5 -57 95.5 -57t96 58.5t35 176.5q0 61 -17.5 106.5t-47.5 70t-66 24.5q-37 0 -66.5 -24.5t-46.5 -72t-17 -112.5q0 -113 34.5 -170z" />
    <glyph glyph-name="dcaron" unicode="&#x10f;" horiz-adv-x="473" 
d="M324 -11.5q-3 4.5 -3 16.5v34h-5q-11 -21 -40.5 -38t-64.5 -17q-48 0 -91.5 26.5t-71.5 84t-28 145.5q0 99 30.5 160.5t75.5 88.5t89 27q33 0 56.5 -9t44.5 -30h5v106q0 30 -7.5 45t-18.5 25t-11 16q0 14 35 19q18 1 32 5.5t32 12.5q22 9 30 9t11 -4.5t3 -15.5v-571
q0 -42 7.5 -61.5t18 -31.5t10.5 -19t-7.5 -10.5t-26.5 -5.5q-10 -1 -49 -7q-32 -5 -45 -5q-8 0 -11 4.5zM163.5 82.5q27.5 -52.5 73.5 -52.5q32 0 54.5 32.5t29.5 85.5v259h-1q-8 29 -27 46t-45 17q-51 0 -81.5 -54t-30.5 -175q0 -106 27.5 -158.5zM476 666.5
q-5 4.5 -5 10.5l-5 79q-4 44 61 44q46 0 46 -25q0 -11 -13 -31l-48 -69q-7 -13 -24 -13q-7 0 -12 4.5z" />
    <glyph glyph-name="dcroat" unicode="&#x111;" horiz-adv-x="473" 
d="M324 -11.5q-3 4.5 -3 16.5v34h-5q-11 -21 -40.5 -38t-64.5 -17q-48 0 -91.5 26.5t-71.5 84t-28 145.5q0 99 30.5 160.5t75.5 88.5t89 27q33 0 56.5 -9t44.5 -30h5v85h-145v46h143q-3 18 -9 27.5t-16 18.5t-10 15q0 14 35 19q18 1 32 5.5t32 12.5q22 9 30 9t11 -4.5
t3 -15.5v-87h35v-46h-35v-438q0 -42 7.5 -61.5t18 -31.5t10.5 -19t-7.5 -10.5t-26.5 -5.5q-10 -1 -49 -7q-32 -5 -45 -5q-8 0 -11 4.5zM163.5 82.5q27.5 -52.5 73.5 -52.5q32 0 54.5 32.5t29.5 85.5v259h-1q-8 29 -27 46t-45 17q-51 0 -81.5 -54t-30.5 -175
q0 -106 27.5 -158.5z" />
    <glyph glyph-name="e" unicode="e" horiz-adv-x="469" 
d="M143.5 13.5q-55.5 29.5 -89.5 89t-34 145.5q0 91 34.5 151t90.5 88.5t122 28.5q54 0 97.5 -20t68.5 -55t25 -80q0 -59 -39.5 -88t-122.5 -29h-161q4 -102 48 -154t112 -52q85 0 134 57q11 9 17 9t6 -7q0 -5 -5 -13q-62 -100 -183 -100q-65 0 -120.5 29.5zM258 276
q96 0 96 86q0 47 -24.5 75.5t-64.5 28.5q-57 0 -92 -45.5t-38 -144.5h123z" />
    <glyph glyph-name="eacute" unicode="&#xe9;" horiz-adv-x="469" 
d="M143.5 13.5q-55.5 29.5 -89.5 89t-34 145.5q0 91 34.5 151t90.5 88.5t122 28.5q54 0 97.5 -20t68.5 -55t25 -80q0 -59 -39.5 -88t-122.5 -29h-161q4 -102 48 -154t112 -52q85 0 134 57q11 9 17 9t6 -7q0 -5 -5 -13q-62 -100 -183 -100q-65 0 -120.5 29.5zM258 276
q96 0 96 86q0 47 -24.5 75.5t-64.5 28.5q-57 0 -92 -45.5t-38 -144.5h123zM192 592.5q-5 4.5 -5 10.5l-5 79q-2 25 15 34.5t46 9.5q46 0 46 -25q0 -11 -13 -31l-48 -69q-7 -13 -24 -13q-7 0 -12 4.5z" />
    <glyph glyph-name="ecaron" unicode="&#x11b;" horiz-adv-x="469" 
d="M143.5 13.5q-55.5 29.5 -89.5 89t-34 145.5q0 91 34.5 151t90.5 88.5t122 28.5q54 0 97.5 -20t68.5 -55t25 -80q0 -59 -39.5 -88t-122.5 -29h-161q4 -102 48 -154t112 -52q85 0 134 57q11 9 17 9t6 -7q0 -5 -5 -13q-62 -100 -183 -100q-65 0 -120.5 29.5zM258 276
q96 0 96 86q0 47 -24.5 75.5t-64.5 28.5q-57 0 -92 -45.5t-38 -144.5h123zM196 613l-56 94q-2 3 -2 8q0 11 15 11q10 0 17 -6l64 -58l65 55q10 9 19 9t13 -6t-1 -12l-57 -95q-7 -11 -17 -17t-21 -6q-24 0 -39 23z" />
    <glyph glyph-name="uni0229" unicode="&#x229;" horiz-adv-x="469" 
d="M246 -15l-9 -30l1 -2q6 5 16 8.5t20 3.5q24 0 40.5 -18t16.5 -46q0 -32 -21.5 -53t-55.5 -21q-20 0 -38.5 10t-28.5 25q-4 4 -4 8t4 5t8 -3q17 -20 42 -20q18 0 29.5 10t11.5 26t-11 26t-28 10q-9 0 -19.5 -4.5t-13.5 -4.5q-8 0 -8 9q0 5 3 14l17 50q-86 15 -142 81.5
t-56 178.5q0 91 34.5 151t90.5 88.5t122 28.5q54 0 97.5 -20t68.5 -55t25 -80q0 -59 -39.5 -88t-122.5 -29h-161q4 -102 48 -154t112 -52q85 0 134 57q11 9 17 9t6 -7q0 -5 -5 -13q-62 -100 -183 -100q-12 0 -18 1zM258 276q96 0 96 86q0 47 -24.5 75.5t-64.5 28.5
q-57 0 -92 -45.5t-38 -144.5h123z" />
    <glyph glyph-name="ecircumflex" unicode="&#xea;" horiz-adv-x="469" 
d="M143.5 13.5q-55.5 29.5 -89.5 89t-34 145.5q0 91 34.5 151t90.5 88.5t122 28.5q54 0 97.5 -20t68.5 -55t25 -80q0 -59 -39.5 -88t-122.5 -29h-161q4 -102 48 -154t112 -52q85 0 134 57q11 9 17 9t6 -7q0 -5 -5 -13q-62 -100 -183 -100q-65 0 -120.5 29.5zM258 276
q96 0 96 86q0 47 -24.5 75.5t-64.5 28.5q-57 0 -92 -45.5t-38 -144.5h123zM138 601q0 5 2 8l56 94q14 23 39 23q11 0 21.5 -6t16.5 -17l57 -95q2 -2 2 -7t-3.5 -8t-10.5 -3q-9 0 -19 9l-65 55l-64 -58q-7 -6 -17 -6q-15 0 -15 11z" />
    <glyph glyph-name="edieresis" unicode="&#xeb;" horiz-adv-x="469" 
d="M143.5 13.5q-55.5 29.5 -89.5 89t-34 145.5q0 91 34.5 151t90.5 88.5t122 28.5q54 0 97.5 -20t68.5 -55t25 -80q0 -59 -39.5 -88t-122.5 -29h-161q4 -102 48 -154t112 -52q85 0 134 57q11 9 17 9t6 -7q0 -5 -5 -13q-62 -100 -183 -100q-65 0 -120.5 29.5zM258 276
q96 0 96 86q0 47 -24.5 75.5t-64.5 28.5q-57 0 -92 -45.5t-38 -144.5h123zM118 616.5q-18 17.5 -18 41.5t18 42t43 18t43 -18t18 -42t-18 -41.5t-43 -17.5t-43 17.5zM264.5 700q17.5 18 42.5 18t43 -18t18 -42t-18 -41.5t-43 -17.5t-42.5 17.5t-17.5 41.5t17.5 42z" />
    <glyph glyph-name="edotaccent" unicode="&#x117;" horiz-adv-x="469" 
d="M143.5 13.5q-55.5 29.5 -89.5 89t-34 145.5q0 91 34.5 151t90.5 88.5t122 28.5q54 0 97.5 -20t68.5 -55t25 -80q0 -59 -39.5 -88t-122.5 -29h-161q4 -102 48 -154t112 -52q85 0 134 57q11 9 17 9t6 -7q0 -5 -5 -13q-62 -100 -183 -100q-65 0 -120.5 29.5zM258 276
q96 0 96 86q0 47 -24.5 75.5t-64.5 28.5q-57 0 -92 -45.5t-38 -144.5h123zM185.5 610.5q-20.5 20.5 -20.5 47.5q0 28 20.5 48t49.5 20q28 0 48.5 -20t20.5 -48q0 -27 -20.5 -47.5t-48.5 -20.5q-29 0 -49.5 20.5z" />
    <glyph glyph-name="egrave" unicode="&#xe8;" horiz-adv-x="469" 
d="M143.5 13.5q-55.5 29.5 -89.5 89t-34 145.5q0 91 34.5 151t90.5 88.5t122 28.5q54 0 97.5 -20t68.5 -55t25 -80q0 -59 -39.5 -88t-122.5 -29h-161q4 -102 48 -154t112 -52q85 0 134 57q11 9 17 9t6 -7q0 -5 -5 -13q-62 -100 -183 -100q-65 0 -120.5 29.5zM258 276
q96 0 96 86q0 47 -24.5 75.5t-64.5 28.5q-57 0 -92 -45.5t-38 -144.5h123zM242 601l-47 69q-14 19 -14 31q0 25 46 25q29 0 46 -9.5t15 -34.5l-5 -79q0 -6 -4.5 -10.5t-12.5 -4.5q-17 0 -24 13z" />
    <glyph glyph-name="emacron" unicode="&#x113;" horiz-adv-x="469" 
d="M143.5 13.5q-55.5 29.5 -89.5 89t-34 145.5q0 91 34.5 151t90.5 88.5t122 28.5q54 0 97.5 -20t68.5 -55t25 -80q0 -59 -39.5 -88t-122.5 -29h-161q4 -102 48 -154t112 -52q85 0 134 57q11 9 17 9t6 -7q0 -5 -5 -13q-62 -100 -183 -100q-65 0 -120.5 29.5zM258 276
q96 0 96 86q0 47 -24.5 75.5t-64.5 28.5q-57 0 -92 -45.5t-38 -144.5h123zM143 687h183v-50h-183v50z" />
    <glyph glyph-name="eogonek" unicode="&#x119;" horiz-adv-x="469" 
d="M143.5 13.5q-55.5 29.5 -89.5 89t-34 145.5q0 91 34.5 151t90.5 88.5t122 28.5q54 0 97.5 -20t68.5 -55t25 -80q0 -59 -39.5 -88t-122.5 -29h-161q4 -102 48 -154t112 -52q85 0 134 57q11 9 17 9t6 -7q0 -5 -5 -13q-62 -100 -183 -100q-65 0 -120.5 29.5zM258 276
q96 0 96 86q0 47 -24.5 75.5t-64.5 28.5q-57 0 -92 -45.5t-38 -144.5h123zM309 -150.5q-14 14.5 -14 35.5q0 41 35.5 72.5t76.5 47.5h27q-24 -13 -49.5 -42.5t-25.5 -52.5q0 -11 8.5 -18t24.5 -7q6 0 10 -4t4 -10q0 -13 -15 -24.5t-41 -11.5q-27 0 -41 14.5z" />
    <glyph glyph-name="uni1EBD" unicode="&#x1ebd;" horiz-adv-x="469" 
d="M143.5 13.5q-55.5 29.5 -89.5 89t-34 145.5q0 91 34.5 151t90.5 88.5t122 28.5q54 0 97.5 -20t68.5 -55t25 -80q0 -59 -39.5 -88t-122.5 -29h-161q4 -102 48 -154t112 -52q85 0 134 57q11 9 17 9t6 -7q0 -5 -5 -13q-62 -100 -183 -100q-65 0 -120.5 29.5zM258 276
q96 0 96 86q0 47 -24.5 75.5t-64.5 28.5q-57 0 -92 -45.5t-38 -144.5h123zM255.5 616q-13.5 7 -32.5 20q-13 10 -22.5 14.5t-18.5 4.5q-15 0 -25 -11.5t-10 -29.5q0 -5 -4 -8t-8 -3q-5 0 -9 4t-4 10q0 45 18 67.5t46 22.5q14 0 26 -5t30 -16q29 -19 46 -19q15 0 23.5 12.5
t8.5 27.5q0 7 3.5 11.5t8.5 4.5q6 0 10.5 -4.5t4.5 -14.5q0 -46 -16 -70.5t-45 -24.5q-17 0 -30.5 7z" />
    <glyph glyph-name="uni0259" unicode="&#x259;" horiz-adv-x="525" 
d="M143.5 15.5q-55.5 31.5 -89.5 93t-34 147.5q0 21 1 27l6 4h361q-5 86 -38 133.5t-84 47.5q-32 0 -59 -19t-44 -54l-7 -4h-95l-6 4q34 58 90.5 89.5t118.5 31.5q60 0 115.5 -31t90.5 -90t35 -139q0 -86 -33.5 -147.5t-88.5 -93t-119 -31.5q-65 0 -120.5 31.5zM173 84.5
q34 -52.5 93 -52.5q57 0 89 52.5t34 156.5h-253q3 -104 37 -156.5z" />
    <glyph glyph-name="f" unicode="f" horiz-adv-x="329" 
d="M62 -2q-20 -2 -29 -2q-17 0 -17 15q0 12 18 25q15 12 23 23t8 32v334q0 15 -7.5 23t-22.5 15q-11 7 -15.5 11t-4.5 11q0 15 19 15h31v15q0 119 51.5 174t139.5 55q43 0 76 -13.5t50.5 -34.5t17.5 -44q0 -16 -9 -25t-25 -9q-20 0 -31 12t-24 38t-25 38.5t-33 12.5
q-38 0 -60 -39.5t-22 -123.5v-56h111q21 0 28 -6.5t7 -23.5q0 -34 -19 -34q-13 0 -32 12q-18 10 -33 15.5t-39 5.5h-23v-378q0 -21 7.5 -32t22.5 -23q18 -13 18 -25q0 -15 -17 -15q-9 0 -29 2q-28 2 -52 2h-7q-24 0 -52 -2z" />
    <glyph glyph-name="g" unicode="g" horiz-adv-x="510" 
d="M59.5 -247.5q-52.5 28.5 -52.5 77.5q0 42 35 76.5t88 48.5q-76 17 -76 69q0 28 26.5 53.5t70.5 42.5q-50 22 -82 72t-32 122q0 62 30 108t76.5 70t94.5 24q32 0 84 -5q32 -4 46 -4q34 0 54 3t24 3q14 3 23 3t13 -4t4 -15q0 -43 -38 -43q-17 0 -37.5 6t-50.5 17
q37 -27 59 -68.5t22 -94.5q0 -68 -28.5 -116.5t-75 -73t-99.5 -24.5q-22 0 -50 5q-22 -10 -33 -17.5t-11 -15.5q0 -13 33 -17.5t95 -4.5q72 -1 119 -8.5t76 -33t29 -76.5q0 -56 -37 -103.5t-103.5 -76t-151.5 -28.5q-92 0 -144.5 28.5zM237 -226q52 0 96 19t69.5 47t25.5 52
q0 32 -39 44t-108 12q-52 0 -89 -16t-55 -39t-18 -43q0 -76 118 -76zM169 181.5q25 -44.5 72 -44.5q92 0 92 178q0 78 -24.5 121t-67.5 43t-70 -43.5t-27 -120.5q0 -89 25 -133.5z" />
    <glyph glyph-name="gbreve" unicode="&#x11f;" horiz-adv-x="510" 
d="M59.5 -247.5q-52.5 28.5 -52.5 77.5q0 42 35 76.5t88 48.5q-76 17 -76 69q0 28 26.5 53.5t70.5 42.5q-50 22 -82 72t-32 122q0 62 30 108t76.5 70t94.5 24q32 0 84 -5q32 -4 46 -4q34 0 54 3t24 3q14 3 23 3t13 -4t4 -15q0 -43 -38 -43q-17 0 -37.5 6t-50.5 17
q37 -27 59 -68.5t22 -94.5q0 -68 -28.5 -116.5t-75 -73t-99.5 -24.5q-22 0 -50 5q-22 -10 -33 -17.5t-11 -15.5q0 -13 33 -17.5t95 -4.5q72 -1 119 -8.5t76 -33t29 -76.5q0 -56 -37 -103.5t-103.5 -76t-151.5 -28.5q-92 0 -144.5 28.5zM237 -226q52 0 96 19t69.5 47t25.5 52
q0 32 -39 44t-108 12q-52 0 -89 -16t-55 -39t-18 -43q0 -76 118 -76zM169 181.5q25 -44.5 72 -44.5q92 0 92 178q0 78 -24.5 121t-67.5 43t-70 -43.5t-27 -120.5q0 -89 25 -133.5zM185.5 625.5q-26.5 35.5 -33.5 82.5v3q0 6 3.5 10t7.5 5q7 0 11 -8q31 -68 81 -68
q26 0 47 18t35 51q4 8 11 8q5 0 9 -5t3 -12q-11 -53 -36.5 -86.5t-68.5 -33.5t-69.5 35.5z" />
    <glyph glyph-name="gcaron" unicode="&#x1e7;" horiz-adv-x="510" 
d="M59.5 -247.5q-52.5 28.5 -52.5 77.5q0 42 35 76.5t88 48.5q-76 17 -76 69q0 28 26.5 53.5t70.5 42.5q-50 22 -82 72t-32 122q0 62 30 108t76.5 70t94.5 24q32 0 84 -5q32 -4 46 -4q34 0 54 3t24 3q14 3 23 3t13 -4t4 -15q0 -43 -38 -43q-17 0 -37.5 6t-50.5 17
q37 -27 59 -68.5t22 -94.5q0 -68 -28.5 -116.5t-75 -73t-99.5 -24.5q-22 0 -50 5q-22 -10 -33 -17.5t-11 -15.5q0 -13 33 -17.5t95 -4.5q72 -1 119 -8.5t76 -33t29 -76.5q0 -56 -37 -103.5t-103.5 -76t-151.5 -28.5q-92 0 -144.5 28.5zM237 -226q52 0 96 19t69.5 47t25.5 52
q0 32 -39 44t-108 12q-52 0 -89 -16t-55 -39t-18 -43q0 -76 118 -76zM169 181.5q25 -44.5 72 -44.5q92 0 92 178q0 78 -24.5 121t-67.5 43t-70 -43.5t-27 -120.5q0 -89 25 -133.5zM216 613l-56 94q-2 3 -2 8q0 11 15 11q10 0 17 -6l64 -58l65 55q10 9 19 9t13 -6t-1 -12
l-57 -95q-7 -11 -17 -17t-21 -6q-24 0 -39 23z" />
    <glyph glyph-name="gcircumflex" unicode="&#x11d;" horiz-adv-x="510" 
d="M59.5 -247.5q-52.5 28.5 -52.5 77.5q0 42 35 76.5t88 48.5q-76 17 -76 69q0 28 26.5 53.5t70.5 42.5q-50 22 -82 72t-32 122q0 62 30 108t76.5 70t94.5 24q32 0 84 -5q32 -4 46 -4q34 0 54 3t24 3q14 3 23 3t13 -4t4 -15q0 -43 -38 -43q-17 0 -37.5 6t-50.5 17
q37 -27 59 -68.5t22 -94.5q0 -68 -28.5 -116.5t-75 -73t-99.5 -24.5q-22 0 -50 5q-22 -10 -33 -17.5t-11 -15.5q0 -13 33 -17.5t95 -4.5q72 -1 119 -8.5t76 -33t29 -76.5q0 -56 -37 -103.5t-103.5 -76t-151.5 -28.5q-92 0 -144.5 28.5zM237 -226q52 0 96 19t69.5 47t25.5 52
q0 32 -39 44t-108 12q-52 0 -89 -16t-55 -39t-18 -43q0 -76 118 -76zM169 181.5q25 -44.5 72 -44.5q92 0 92 178q0 78 -24.5 121t-67.5 43t-70 -43.5t-27 -120.5q0 -89 25 -133.5zM158 601q0 5 2 8l56 94q14 23 39 23q11 0 21.5 -6t16.5 -17l57 -95q2 -2 2 -7t-3.5 -8
t-10.5 -3q-9 0 -19 9l-65 55l-64 -58q-7 -6 -17 -6q-15 0 -15 11z" />
    <glyph glyph-name="uni0123" unicode="&#x123;" horiz-adv-x="510" 
d="M59.5 -247.5q-52.5 28.5 -52.5 77.5q0 42 35 76.5t88 48.5q-76 17 -76 69q0 28 26.5 53.5t70.5 42.5q-50 22 -82 72t-32 122q0 62 30 108t76.5 70t94.5 24q32 0 84 -5q32 -4 46 -4q34 0 54 3t24 3q14 3 23 3t13 -4t4 -15q0 -43 -38 -43q-17 0 -37.5 6t-50.5 17
q37 -27 59 -68.5t22 -94.5q0 -68 -28.5 -116.5t-75 -73t-99.5 -24.5q-22 0 -50 5q-22 -10 -33 -17.5t-11 -15.5q0 -13 33 -17.5t95 -4.5q72 -1 119 -8.5t76 -33t29 -76.5q0 -56 -37 -103.5t-103.5 -76t-151.5 -28.5q-92 0 -144.5 28.5zM237 -226q52 0 96 19t69.5 47t25.5 52
q0 32 -39 44t-108 12q-52 0 -89 -16t-55 -39t-18 -43q0 -76 118 -76zM169 181.5q25 -44.5 72 -44.5q92 0 92 178q0 78 -24.5 121t-67.5 43t-70 -43.5t-27 -120.5q0 -89 25 -133.5zM216 607q-15 14 -15 37q0 28 21.5 51.5t65.5 28.5q3 1 8 1q13 0 13 -7q0 -3 -7.5 -6
l-12.5 -5q-33 -7 -33 -29q0 -8 4.5 -11.5t12.5 -5.5q26 -3 26 -30q0 -17 -12.5 -27.5t-32.5 -10.5q-23 0 -38 14z" />
    <glyph glyph-name="gdotaccent" unicode="&#x121;" horiz-adv-x="510" 
d="M59.5 -247.5q-52.5 28.5 -52.5 77.5q0 42 35 76.5t88 48.5q-76 17 -76 69q0 28 26.5 53.5t70.5 42.5q-50 22 -82 72t-32 122q0 62 30 108t76.5 70t94.5 24q32 0 84 -5q32 -4 46 -4q34 0 54 3t24 3q14 3 23 3t13 -4t4 -15q0 -43 -38 -43q-17 0 -37.5 6t-50.5 17
q37 -27 59 -68.5t22 -94.5q0 -68 -28.5 -116.5t-75 -73t-99.5 -24.5q-22 0 -50 5q-22 -10 -33 -17.5t-11 -15.5q0 -13 33 -17.5t95 -4.5q72 -1 119 -8.5t76 -33t29 -76.5q0 -56 -37 -103.5t-103.5 -76t-151.5 -28.5q-92 0 -144.5 28.5zM237 -226q52 0 96 19t69.5 47t25.5 52
q0 32 -39 44t-108 12q-52 0 -89 -16t-55 -39t-18 -43q0 -76 118 -76zM169 181.5q25 -44.5 72 -44.5q92 0 92 178q0 78 -24.5 121t-67.5 43t-70 -43.5t-27 -120.5q0 -89 25 -133.5zM206.5 610.5q-20.5 20.5 -20.5 47.5q0 28 20.5 48t49.5 20q28 0 48.5 -20t20.5 -48
q0 -27 -20.5 -47.5t-48.5 -20.5q-29 0 -49.5 20.5z" />
    <glyph glyph-name="uni1E21" unicode="&#x1e21;" horiz-adv-x="510" 
d="M59.5 -247.5q-52.5 28.5 -52.5 77.5q0 42 35 76.5t88 48.5q-76 17 -76 69q0 28 26.5 53.5t70.5 42.5q-50 22 -82 72t-32 122q0 62 30 108t76.5 70t94.5 24q32 0 84 -5q32 -4 46 -4q34 0 54 3t24 3q14 3 23 3t13 -4t4 -15q0 -43 -38 -43q-17 0 -37.5 6t-50.5 17
q37 -27 59 -68.5t22 -94.5q0 -68 -28.5 -116.5t-75 -73t-99.5 -24.5q-22 0 -50 5q-22 -10 -33 -17.5t-11 -15.5q0 -13 33 -17.5t95 -4.5q72 -1 119 -8.5t76 -33t29 -76.5q0 -56 -37 -103.5t-103.5 -76t-151.5 -28.5q-92 0 -144.5 28.5zM237 -226q52 0 96 19t69.5 47t25.5 52
q0 32 -39 44t-108 12q-52 0 -89 -16t-55 -39t-18 -43q0 -76 118 -76zM169 181.5q25 -44.5 72 -44.5q92 0 92 178q0 78 -24.5 121t-67.5 43t-70 -43.5t-27 -120.5q0 -89 25 -133.5zM164 687h183v-50h-183v50z" />
    <glyph glyph-name="uni01E5" unicode="&#x1e5;" horiz-adv-x="510" 
d="M59.5 -247.5q-52.5 28.5 -52.5 77.5q0 42 35 76.5t88 48.5q-76 17 -76 69q0 28 26.5 53.5t70.5 42.5q-50 22 -82 72t-32 122q0 62 30 108t76.5 70t94.5 24q32 0 84 -5q32 -4 46 -4q34 0 54 3t24 3q14 3 23 3t13 -4t4 -15q0 -43 -38 -43q-17 0 -37.5 6t-50.5 17
q37 -27 59 -68.5t22 -94.5q0 -68 -28.5 -116.5t-75 -73t-99.5 -24.5q-22 0 -50 5q-22 -10 -33 -17.5t-11 -15.5q0 -13 33 -17.5t95 -4.5q72 -1 119 -8.5t76 -33t29 -76.5q0 -17 -3 -33h71v-46h-89q-32 -58 -103.5 -93.5t-167.5 -35.5q-92 0 -144.5 28.5zM237 -226
q58 0 105.5 23.5t70.5 55.5h-67v46h81q-4 28 -42.5 38.5t-103.5 10.5q-52 0 -89 -16t-55 -39t-18 -43q0 -76 118 -76zM169 181.5q25 -44.5 72 -44.5q92 0 92 178q0 78 -24.5 121t-67.5 43t-70 -43.5t-27 -120.5q0 -89 25 -133.5z" />
    <glyph glyph-name="h" unicode="h" horiz-adv-x="474" 
d="M62 -2q-20 -2 -30 -2q-17 0 -17 15q0 12 18 25q15 12 23 23t8 32v492q0 30 -7.5 45t-18.5 25t-11 16q0 14 35 19q18 1 32 5.5t32 12.5q22 9 30 9t11 -4.5t3 -15.5v-278h2q12 36 46 67.5t84 31.5q112 0 112 -118v-307q0 -21 8 -32t23 -23q18 -13 18 -25q0 -15 -17 -15
q-10 0 -30 2q-28 2 -51 2h-8q-23 0 -51 -2q-20 -2 -30 -2q-17 0 -17 15q0 12 18 25q15 12 23 23t8 32v300q0 38 -13.5 53.5t-36.5 15.5q-29 0 -53 -29.5t-35 -78.5v-261q0 -21 8 -32t23 -23q18 -13 18 -25q0 -15 -17 -15q-10 0 -30 2q-28 2 -51 2h-8q-23 0 -51 -2z" />
    <glyph glyph-name="hbar" unicode="&#x127;" horiz-adv-x="474" 
d="M62 -2q-20 -2 -30 -2q-17 0 -17 15q0 12 18 25q15 12 23 23t8 32v467h-53v46h52q-3 20 -9.5 30.5t-16.5 19.5t-10 15q0 14 35 19q18 1 32 5.5t32 12.5q22 9 30 9t11 -4.5t3 -15.5v-91h122v-46h-122v-141h2q12 36 46 67.5t84 31.5q112 0 112 -118v-307q0 -21 8 -32t23 -23
q18 -13 18 -25q0 -15 -17 -15q-10 0 -30 2q-28 2 -51 2h-8q-23 0 -51 -2q-20 -2 -30 -2q-17 0 -17 15q0 12 18 25q15 12 23 23t8 32v300q0 38 -13.5 53.5t-36.5 15.5q-29 0 -53 -29.5t-35 -78.5v-261q0 -21 8 -32t23 -23q18 -13 18 -25q0 -15 -17 -15q-10 0 -30 2
q-28 2 -51 2h-8q-23 0 -51 -2z" />
    <glyph glyph-name="hcircumflex" unicode="&#x125;" horiz-adv-x="474" 
d="M62 -2q-20 -2 -30 -2q-17 0 -17 15q0 12 18 25q15 12 23 23t8 32v492q0 30 -7.5 45t-18.5 25t-11 16q0 14 35 19q18 1 32 5.5t32 12.5q22 9 30 9t11 -4.5t3 -15.5v-278h2q12 36 46 67.5t84 31.5q112 0 112 -118v-307q0 -21 8 -32t23 -23q18 -13 18 -25q0 -15 -17 -15
q-10 0 -30 2q-28 2 -51 2h-8q-23 0 -51 -2q-20 -2 -30 -2q-17 0 -17 15q0 12 18 25q15 12 23 23t8 32v300q0 38 -13.5 53.5t-36.5 15.5q-29 0 -53 -29.5t-35 -78.5v-261q0 -21 8 -32t23 -23q18 -13 18 -25q0 -15 -17 -15q-10 0 -30 2q-28 2 -51 2h-8q-23 0 -51 -2zM11 901
q0 5 2 8l56 94q14 23 39 23q11 0 21.5 -6t16.5 -17l57 -95q2 -2 2 -7t-3.5 -8t-10.5 -3q-9 0 -19 9l-65 55l-64 -58q-7 -6 -17 -6q-15 0 -15 11z" />
    <glyph glyph-name="i" unicode="i" horiz-adv-x="228" 
d="M61 -2q-20 -2 -29 -2q-17 0 -17 15q0 12 18 25q15 12 23 23t8 32v285q0 32 -7.5 47.5t-18.5 26.5t-11 17q0 15 35 20q26 2 43.5 10t20.5 9q18 10 29 10q8 0 11.5 -4.5t3.5 -16.5v-404q0 -21 7.5 -32t22.5 -23q18 -13 18 -25q0 -15 -17 -15q-9 0 -29 2q-28 2 -52 2h-7
q-24 0 -52 -2zM65.5 610.5q-20.5 20.5 -20.5 47.5q0 28 20.5 48t49.5 20q28 0 48.5 -20t20.5 -48q0 -27 -20.5 -47.5t-48.5 -20.5q-29 0 -49.5 20.5z" />
    <glyph glyph-name="dotlessi" unicode="&#x131;" horiz-adv-x="228" 
d="M61 -2q-20 -2 -29 -2q-17 0 -17 15q0 12 18 25q15 12 23 23t8 32v285q0 32 -7.5 47.5t-18.5 26.5t-11 17q0 15 35 20q26 2 43.5 10t20.5 9q18 10 29 10q8 0 11.5 -4.5t3.5 -16.5v-404q0 -21 7.5 -32t22.5 -23q18 -13 18 -25q0 -15 -17 -15q-9 0 -29 2q-28 2 -52 2h-7
q-24 0 -52 -2z" />
    <glyph glyph-name="iacute" unicode="&#xed;" horiz-adv-x="228" 
d="M61 -2q-20 -2 -29 -2q-17 0 -17 15q0 12 18 25q15 12 23 23t8 32v285q0 32 -7.5 47.5t-18.5 26.5t-11 17q0 15 35 20q26 2 43.5 10t20.5 9q18 10 29 10q8 0 11.5 -4.5t3.5 -16.5v-404q0 -21 7.5 -32t22.5 -23q18 -13 18 -25q0 -15 -17 -15q-9 0 -29 2q-28 2 -52 2h-7
q-24 0 -52 -2zM71 592.5q-5 4.5 -5 10.5l-5 79q-2 25 15 34.5t46 9.5q46 0 46 -25q0 -11 -13 -31l-48 -69q-7 -13 -24 -13q-7 0 -12 4.5z" />
    <glyph glyph-name="icircumflex" unicode="&#xee;" horiz-adv-x="228" 
d="M61 -2q-20 -2 -29 -2q-17 0 -17 15q0 12 18 25q15 12 23 23t8 32v285q0 32 -7.5 47.5t-18.5 26.5t-11 17q0 15 35 20q26 2 43.5 10t20.5 9q18 10 29 10q8 0 11.5 -4.5t3.5 -16.5v-404q0 -21 7.5 -32t22.5 -23q18 -13 18 -25q0 -15 -17 -15q-9 0 -29 2q-28 2 -52 2h-7
q-24 0 -52 -2zM18 601q0 5 2 8l56 94q14 23 39 23q11 0 21.5 -6t16.5 -17l57 -95q2 -2 2 -7t-3.5 -8t-10.5 -3q-9 0 -19 9l-65 55l-64 -58q-7 -6 -17 -6q-15 0 -15 11z" />
    <glyph glyph-name="idieresis" unicode="&#xef;" horiz-adv-x="228" 
d="M61 -2q-20 -2 -29 -2q-17 0 -17 15q0 12 18 25q15 12 23 23t8 32v285q0 32 -7.5 47.5t-18.5 26.5t-11 17q0 15 35 20q26 2 43.5 10t20.5 9q18 10 29 10q8 0 11.5 -4.5t3.5 -16.5v-404q0 -21 7.5 -32t22.5 -23q18 -13 18 -25q0 -15 -17 -15q-9 0 -29 2q-28 2 -52 2h-7
q-24 0 -52 -2zM-2 616.5q-18 17.5 -18 41.5t18 42t43 18t43 -18t18 -42t-18 -41.5t-43 -17.5t-43 17.5zM144.5 700q17.5 18 42.5 18t43 -18t18 -42t-18 -41.5t-43 -17.5t-42.5 17.5t-17.5 41.5t17.5 42z" />
    <glyph glyph-name="i.loclTRK" horiz-adv-x="228" 
d="M61 -2q-20 -2 -29 -2q-17 0 -17 15q0 12 18 25q15 12 23 23t8 32v285q0 32 -7.5 47.5t-18.5 26.5t-11 17q0 15 35 20q26 2 43.5 10t20.5 9q18 10 29 10q8 0 11.5 -4.5t3.5 -16.5v-404q0 -21 7.5 -32t22.5 -23q18 -13 18 -25q0 -15 -17 -15q-9 0 -29 2q-28 2 -52 2h-7
q-24 0 -52 -2zM65.5 610.5q-20.5 20.5 -20.5 47.5q0 28 20.5 48t49.5 20q28 0 48.5 -20t20.5 -48q0 -27 -20.5 -47.5t-48.5 -20.5q-29 0 -49.5 20.5z" />
    <glyph glyph-name="igrave" unicode="&#xec;" horiz-adv-x="228" 
d="M61 -2q-20 -2 -29 -2q-17 0 -17 15q0 12 18 25q15 12 23 23t8 32v285q0 32 -7.5 47.5t-18.5 26.5t-11 17q0 15 35 20q26 2 43.5 10t20.5 9q18 10 29 10q8 0 11.5 -4.5t3.5 -16.5v-404q0 -21 7.5 -32t22.5 -23q18 -13 18 -25q0 -15 -17 -15q-9 0 -29 2q-28 2 -52 2h-7
q-24 0 -52 -2zM122 601l-47 69q-14 19 -14 31q0 25 46 25q29 0 46 -9.5t15 -34.5l-5 -79q0 -6 -4.5 -10.5t-12.5 -4.5q-17 0 -24 13z" />
    <glyph glyph-name="ij" unicode="&#x133;" horiz-adv-x="425" 
d="M61 -2q-20 -2 -29 -2q-17 0 -17 15q0 12 18 25q15 12 23 23t8 32v285q0 32 -7.5 47.5t-18.5 26.5t-11 17q0 15 35 20q26 2 43.5 10t20.5 9q18 10 29 10q8 0 11.5 -4.5t3.5 -16.5v-404q0 -21 7.5 -32t22.5 -23q18 -13 18 -25q0 -15 -17 -15q-9 0 -29 2q-28 2 -52 2h-7
q-24 0 -52 -2zM65.5 610.5q-20.5 20.5 -20.5 47.5q0 28 20.5 48t49.5 20q28 0 48.5 -20t20.5 -48q0 -27 -20.5 -47.5t-48.5 -20.5q-29 0 -49.5 20.5zM170.5 -214q-33.5 14 -53 36.5t-19.5 47.5q0 20 12.5 32t32.5 12q21 0 32 -13t23 -39q11 -24 21 -36t28 -12q21 0 34 20
t13 63v479q0 32 -7.5 47.5t-18.5 26.5t-11 17q0 15 35 20q27 2 64 19q20 10 30 10q8 0 11 -4.5t3 -16.5v-552q0 -83 -40.5 -127t-116.5 -44q-39 0 -72.5 14zM295.5 610.5q-20.5 20.5 -20.5 47.5q0 28 20.5 48t49.5 20q28 0 48.5 -20t20.5 -48q0 -27 -20.5 -47.5t-48.5 -20.5
q-29 0 -49.5 20.5z" />
    <glyph glyph-name="imacron" unicode="&#x12b;" horiz-adv-x="228" 
d="M61 -2q-20 -2 -29 -2q-17 0 -17 15q0 12 18 25q15 12 23 23t8 32v285q0 32 -7.5 47.5t-18.5 26.5t-11 17q0 15 35 20q26 2 43.5 10t20.5 9q18 10 29 10q8 0 11.5 -4.5t3.5 -16.5v-404q0 -21 7.5 -32t22.5 -23q18 -13 18 -25q0 -15 -17 -15q-9 0 -29 2q-28 2 -52 2h-7
q-24 0 -52 -2zM23 687h183v-50h-183v50z" />
    <glyph glyph-name="iogonek" unicode="&#x12f;" horiz-adv-x="228" 
d="M61 -2q-20 -2 -29 -2q-17 0 -17 15q0 12 18 25q15 12 23 23t8 32v285q0 32 -7.5 47.5t-18.5 26.5t-11 17q0 15 35 20q26 2 43.5 10t20.5 9q18 10 29 10q8 0 11.5 -4.5t3.5 -16.5v-404q0 -21 7.5 -32t22.5 -23q18 -13 18 -25q0 -15 -16 -15q-23 -17 -42 -41.5t-19 -44.5
q0 -11 8.5 -18t24.5 -7q6 0 10 -4t4 -10q0 -13 -15 -24.5t-41 -11.5q-27 0 -41 14.5t-14 35.5q0 37 28 66t67 47q-28 2 -52 2h-7q-24 0 -52 -2zM65.5 706q20.5 20 49.5 20q28 0 48.5 -20t20.5 -48q0 -27 -20.5 -47.5t-48.5 -20.5q-29 0 -49.5 20.5t-20.5 47.5q0 28 20.5 48z
" />
    <glyph glyph-name="itilde" unicode="&#x129;" horiz-adv-x="228" 
d="M61 -2q-20 -2 -29 -2q-17 0 -17 15q0 12 18 25q15 12 23 23t8 32v285q0 32 -7.5 47.5t-18.5 26.5t-11 17q0 15 35 20q26 2 43.5 10t20.5 9q18 10 29 10q8 0 11.5 -4.5t3.5 -16.5v-404q0 -21 7.5 -32t22.5 -23q18 -13 18 -25q0 -15 -17 -15q-9 0 -29 2q-28 2 -52 2h-7
q-24 0 -52 -2zM135.5 616q-13.5 7 -32.5 20q-13 10 -22.5 14.5t-18.5 4.5q-15 0 -25 -11.5t-10 -29.5q0 -5 -4 -8t-8 -3q-5 0 -9 4t-4 10q0 45 18 67.5t46 22.5q14 0 26 -5t30 -16q29 -19 46 -19q15 0 23.5 12.5t8.5 27.5q0 7 3.5 11.5t8.5 4.5q6 0 10.5 -4.5t4.5 -14.5
q0 -46 -16 -70.5t-45 -24.5q-17 0 -30.5 7z" />
    <glyph glyph-name="j" unicode="j" horiz-adv-x="197" 
d="M-57.5 -214q-33.5 14 -53 36.5t-19.5 47.5q0 20 12.5 32t32.5 12q21 0 32 -13t23 -39q11 -24 21 -36t28 -12q21 0 34 20t13 63v479q0 32 -7.5 47.5t-18.5 26.5t-11 17q0 15 35 20q27 2 64 19q20 10 30 10q8 0 11 -4.5t3 -16.5v-552q0 -83 -40.5 -127t-116.5 -44
q-39 0 -72.5 14zM67.5 610.5q-20.5 20.5 -20.5 47.5q0 28 20.5 48t49.5 20q28 0 48.5 -20t20.5 -48q0 -27 -20.5 -47.5t-48.5 -20.5q-29 0 -49.5 20.5z" />
    <glyph glyph-name="uni0237" unicode="&#x237;" horiz-adv-x="197" 
d="M-59.5 -214q-33.5 14 -53 36.5t-19.5 47.5q0 20 12.5 32t32.5 12q21 0 32 -13t23 -39q11 -24 21 -36t28 -12q21 0 34 20t13 63v479q0 32 -7.5 47.5t-18.5 26.5t-11 17q0 15 35 20q27 2 64 19q20 10 30 10q8 0 11 -4.5t3 -16.5v-552q0 -83 -40.5 -127t-116.5 -44
q-39 0 -72.5 14z" />
    <glyph glyph-name="uni006A0301" horiz-adv-x="197" 
d="M-59.5 -214q-33.5 14 -53 36.5t-19.5 47.5q0 20 12.5 32t32.5 12q21 0 32 -13t23 -39q11 -24 21 -36t28 -12q21 0 34 20t13 63v479q0 32 -7.5 47.5t-18.5 26.5t-11 17q0 15 35 20q27 2 64 19q20 10 30 10q8 0 11 -4.5t3 -16.5v-552q0 -83 -40.5 -127t-116.5 -44
q-39 0 -72.5 14zM71 592.5q-5 4.5 -5 10.5l-5 79q-2 25 15 34.5t46 9.5q46 0 46 -25q0 -11 -13 -31l-48 -69q-7 -13 -24 -13q-7 0 -12 4.5z" />
    <glyph glyph-name="jcircumflex" unicode="&#x135;" horiz-adv-x="197" 
d="M-59.5 -214q-33.5 14 -53 36.5t-19.5 47.5q0 20 12.5 32t32.5 12q21 0 32 -13t23 -39q11 -24 21 -36t28 -12q21 0 34 20t13 63v479q0 32 -7.5 47.5t-18.5 26.5t-11 17q0 15 35 20q27 2 64 19q20 10 30 10q8 0 11 -4.5t3 -16.5v-552q0 -83 -40.5 -127t-116.5 -44
q-39 0 -72.5 14zM18 601q0 5 2 8l56 94q14 23 39 23q11 0 21.5 -6t16.5 -17l57 -95q2 -2 2 -7t-3.5 -8t-10.5 -3q-9 0 -19 9l-65 55l-64 -58q-7 -6 -17 -6q-15 0 -15 11z" />
    <glyph glyph-name="k" unicode="k" horiz-adv-x="533" 
d="M61 -2q-20 -2 -29 -2q-17 0 -17 15q0 12 18 25q15 12 23 23t8 32v493q0 30 -7.5 44.5t-18.5 24.5t-11 16q0 15 35 18q29 3 63 19q22 9 30 9t11.5 -4t3.5 -16v-423l137 143q15 15 15 26q0 7 -4 11.5t-12 10.5q-9 8 -13 13t-4 12q0 17 21 17q10 0 32 -2q20 -2 33 -2
q16 0 38 2q28 2 38 2q24 0 24 -18q0 -11 -9.5 -17t-32.5 -16q-23 -9 -40 -18t-31 -24l-87 -90l157 -231q11 -17 25 -26.5t36 -21.5q17 -8 25 -14.5t8 -16.5q0 -17 -21 -17q-10 0 -36 2q-51 3 -64 3h-2q-22 0 -48 -2q-20 -2 -28 -2q-16 0 -16 15q0 8 6 14.5t7 8.5
q13 11 13 21q0 11 -11 26l-120 171l-36 -40v-121q0 -21 7.5 -32t22.5 -23q18 -13 18 -25q0 -15 -17 -15q-9 0 -29 2q-28 2 -52 2h-7q-24 0 -52 -2z" />
    <glyph glyph-name="uni01E9" unicode="&#x1e9;" horiz-adv-x="533" 
d="M61 -2q-20 -2 -29 -2q-17 0 -17 15q0 12 18 25q15 12 23 23t8 32v493q0 30 -7.5 44.5t-18.5 24.5t-11 16q0 15 35 18q29 3 63 19q22 9 30 9t11.5 -4t3.5 -16v-423l137 143q15 15 15 26q0 7 -4 11.5t-12 10.5q-9 8 -13 13t-4 12q0 17 21 17q10 0 32 -2q20 -2 33 -2
q16 0 38 2q28 2 38 2q24 0 24 -18q0 -11 -9.5 -17t-32.5 -16q-23 -9 -40 -18t-31 -24l-87 -90l157 -231q11 -17 25 -26.5t36 -21.5q17 -8 25 -14.5t8 -16.5q0 -17 -21 -17q-10 0 -36 2q-51 3 -64 3h-2q-22 0 -48 -2q-20 -2 -28 -2q-16 0 -16 15q0 8 6 14.5t7 8.5
q13 11 13 21q0 11 -11 26l-120 171l-36 -40v-121q0 -21 7.5 -32t22.5 -23q18 -13 18 -25q0 -15 -17 -15q-9 0 -29 2q-28 2 -52 2h-7q-24 0 -52 -2zM227 913l-56 94q-2 3 -2 8q0 11 15 11q10 0 17 -6l64 -58l65 55q10 9 19 9t13 -6t-1 -12l-57 -95q-7 -11 -17 -17t-21 -6
q-24 0 -39 23z" />
    <glyph glyph-name="uni0137" unicode="&#x137;" horiz-adv-x="533" 
d="M61 -2q-20 -2 -29 -2q-17 0 -17 15q0 12 18 25q15 12 23 23t8 32v493q0 30 -7.5 44.5t-18.5 24.5t-11 16q0 15 35 18q29 3 63 19q22 9 30 9t11.5 -4t3.5 -16v-423l137 143q15 15 15 26q0 7 -4 11.5t-12 10.5q-9 8 -13 13t-4 12q0 17 21 17q10 0 32 -2q20 -2 33 -2
q16 0 38 2q28 2 38 2q24 0 24 -18q0 -11 -9.5 -17t-32.5 -16q-23 -9 -40 -18t-31 -24l-87 -90l157 -231q11 -17 25 -26.5t36 -21.5q17 -8 25 -14.5t8 -16.5q0 -17 -21 -17q-10 0 -36 2q-51 3 -64 3h-2q-22 0 -48 -2q-20 -2 -28 -2q-16 0 -16 15q0 8 6 14.5t7 8.5
q13 11 13 21q0 11 -11 26l-120 171l-36 -40v-121q0 -21 7.5 -32t22.5 -23q18 -13 18 -25q0 -15 -17 -15q-9 0 -29 2q-28 2 -52 2h-7q-24 0 -52 -2zM226 -158q-13 0 -13 7q0 3 7.5 6l12.5 5q33 7 33 29q0 8 -4.5 11.5t-12.5 5.5q-13 2 -20 9.5t-7 20.5q0 17 13 27.5t33 10.5
q23 0 37.5 -14t14.5 -37q0 -28 -21 -51.5t-65 -28.5z" />
    <glyph glyph-name="l" unicode="l" horiz-adv-x="228" 
d="M62 -2q-20 -2 -30 -2q-17 0 -17 15q0 12 18 25q15 12 23 23t8 32v492q0 30 -7.5 45t-18.5 25t-11 16q0 14 35 19q18 1 32 5.5t32 12.5q22 9 30 9t11 -4.5t3 -15.5v-604q0 -21 8 -32t23 -23q18 -13 18 -25q0 -15 -17 -15q-10 0 -30 2q-28 2 -51 2h-8q-23 0 -51 -2z" />
    <glyph glyph-name="lacute" unicode="&#x13a;" horiz-adv-x="228" 
d="M62 -2q-20 -2 -30 -2q-17 0 -17 15q0 12 18 25q15 12 23 23t8 32v492q0 30 -7.5 45t-18.5 25t-11 16q0 14 35 19q18 1 32 5.5t32 12.5q22 9 30 9t11 -4.5t3 -15.5v-604q0 -21 8 -32t23 -23q18 -13 18 -25q0 -15 -17 -15q-10 0 -30 2q-28 2 -51 2h-8q-23 0 -51 -2z
M71 892.5q-5 4.5 -5 10.5l-5 79q-2 25 15 34.5t46 9.5q46 0 46 -25q0 -11 -13 -31l-48 -69q-7 -13 -24 -13q-7 0 -12 4.5z" />
    <glyph glyph-name="lcaron" unicode="&#x13e;" horiz-adv-x="228" 
d="M62 -2q-20 -2 -30 -2q-17 0 -17 15q0 12 18 25q15 12 23 23t8 32v492q0 30 -7.5 45t-18.5 25t-11 16q0 14 35 19q18 1 32 5.5t32 12.5q22 9 30 9t11 -4.5t3 -15.5v-604q0 -21 8 -32t23 -23q18 -13 18 -25q0 -15 -17 -15q-10 0 -30 2q-28 2 -51 2h-8q-23 0 -51 -2z
M217 586.5q-5 4.5 -5 10.5l-5 79q-4 44 61 44q46 0 46 -25q0 -11 -13 -31l-48 -69q-7 -13 -24 -13q-7 0 -12 4.5z" />
    <glyph glyph-name="uni013C" unicode="&#x13c;" horiz-adv-x="228" 
d="M62 -2q-20 -2 -30 -2q-17 0 -17 15q0 12 18 25q15 12 23 23t8 32v492q0 30 -7.5 45t-18.5 25t-11 16q0 14 35 19q18 1 32 5.5t32 12.5q22 9 30 9t11 -4.5t3 -15.5v-604q0 -21 8 -32t23 -23q18 -13 18 -25q0 -15 -17 -15q-10 0 -30 2q-28 2 -51 2h-8q-23 0 -51 -2z
M74 -158q-13 0 -13 7q0 3 7.5 6l12.5 5q33 7 33 29q0 8 -4.5 11.5t-12.5 5.5q-13 2 -20 9.5t-7 20.5q0 17 13 27.5t33 10.5q23 0 37.5 -14t14.5 -37q0 -28 -21 -51.5t-65 -28.5z" />
    <glyph glyph-name="lslash" unicode="&#x142;" horiz-adv-x="228" 
d="M62 -2q-20 -2 -30 -2q-17 0 -17 15q0 12 18 25q15 12 23 23t8 32v274l-71 -57l-19 25l90 72v178q0 30 -7.5 45t-18.5 25t-11 16q0 14 35 19q18 1 32 5.5t32 12.5q22 9 30 9t11 -4.5t3 -15.5v-206l62 50l19 -25l-81 -65v-358q0 -21 8 -32t23 -23q18 -13 18 -25
q0 -15 -17 -15q-10 0 -30 2q-28 2 -51 2h-8q-23 0 -51 -2z" />
    <glyph glyph-name="m" unicode="m" horiz-adv-x="718" 
d="M62 -2q-20 -2 -30 -2q-17 0 -17 15q0 12 18 25q15 12 23 23t8 32v285q0 32 -7.5 47.5t-18.5 26.5t-11 17q0 15 35 20q27 2 64 19q20 10 30 10q8 0 11 -4.5t3 -16.5v-78h2q12 36 46 67.5t84 31.5q102 0 111 -99h3q14 36 47 67.5t86 31.5q110 0 110 -118v-307q0 -21 8 -32
t23 -23q18 -13 18 -25q0 -15 -17 -15q-10 0 -30 2q-28 2 -51 2h-8q-23 0 -51 -2q-20 -2 -30 -2q-17 0 -17 15q0 12 18 25q15 12 23 23t8 32v299q0 40 -13 55t-37 15q-28 0 -52.5 -30t-36.5 -82v-257q0 -21 8 -32t23 -23q18 -13 18 -25q0 -15 -17 -15q-10 0 -30 2
q-28 2 -51 2h-8q-23 0 -51 -2q-20 -2 -30 -2q-17 0 -17 15q0 12 18 25q15 12 23 23t8 32v300q0 38 -13.5 53.5t-36.5 15.5q-29 0 -53 -29.5t-35 -78.5v-261q0 -21 8 -32t23 -23q18 -13 18 -25q0 -15 -17 -15q-10 0 -30 2q-28 2 -51 2h-8q-23 0 -51 -2z" />
    <glyph glyph-name="n" unicode="n" horiz-adv-x="474" 
d="M62 -2q-20 -2 -30 -2q-17 0 -17 15q0 12 18 25q15 12 23 23t8 32v285q0 32 -7.5 47.5t-18.5 26.5t-11 17q0 15 35 20q27 2 64 19q20 10 30 10q8 0 11 -4.5t3 -16.5v-78h2q12 36 46 67.5t84 31.5q112 0 112 -118v-307q0 -21 8 -32t23 -23q18 -13 18 -25q0 -15 -17 -15
q-10 0 -30 2q-28 2 -51 2h-8q-23 0 -51 -2q-20 -2 -30 -2q-17 0 -17 15q0 12 18 25q15 12 23 23t8 32v300q0 38 -13.5 53.5t-36.5 15.5q-29 0 -53 -29.5t-35 -78.5v-261q0 -21 8 -32t23 -23q18 -13 18 -25q0 -15 -17 -15q-10 0 -30 2q-28 2 -51 2h-8q-23 0 -51 -2z" />
    <glyph glyph-name="nacute" unicode="&#x144;" horiz-adv-x="474" 
d="M62 -2q-20 -2 -30 -2q-17 0 -17 15q0 12 18 25q15 12 23 23t8 32v285q0 32 -7.5 47.5t-18.5 26.5t-11 17q0 15 35 20q27 2 64 19q20 10 30 10q8 0 11 -4.5t3 -16.5v-78h2q12 36 46 67.5t84 31.5q112 0 112 -118v-307q0 -21 8 -32t23 -23q18 -13 18 -25q0 -15 -17 -15
q-10 0 -30 2q-28 2 -51 2h-8q-23 0 -51 -2q-20 -2 -30 -2q-17 0 -17 15q0 12 18 25q15 12 23 23t8 32v300q0 38 -13.5 53.5t-36.5 15.5q-29 0 -53 -29.5t-35 -78.5v-261q0 -21 8 -32t23 -23q18 -13 18 -25q0 -15 -17 -15q-10 0 -30 2q-28 2 -51 2h-8q-23 0 -51 -2z
M194 592.5q-5 4.5 -5 10.5l-5 79q-2 25 15 34.5t46 9.5q46 0 46 -25q0 -11 -13 -31l-48 -69q-7 -13 -24 -13q-7 0 -12 4.5z" />
    <glyph glyph-name="ncaron" unicode="&#x148;" horiz-adv-x="474" 
d="M62 -2q-20 -2 -30 -2q-17 0 -17 15q0 12 18 25q15 12 23 23t8 32v285q0 32 -7.5 47.5t-18.5 26.5t-11 17q0 15 35 20q27 2 64 19q20 10 30 10q8 0 11 -4.5t3 -16.5v-78h2q12 36 46 67.5t84 31.5q112 0 112 -118v-307q0 -21 8 -32t23 -23q18 -13 18 -25q0 -15 -17 -15
q-10 0 -30 2q-28 2 -51 2h-8q-23 0 -51 -2q-20 -2 -30 -2q-17 0 -17 15q0 12 18 25q15 12 23 23t8 32v300q0 38 -13.5 53.5t-36.5 15.5q-29 0 -53 -29.5t-35 -78.5v-261q0 -21 8 -32t23 -23q18 -13 18 -25q0 -15 -17 -15q-10 0 -30 2q-28 2 -51 2h-8q-23 0 -51 -2zM198 613
l-56 94q-2 3 -2 8q0 11 15 11q10 0 17 -6l64 -58l65 55q10 9 19 9t13 -6t-1 -12l-57 -95q-7 -11 -17 -17t-21 -6q-24 0 -39 23z" />
    <glyph glyph-name="uni0146" unicode="&#x146;" horiz-adv-x="474" 
d="M62 -2q-20 -2 -30 -2q-17 0 -17 15q0 12 18 25q15 12 23 23t8 32v285q0 32 -7.5 47.5t-18.5 26.5t-11 17q0 15 35 20q27 2 64 19q20 10 30 10q8 0 11 -4.5t3 -16.5v-78h2q12 36 46 67.5t84 31.5q112 0 112 -118v-307q0 -21 8 -32t23 -23q18 -13 18 -25q0 -15 -17 -15
q-10 0 -30 2q-28 2 -51 2h-8q-23 0 -51 -2q-20 -2 -30 -2q-17 0 -17 15q0 12 18 25q15 12 23 23t8 32v300q0 38 -13.5 53.5t-36.5 15.5q-29 0 -53 -29.5t-35 -78.5v-261q0 -21 8 -32t23 -23q18 -13 18 -25q0 -15 -17 -15q-10 0 -30 2q-28 2 -51 2h-8q-23 0 -51 -2zM196 -158
q-13 0 -13 7q0 3 7.5 6l12.5 5q33 7 33 29q0 8 -4.5 11.5t-12.5 5.5q-13 2 -20 9.5t-7 20.5q0 17 13 27.5t33 10.5q23 0 37.5 -14t14.5 -37q0 -28 -21 -51.5t-65 -28.5z" />
    <glyph glyph-name="ntilde" unicode="&#xf1;" horiz-adv-x="474" 
d="M62 -2q-20 -2 -30 -2q-17 0 -17 15q0 12 18 25q15 12 23 23t8 32v285q0 32 -7.5 47.5t-18.5 26.5t-11 17q0 15 35 20q27 2 64 19q20 10 30 10q8 0 11 -4.5t3 -16.5v-78h2q12 36 46 67.5t84 31.5q112 0 112 -118v-307q0 -21 8 -32t23 -23q18 -13 18 -25q0 -15 -17 -15
q-10 0 -30 2q-28 2 -51 2h-8q-23 0 -51 -2q-20 -2 -30 -2q-17 0 -17 15q0 12 18 25q15 12 23 23t8 32v300q0 38 -13.5 53.5t-36.5 15.5q-29 0 -53 -29.5t-35 -78.5v-261q0 -21 8 -32t23 -23q18 -13 18 -25q0 -15 -17 -15q-10 0 -30 2q-28 2 -51 2h-8q-23 0 -51 -2z
M257.5 616q-13.5 7 -32.5 20q-13 10 -22.5 14.5t-18.5 4.5q-15 0 -25 -11.5t-10 -29.5q0 -5 -4 -8t-8 -3q-5 0 -9 4t-4 10q0 45 18 67.5t46 22.5q14 0 26 -5t30 -16q29 -19 46 -19q15 0 23.5 12.5t8.5 27.5q0 7 3.5 11.5t8.5 4.5q6 0 10.5 -4.5t4.5 -14.5q0 -46 -16 -70.5
t-45 -24.5q-17 0 -30.5 7z" />
    <glyph glyph-name="eng" unicode="&#x14b;" horiz-adv-x="474" 
d="M183.5 -132.5q-37.5 21.5 -37.5 55.5q0 18 9.5 29t25.5 11q17 0 28 -11.5t23 -32.5q11 -19 20.5 -29.5t24.5 -10.5q17 0 24 20.5t7 77.5v414q0 39 -13 54t-37 15q-29 0 -53 -29.5t-35 -78.5v-261q0 -21 7.5 -32t22.5 -23q18 -13 18 -25q0 -15 -17 -15q-9 0 -29 2
q-28 2 -52 2h-7q-24 0 -52 -2q-20 -2 -29 -2q-17 0 -17 15q0 12 18 25q15 12 23 23t8 32v285q0 32 -7.5 47.5t-18.5 26.5t-11 17q0 15 35 20q26 2 43.5 10t20.5 9q18 10 29 10q8 0 11.5 -4.5t3.5 -16.5v-78h2q14 37 47 68t83 31q112 0 112 -118v-368q0 -92 -34.5 -138
t-109.5 -46q-49 0 -86.5 21.5z" />
    <glyph glyph-name="o" unicode="o" horiz-adv-x="525" 
d="M143.5 15.5q-55.5 31.5 -89.5 93t-34 147.5q0 80 35.5 139t91.5 90t117 31q60 0 115.5 -31t90.5 -90t35 -139q0 -86 -33.5 -147.5t-88.5 -93t-119 -31.5q-65 0 -120.5 31.5zM170.5 89q34.5 -57 95.5 -57q60 0 91.5 56.5t31.5 170.5q0 98 -34 153.5t-89 55.5
q-37 0 -66.5 -24.5t-46.5 -72t-17 -112.5q0 -113 34.5 -170z" />
    <glyph glyph-name="oacute" unicode="&#xf3;" horiz-adv-x="525" 
d="M143.5 15.5q-55.5 31.5 -89.5 93t-34 147.5q0 80 35.5 139t91.5 90t117 31q60 0 115.5 -31t90.5 -90t35 -139q0 -86 -33.5 -147.5t-88.5 -93t-119 -31.5q-65 0 -120.5 31.5zM170.5 89q34.5 -57 95.5 -57q60 0 91.5 56.5t31.5 170.5q0 98 -34 153.5t-89 55.5
q-37 0 -66.5 -24.5t-46.5 -72t-17 -112.5q0 -113 34.5 -170zM219 592.5q-5 4.5 -5 10.5l-5 79q-2 25 15 34.5t46 9.5q46 0 46 -25q0 -11 -13 -31l-48 -69q-7 -13 -24 -13q-7 0 -12 4.5z" />
    <glyph glyph-name="ocircumflex" unicode="&#xf4;" horiz-adv-x="525" 
d="M143.5 15.5q-55.5 31.5 -89.5 93t-34 147.5q0 80 35.5 139t91.5 90t117 31q60 0 115.5 -31t90.5 -90t35 -139q0 -86 -33.5 -147.5t-88.5 -93t-119 -31.5q-65 0 -120.5 31.5zM170.5 89q34.5 -57 95.5 -57q60 0 91.5 56.5t31.5 170.5q0 98 -34 153.5t-89 55.5
q-37 0 -66.5 -24.5t-46.5 -72t-17 -112.5q0 -113 34.5 -170zM165 601q0 5 2 8l56 94q14 23 39 23q11 0 21.5 -6t16.5 -17l57 -95q2 -2 2 -7t-3.5 -8t-10.5 -3q-9 0 -19 9l-65 55l-64 -58q-7 -6 -17 -6q-15 0 -15 11z" />
    <glyph glyph-name="odieresis" unicode="&#xf6;" horiz-adv-x="525" 
d="M143.5 15.5q-55.5 31.5 -89.5 93t-34 147.5q0 80 35.5 139t91.5 90t117 31q60 0 115.5 -31t90.5 -90t35 -139q0 -86 -33.5 -147.5t-88.5 -93t-119 -31.5q-65 0 -120.5 31.5zM170.5 89q34.5 -57 95.5 -57q60 0 91.5 56.5t31.5 170.5q0 98 -34 153.5t-89 55.5
q-37 0 -66.5 -24.5t-46.5 -72t-17 -112.5q0 -113 34.5 -170zM146 616.5q-18 17.5 -18 41.5t18 42t43 18t43 -18t18 -42t-18 -41.5t-43 -17.5t-43 17.5zM292.5 700q17.5 18 42.5 18t43 -18t18 -42t-18 -41.5t-43 -17.5t-42.5 17.5t-17.5 41.5t17.5 42z" />
    <glyph glyph-name="ograve" unicode="&#xf2;" horiz-adv-x="525" 
d="M143.5 15.5q-55.5 31.5 -89.5 93t-34 147.5q0 80 35.5 139t91.5 90t117 31q60 0 115.5 -31t90.5 -90t35 -139q0 -86 -33.5 -147.5t-88.5 -93t-119 -31.5q-65 0 -120.5 31.5zM170.5 89q34.5 -57 95.5 -57q60 0 91.5 56.5t31.5 170.5q0 98 -34 153.5t-89 55.5
q-37 0 -66.5 -24.5t-46.5 -72t-17 -112.5q0 -113 34.5 -170zM270 601l-47 69q-14 19 -14 31q0 25 46 25q29 0 46 -9.5t15 -34.5l-5 -79q0 -6 -4.5 -10.5t-12.5 -4.5q-17 0 -24 13z" />
    <glyph glyph-name="ohungarumlaut" unicode="&#x151;" horiz-adv-x="525" 
d="M143.5 15.5q-55.5 31.5 -89.5 93t-34 147.5q0 80 35.5 139t91.5 90t117 31q60 0 115.5 -31t90.5 -90t35 -139q0 -86 -33.5 -147.5t-88.5 -93t-119 -31.5q-65 0 -120.5 31.5zM170.5 89q34.5 -57 95.5 -57q60 0 91.5 56.5t31.5 170.5q0 98 -34 153.5t-89 55.5
q-37 0 -66.5 -24.5t-46.5 -72t-17 -112.5q0 -113 34.5 -170zM155 592.5q-5 4.5 -5 10.5l-5 79q-2 25 15 34.5t46 9.5q46 0 46 -25q0 -11 -13 -31l-48 -69q-7 -13 -24 -13q-7 0 -12 4.5zM287 716.5q17 9.5 46 9.5q46 0 46 -25q0 -11 -13 -31l-48 -69q-7 -13 -24 -13
q-7 0 -12 4.5t-5 10.5l-5 79q-2 25 15 34.5z" />
    <glyph glyph-name="omacron" unicode="&#x14d;" horiz-adv-x="525" 
d="M143.5 15.5q-55.5 31.5 -89.5 93t-34 147.5q0 80 35.5 139t91.5 90t117 31q60 0 115.5 -31t90.5 -90t35 -139q0 -86 -33.5 -147.5t-88.5 -93t-119 -31.5q-65 0 -120.5 31.5zM170.5 89q34.5 -57 95.5 -57q60 0 91.5 56.5t31.5 170.5q0 98 -34 153.5t-89 55.5
q-37 0 -66.5 -24.5t-46.5 -72t-17 -112.5q0 -113 34.5 -170zM171 687h183v-50h-183v50z" />
    <glyph glyph-name="oslash" unicode="&#xf8;" horiz-adv-x="525" 
d="M187 -4l-87 -237q-3 -5 -8 -5h-22q-7 0 -6 8l91 247q-61 30 -98 93.5t-37 153.5q0 80 35.5 139t91.5 90t117 31q38 0 75 -12l87 236q2 6 7 6h21q3 0 4.5 -2t0.5 -6l-91 -247q61 -30 99 -90.5t38 -144.5q0 -86 -33.5 -147.5t-88.5 -93t-119 -31.5q-39 0 -77 12zM180 75
l139 377q-26 16 -53 16q-37 0 -66.5 -24.5t-46.5 -72t-17 -112.5q0 -126 44 -184zM266 32q60 0 91.5 56.5t31.5 170.5q0 113 -44 168l-138 -378q26 -17 59 -17z" />
    <glyph glyph-name="otilde" unicode="&#xf5;" horiz-adv-x="525" 
d="M143.5 15.5q-55.5 31.5 -89.5 93t-34 147.5q0 80 35.5 139t91.5 90t117 31q60 0 115.5 -31t90.5 -90t35 -139q0 -86 -33.5 -147.5t-88.5 -93t-119 -31.5q-65 0 -120.5 31.5zM170.5 89q34.5 -57 95.5 -57q60 0 91.5 56.5t31.5 170.5q0 98 -34 153.5t-89 55.5
q-37 0 -66.5 -24.5t-46.5 -72t-17 -112.5q0 -113 34.5 -170zM283.5 616q-13.5 7 -32.5 20q-13 10 -22.5 14.5t-18.5 4.5q-15 0 -25 -11.5t-10 -29.5q0 -5 -4 -8t-8 -3q-5 0 -9 4t-4 10q0 45 18 67.5t46 22.5q14 0 26 -5t30 -16q29 -19 46 -19q15 0 23.5 12.5t8.5 27.5
q0 7 3.5 11.5t8.5 4.5q6 0 10.5 -4.5t4.5 -14.5q0 -46 -16 -70.5t-45 -24.5q-17 0 -30.5 7z" />
    <glyph glyph-name="oe" unicode="&#x153;" horiz-adv-x="846" 
d="M143.5 15.5q-55.5 31.5 -89.5 93t-34 147.5q0 80 35.5 139t91.5 90t117 31q52 0 101 -25t84 -71q34 49 85 72.5t110 23.5q54 0 97.5 -20t68.5 -55t25 -80q0 -59 -40 -88t-123 -29h-160q4 -101 48.5 -153.5t111.5 -52.5q83 0 134 57q11 9 16 9q7 0 7 -6t-6 -14
q-61 -100 -183 -100q-58 0 -108 23.5t-83 70.5q-33 -46 -81.5 -70t-103.5 -24q-65 0 -120.5 31.5zM170.5 89q34.5 -57 95.5 -57q60 0 91.5 56.5t31.5 170.5q0 98 -34 153.5t-89 55.5q-37 0 -66.5 -24.5t-46.5 -72t-17 -112.5q0 -113 34.5 -170zM634 276q96 0 96 86
q0 47 -24 75.5t-64 28.5q-57 0 -92 -45.5t-38 -144.5h122z" />
    <glyph glyph-name="p" unicode="p" horiz-adv-x="493" 
d="M61 -202q-20 -2 -29 -2q-17 0 -17 15q0 12 18 25q15 12 23 23t8 32v485q0 32 -7.5 47.5t-18.5 26.5t-11 17q0 15 35 20q26 2 43.5 10t20.5 9q18 10 29 10q8 0 11.5 -4.5t3.5 -16.5v-25q29 24 55 35t55 11q45 0 89.5 -27.5t74 -86t29.5 -147.5q0 -90 -28.5 -151
t-71.5 -90.5t-87 -29.5q-43 0 -71 14t-41 33h-4v-140q0 -21 7.5 -32t22.5 -23q18 -13 18 -25q0 -15 -17 -15q-9 0 -29 2q-28 2 -52 2h-7q-24 0 -52 -2zM197.5 55q23.5 -23 57.5 -23q44 0 73 56t29 171q0 104 -31.5 159t-79.5 55q-28 0 -49.5 -18t-26.5 -42v-291
q4 -44 27.5 -67z" />
    <glyph glyph-name="thorn" unicode="&#xfe;" horiz-adv-x="515" 
d="M61 -202q-20 -2 -29 -2q-17 0 -17 15q0 12 18 25q15 12 23 23t8 32v685q0 32 -7.5 47.5t-18.5 26.5t-11 17q0 15 35 20q26 2 43.5 10t20.5 9q18 10 29 10q8 0 11.5 -4.5t3.5 -16.5v-218h3q38 39 114 39q50 0 97.5 -27.5t79 -86t31.5 -146.5q0 -91 -30.5 -152.5t-79 -90.5
t-104.5 -29q-31 0 -59 11.5t-47 34.5h-5v-139q0 -21 7.5 -32t22.5 -23q18 -13 18 -25q0 -15 -17 -15q-9 0 -29 2q-28 2 -52 2h-7q-24 0 -52 -2zM197.5 57q27.5 -27 64.5 -27q49 0 83 52.5t34 168.5q0 111 -33 164.5t-93 53.5q-34 0 -58.5 -18t-24.5 -50v-282q0 -35 27.5 -62
z" />
    <glyph glyph-name="q" unicode="q" horiz-adv-x="487" 
d="M319 -202q-20 -2 -29 -2q-17 0 -17 15q0 12 18 25q15 12 22.5 23t7.5 32v148h-4q-9 -20 -37.5 -37.5t-64.5 -17.5q-49 0 -93.5 28.5t-73 86t-28.5 141.5q0 99 30.5 160.5t75.5 88.5t89 27q35 0 59 -9t48 -31v21l99 18l6 1q10 0 12 -10q0 -2 -6 -17t-6 -36v-562
q0 -21 8 -32t23 -23q18 -13 18 -25q0 -15 -17 -15q-9 0 -29 2q-28 2 -52 2h-8q-23 0 -51 -2zM163.5 83.5q27.5 -52.5 72.5 -52.5q34 0 56 31.5t29 85.5v259q-8 28 -27 45t-46 17q-50 0 -81 -54t-31 -174q0 -105 27.5 -157.5z" />
    <glyph glyph-name="r" unicode="r" horiz-adv-x="375" 
d="M61 -2q-20 -2 -29 -2q-17 0 -17 15q0 12 18 25q15 12 23 23t8 32v285q0 32 -7.5 47.5t-18.5 26.5t-11 17q0 15 35 20q26 2 43.5 10t20.5 9q18 10 29 10q8 0 11.5 -4.5t3.5 -16.5v-57q24 33 58.5 55.5t79.5 22.5q34 0 53 -14.5t19 -40.5q0 -22 -12 -33.5t-32 -11.5
q-12 0 -20 4t-19 13q-12 10 -22 15t-25 5q-21 0 -43 -17t-37 -46v-299q0 -21 7.5 -32t22.5 -23q18 -13 18 -25q0 -15 -17 -15q-9 0 -29 2q-28 2 -52 2h-7q-24 0 -52 -2z" />
    <glyph glyph-name="racute" unicode="&#x155;" horiz-adv-x="375" 
d="M61 -2q-20 -2 -29 -2q-17 0 -17 15q0 12 18 25q15 12 23 23t8 32v285q0 32 -7.5 47.5t-18.5 26.5t-11 17q0 15 35 20q26 2 43.5 10t20.5 9q18 10 29 10q8 0 11.5 -4.5t3.5 -16.5v-57q24 33 58.5 55.5t79.5 22.5q34 0 53 -14.5t19 -40.5q0 -22 -12 -33.5t-32 -11.5
q-12 0 -20 4t-19 13q-12 10 -22 15t-25 5q-21 0 -43 -17t-37 -46v-299q0 -21 7.5 -32t22.5 -23q18 -13 18 -25q0 -15 -17 -15q-9 0 -29 2q-28 2 -52 2h-7q-24 0 -52 -2zM144 592.5q-5 4.5 -5 10.5l-5 79q-2 25 15 34.5t46 9.5q46 0 46 -25q0 -11 -13 -31l-48 -69
q-7 -13 -24 -13q-7 0 -12 4.5z" />
    <glyph glyph-name="rcaron" unicode="&#x159;" horiz-adv-x="375" 
d="M61 -2q-20 -2 -29 -2q-17 0 -17 15q0 12 18 25q15 12 23 23t8 32v285q0 32 -7.5 47.5t-18.5 26.5t-11 17q0 15 35 20q26 2 43.5 10t20.5 9q18 10 29 10q8 0 11.5 -4.5t3.5 -16.5v-57q24 33 58.5 55.5t79.5 22.5q34 0 53 -14.5t19 -40.5q0 -22 -12 -33.5t-32 -11.5
q-12 0 -20 4t-19 13q-12 10 -22 15t-25 5q-21 0 -43 -17t-37 -46v-299q0 -21 7.5 -32t22.5 -23q18 -13 18 -25q0 -15 -17 -15q-9 0 -29 2q-28 2 -52 2h-7q-24 0 -52 -2zM148 613l-56 94q-2 3 -2 8q0 11 15 11q10 0 17 -6l64 -58l65 55q10 9 19 9t13 -6t-1 -12l-57 -95
q-7 -11 -17 -17t-21 -6q-24 0 -39 23z" />
    <glyph glyph-name="uni0157" unicode="&#x157;" horiz-adv-x="375" 
d="M61 -2q-20 -2 -29 -2q-17 0 -17 15q0 12 18 25q15 12 23 23t8 32v285q0 32 -7.5 47.5t-18.5 26.5t-11 17q0 15 35 20q26 2 43.5 10t20.5 9q18 10 29 10q8 0 11.5 -4.5t3.5 -16.5v-57q24 33 58.5 55.5t79.5 22.5q34 0 53 -14.5t19 -40.5q0 -22 -12 -33.5t-32 -11.5
q-12 0 -20 4t-19 13q-12 10 -22 15t-25 5q-21 0 -43 -17t-37 -46v-299q0 -21 7.5 -32t22.5 -23q18 -13 18 -25q0 -15 -17 -15q-9 0 -29 2q-28 2 -52 2h-7q-24 0 -52 -2zM75 -158q-13 0 -13 7q0 3 7.5 6l12.5 5q33 7 33 29q0 8 -4.5 11.5t-12.5 5.5q-13 2 -20 9.5t-7 20.5
q0 17 13 27.5t33 10.5q23 0 37.5 -14t14.5 -37q0 -28 -21 -51.5t-65 -28.5z" />
    <glyph glyph-name="s" unicode="s" horiz-adv-x="461" 
d="M139.5 -3q-45.5 12 -72 27.5t-28.5 25.5q-15 77 -15 101q0 11 7 11q6 0 35 -27q50 -46 95 -75.5t99 -29.5q37 0 59 16.5t22 45.5t-19 51.5t-48 39t-77 38.5q-56 26 -89 46t-56.5 50t-23.5 70q0 64 57.5 96.5t144.5 32.5q68 0 109 -11.5t47 -28.5q10 -32 18 -59t9 -40v-2
q0 -8 -9 -8q-5 0 -15 7.5t-21 18.5q-37 34 -72 55.5t-80 21.5q-39 0 -59.5 -14.5t-20.5 -37.5q0 -32 31 -54.5t96 -52.5q58 -26 94 -48t62 -55t26 -79q0 -69 -54 -106.5t-148 -37.5q-58 0 -103.5 12z" />
    <glyph glyph-name="sacute" unicode="&#x15b;" horiz-adv-x="461" 
d="M139.5 -3q-45.5 12 -72 27.5t-28.5 25.5q-15 77 -15 101q0 11 7 11q6 0 35 -27q50 -46 95 -75.5t99 -29.5q37 0 59 16.5t22 45.5t-19 51.5t-48 39t-77 38.5q-56 26 -89 46t-56.5 50t-23.5 70q0 64 57.5 96.5t144.5 32.5q68 0 109 -11.5t47 -28.5q10 -32 18 -59t9 -40v-2
q0 -8 -9 -8q-5 0 -15 7.5t-21 18.5q-37 34 -72 55.5t-80 21.5q-39 0 -59.5 -14.5t-20.5 -37.5q0 -32 31 -54.5t96 -52.5q58 -26 94 -48t62 -55t26 -79q0 -69 -54 -106.5t-148 -37.5q-58 0 -103.5 12zM187 592.5q-5 4.5 -5 10.5l-5 79q-2 25 15 34.5t46 9.5q46 0 46 -25
q0 -11 -13 -31l-48 -69q-7 -13 -24 -13q-7 0 -12 4.5z" />
    <glyph glyph-name="uniA78C" unicode="&#xa78c;" horiz-adv-x="210" 
d="M52 520v215h106v-215l-39 -78h-27z" />
    <glyph glyph-name="scaron" unicode="&#x161;" horiz-adv-x="461" 
d="M139.5 -3q-45.5 12 -72 27.5t-28.5 25.5q-15 77 -15 101q0 11 7 11q6 0 35 -27q50 -46 95 -75.5t99 -29.5q37 0 59 16.5t22 45.5t-19 51.5t-48 39t-77 38.5q-56 26 -89 46t-56.5 50t-23.5 70q0 64 57.5 96.5t144.5 32.5q68 0 109 -11.5t47 -28.5q10 -32 18 -59t9 -40v-2
q0 -8 -9 -8q-5 0 -15 7.5t-21 18.5q-37 34 -72 55.5t-80 21.5q-39 0 -59.5 -14.5t-20.5 -37.5q0 -32 31 -54.5t96 -52.5q58 -26 94 -48t62 -55t26 -79q0 -69 -54 -106.5t-148 -37.5q-58 0 -103.5 12zM192 613l-56 94q-2 3 -2 8q0 11 15 11q10 0 17 -6l64 -58l65 55
q10 9 19 9t13 -6t-1 -12l-57 -95q-7 -11 -17 -17t-21 -6q-24 0 -39 23z" />
    <glyph glyph-name="scedilla" unicode="&#x15f;" horiz-adv-x="461" 
d="M242 -15l-9 -30l1 -2q6 5 16 8.5t20 3.5q24 0 40.5 -18t16.5 -46q0 -32 -21.5 -53t-55.5 -21q-20 0 -38.5 10t-28.5 25q-4 4 -4 8t4 5t8 -3q17 -20 42 -20q18 0 29.5 10t11.5 26t-11 26t-28 10q-9 0 -19.5 -4.5t-13.5 -4.5q-8 0 -8 9q0 5 3 14l17 48q-50 3 -89 14.5
t-61.5 26t-24.5 23.5q-15 77 -15 101q0 11 7 11q6 0 35 -27q50 -46 95 -75.5t99 -29.5q37 0 59 16.5t22 45.5t-19 51.5t-48 39t-77 38.5q-56 26 -89 46t-56.5 50t-23.5 70q0 64 57.5 96.5t144.5 32.5q68 0 109 -11.5t47 -28.5q10 -32 18 -59t9 -40v-2q0 -8 -9 -8
q-5 0 -15 7.5t-21 18.5q-37 34 -72 55.5t-80 21.5q-39 0 -59.5 -14.5t-20.5 -37.5q0 -32 31 -54.5t96 -52.5q58 -26 94 -48t62 -55t26 -79q0 -69 -54 -106.5t-148 -37.5h-1z" />
    <glyph glyph-name="scircumflex" unicode="&#x15d;" horiz-adv-x="461" 
d="M139.5 -3q-45.5 12 -72 27.5t-28.5 25.5q-15 77 -15 101q0 11 7 11q6 0 35 -27q50 -46 95 -75.5t99 -29.5q37 0 59 16.5t22 45.5t-19 51.5t-48 39t-77 38.5q-56 26 -89 46t-56.5 50t-23.5 70q0 64 57.5 96.5t144.5 32.5q68 0 109 -11.5t47 -28.5q10 -32 18 -59t9 -40v-2
q0 -8 -9 -8q-5 0 -15 7.5t-21 18.5q-37 34 -72 55.5t-80 21.5q-39 0 -59.5 -14.5t-20.5 -37.5q0 -32 31 -54.5t96 -52.5q58 -26 94 -48t62 -55t26 -79q0 -69 -54 -106.5t-148 -37.5q-58 0 -103.5 12zM134 601q0 5 2 8l56 94q14 23 39 23q11 0 21.5 -6t16.5 -17l57 -95
q2 -2 2 -7t-3.5 -8t-10.5 -3q-9 0 -19 9l-65 55l-64 -58q-7 -6 -17 -6q-15 0 -15 11z" />
    <glyph glyph-name="uni0219" unicode="&#x219;" horiz-adv-x="461" 
d="M139.5 -3q-45.5 12 -72 27.5t-28.5 25.5q-15 77 -15 101q0 11 7 11q6 0 35 -27q50 -46 95 -75.5t99 -29.5q37 0 59 16.5t22 45.5t-19 51.5t-48 39t-77 38.5q-56 26 -89 46t-56.5 50t-23.5 70q0 64 57.5 96.5t144.5 32.5q68 0 109 -11.5t47 -28.5q10 -32 18 -59t9 -40v-2
q0 -8 -9 -8q-5 0 -15 7.5t-21 18.5q-37 34 -72 55.5t-80 21.5q-39 0 -59.5 -14.5t-20.5 -37.5q0 -32 31 -54.5t96 -52.5q58 -26 94 -48t62 -55t26 -79q0 -69 -54 -106.5t-148 -37.5q-58 0 -103.5 12zM190 -158q-13 0 -13 7q0 3 7.5 6l12.5 5q33 7 33 29q0 8 -4.5 11.5
t-12.5 5.5q-13 2 -20 9.5t-7 20.5q0 17 13 27.5t33 10.5q23 0 37.5 -14t14.5 -37q0 -28 -21 -51.5t-65 -28.5z" />
    <glyph glyph-name="germandbls" unicode="&#xdf;" horiz-adv-x="654" 
d="M328.5 -2.5q-43.5 12.5 -73 38.5t-29.5 63q0 28 15.5 42.5t38.5 14.5q22 0 36.5 -15t14.5 -44q0 -42 25.5 -62t65.5 -20q50 0 79 40t29 105q0 61 -29.5 105.5t-69 71.5t-100.5 58q-49 25 -70 40t-21 34q0 18 16 28t51 23q34 12 55.5 22.5t37 31.5t15.5 54q0 47 -31.5 69
t-80.5 22q-69 0 -99 -37.5t-30 -125.5v-465q0 -21 8 -32t23 -23q18 -13 18 -25q0 -15 -17 -15q-10 0 -30 2q-28 2 -51 2h-8q-23 0 -51 -2q-20 -2 -30 -2q-17 0 -17 15q0 12 18 25q15 12 23 23t8 32v334q0 15 -7.5 23t-22.5 15q-11 7 -15.5 11t-4.5 11q0 15 20 15h30v15
q0 122 59.5 175.5t180.5 53.5q94 0 156 -28t62 -88q0 -42 -26.5 -68t-61.5 -38t-86 -23q-35 -7 -52 -13t-17 -16t18.5 -18.5t63.5 -23.5q76 -24 132.5 -50.5t99.5 -77t43 -127.5q0 -62 -31 -104.5t-82.5 -63t-113.5 -20.5q-41 0 -84.5 12.5z" />
    <glyph glyph-name="t" unicode="t" horiz-adv-x="297" 
d="M83 14.5q-29 29.5 -29 90.5v321q0 19 -7 28t-19 17q-5 3 -9 7t-4 9q0 7 5 11t14 4q20 0 34 17t34 53q12 24 21 36t18 12q19 0 19 -31v-89h87q15 0 21.5 -7t6.5 -25q0 -29 -18 -29q-7 0 -13.5 3.5t-12.5 8.5q-11 9 -20.5 13.5t-24.5 4.5h-26v-359q0 -39 9.5 -54t30.5 -15
q27 0 69 37q11 11 16 6q2 -2 2 -5q0 -9 -12 -24q-51 -70 -117 -70q-46 0 -75 29.5z" />
    <glyph glyph-name="tbar" unicode="&#x167;" horiz-adv-x="297" 
d="M83 14.5q-29 29.5 -29 90.5v121h-45v46h45v154q0 19 -7 28t-19 17q-5 3 -9 7t-4 9q0 7 5 11t14 4q20 0 34 17t34 53q12 24 21 36t18 12q19 0 19 -31v-89h87q15 0 21.5 -7t6.5 -25q0 -29 -18 -29q-7 0 -13.5 3.5t-12.5 8.5q-11 9 -20.5 13.5t-24.5 4.5h-26v-197h97v-46
h-97v-116q0 -39 9.5 -54t30.5 -15q27 0 69 37q11 11 16 6q2 -2 2 -5q0 -9 -12 -24q-51 -70 -117 -70q-46 0 -75 29.5z" />
    <glyph glyph-name="tcaron" unicode="&#x165;" horiz-adv-x="297" 
d="M83 14.5q-29 29.5 -29 90.5v321q0 19 -7 28t-19 17q-5 3 -9 7t-4 9q0 7 5 11t14 4q20 0 34 17t34 53q12 24 21 36t18 12q19 0 19 -31v-89h87q15 0 21.5 -7t6.5 -25q0 -29 -18 -29q-7 0 -13.5 3.5t-12.5 8.5q-11 9 -20.5 13.5t-24.5 4.5h-26v-359q0 -39 9.5 -54t30.5 -15
q27 0 69 37q11 11 16 6q2 -2 2 -5q0 -9 -12 -24q-51 -70 -117 -70q-46 0 -75 29.5zM220 586.5q-5 4.5 -5 10.5l-5 79q-4 44 61 44q46 0 46 -25q0 -11 -13 -31l-48 -69q-7 -13 -24 -13q-7 0 -12 4.5z" />
    <glyph glyph-name="uni0163" unicode="&#x163;" horiz-adv-x="297" 
d="M129.5 -163q-18.5 10 -28.5 25q-4 4 -4 8t4 5t8 -3q17 -20 42 -20q18 0 29.5 10t11.5 26t-11 26t-28 10q-9 0 -19.5 -4.5t-13.5 -4.5q-8 0 -8 9q0 5 3 14l17 50q-35 7 -56.5 36t-21.5 81v321q0 19 -7 28t-19 17q-5 3 -9 7t-4 9q0 7 5 11t14 4q20 0 34 17t34 53
q12 24 21 36t18 12q19 0 19 -31v-89h87q15 0 21.5 -7t6.5 -25q0 -29 -18 -29q-7 0 -13.5 3.5t-12.5 8.5q-11 9 -20.5 13.5t-24.5 4.5h-26v-359q0 -39 9.5 -54t30.5 -15q27 0 69 37q11 11 16 6q2 -2 2 -5q0 -9 -12 -24q-51 -69 -115 -70l-9 -30l1 -2q6 5 16 8.5t20 3.5
q24 0 40.5 -18t16.5 -46q0 -32 -21.5 -53t-55.5 -21q-20 0 -38.5 10z" />
    <glyph glyph-name="uni021B" unicode="&#x21b;" horiz-adv-x="297" 
d="M83 14.5q-29 29.5 -29 90.5v321q0 19 -7 28t-19 17q-5 3 -9 7t-4 9q0 7 5 11t14 4q20 0 34 17t34 53q12 24 21 36t18 12q19 0 19 -31v-89h87q15 0 21.5 -7t6.5 -25q0 -29 -18 -29q-7 0 -13.5 3.5t-12.5 8.5q-11 9 -20.5 13.5t-24.5 4.5h-26v-359q0 -39 9.5 -54t30.5 -15
q27 0 69 37q11 11 16 6q2 -2 2 -5q0 -9 -12 -24q-51 -70 -117 -70q-46 0 -75 29.5zM108 -158q-13 0 -13 7q0 3 7.5 6l12.5 5q33 7 33 29q0 8 -4.5 11.5t-12.5 5.5q-13 2 -20 9.5t-7 20.5q0 17 13 27.5t33 10.5q23 0 37.5 -14t14.5 -37q0 -28 -21 -51.5t-65 -28.5z" />
    <glyph glyph-name="u" unicode="u" horiz-adv-x="451" 
d="M54 102v307q0 21 -8 32t-23 23q-18 13 -18 25q0 15 17 15q9 0 29 -2q28 -2 52 -2h51q15 0 15 -12q0 -3 -4.5 -16t-4.5 -35v-328q0 -71 53 -71q23 0 46 20.5t39 52.5v298q0 21 -7.5 32t-22.5 23q-18 13 -18 25q0 15 17 15q9 0 29 -2q28 -2 51 -2h51q16 0 16 -12
q0 -3 -5 -16t-5 -35v-313q0 -42 7.5 -61.5t18.5 -31.5t11 -19t-8 -10.5t-27 -5.5q-31 -3 -57 -8q-30 -4 -37 -4q-8 0 -11 4.5t-3 16.5v67q-21 -36 -56 -62t-78 -26q-110 0 -110 118z" />
    <glyph glyph-name="uacute" unicode="&#xfa;" horiz-adv-x="451" 
d="M54 102v307q0 21 -8 32t-23 23q-18 13 -18 25q0 15 17 15q9 0 29 -2q28 -2 52 -2h51q15 0 15 -12q0 -3 -4.5 -16t-4.5 -35v-328q0 -71 53 -71q23 0 46 20.5t39 52.5v298q0 21 -7.5 32t-22.5 23q-18 13 -18 25q0 15 17 15q9 0 29 -2q28 -2 51 -2h51q16 0 16 -12
q0 -3 -5 -16t-5 -35v-313q0 -42 7.5 -61.5t18.5 -31.5t11 -19t-8 -10.5t-27 -5.5q-31 -3 -57 -8q-30 -4 -37 -4q-8 0 -11 4.5t-3 16.5v67q-21 -36 -56 -62t-78 -26q-110 0 -110 118zM183 592.5q-5 4.5 -5 10.5l-5 79q-2 25 15 34.5t46 9.5q46 0 46 -25q0 -11 -13 -31
l-48 -69q-7 -13 -24 -13q-7 0 -12 4.5z" />
    <glyph glyph-name="ubreve" unicode="&#x16d;" horiz-adv-x="451" 
d="M54 102v307q0 21 -8 32t-23 23q-18 13 -18 25q0 15 17 15q9 0 29 -2q28 -2 52 -2h51q15 0 15 -12q0 -3 -4.5 -16t-4.5 -35v-328q0 -71 53 -71q23 0 46 20.5t39 52.5v298q0 21 -7.5 32t-22.5 23q-18 13 -18 25q0 15 17 15q9 0 29 -2q28 -2 51 -2h51q16 0 16 -12
q0 -3 -5 -16t-5 -35v-313q0 -42 7.5 -61.5t18.5 -31.5t11 -19t-8 -10.5t-27 -5.5q-31 -3 -57 -8q-30 -4 -37 -4q-8 0 -11 4.5t-3 16.5v67q-21 -36 -56 -62t-78 -26q-110 0 -110 118zM155.5 625.5q-26.5 35.5 -33.5 82.5v3q0 6 3.5 10t7.5 5q7 0 11 -8q31 -68 81 -68
q26 0 47 18t35 51q4 8 11 8q5 0 9 -5t3 -12q-11 -53 -36.5 -86.5t-68.5 -33.5t-69.5 35.5z" />
    <glyph glyph-name="ucircumflex" unicode="&#xfb;" horiz-adv-x="451" 
d="M54 102v307q0 21 -8 32t-23 23q-18 13 -18 25q0 15 17 15q9 0 29 -2q28 -2 52 -2h51q15 0 15 -12q0 -3 -4.5 -16t-4.5 -35v-328q0 -71 53 -71q23 0 46 20.5t39 52.5v298q0 21 -7.5 32t-22.5 23q-18 13 -18 25q0 15 17 15q9 0 29 -2q28 -2 51 -2h51q16 0 16 -12
q0 -3 -5 -16t-5 -35v-313q0 -42 7.5 -61.5t18.5 -31.5t11 -19t-8 -10.5t-27 -5.5q-31 -3 -57 -8q-30 -4 -37 -4q-8 0 -11 4.5t-3 16.5v67q-21 -36 -56 -62t-78 -26q-110 0 -110 118zM129 601q0 5 2 8l56 94q14 23 39 23q11 0 21.5 -6t16.5 -17l57 -95q2 -2 2 -7t-3.5 -8
t-10.5 -3q-9 0 -19 9l-65 55l-64 -58q-7 -6 -17 -6q-15 0 -15 11z" />
    <glyph glyph-name="udieresis" unicode="&#xfc;" horiz-adv-x="451" 
d="M54 102v307q0 21 -8 32t-23 23q-18 13 -18 25q0 15 17 15q9 0 29 -2q28 -2 52 -2h51q15 0 15 -12q0 -3 -4.5 -16t-4.5 -35v-328q0 -71 53 -71q23 0 46 20.5t39 52.5v298q0 21 -7.5 32t-22.5 23q-18 13 -18 25q0 15 17 15q9 0 29 -2q28 -2 51 -2h51q16 0 16 -12
q0 -3 -5 -16t-5 -35v-313q0 -42 7.5 -61.5t18.5 -31.5t11 -19t-8 -10.5t-27 -5.5q-31 -3 -57 -8q-30 -4 -37 -4q-8 0 -11 4.5t-3 16.5v67q-21 -36 -56 -62t-78 -26q-110 0 -110 118zM109 616.5q-18 17.5 -18 41.5t18 42t43 18t43 -18t18 -42t-18 -41.5t-43 -17.5t-43 17.5z
M255.5 700q17.5 18 42.5 18t43 -18t18 -42t-18 -41.5t-43 -17.5t-42.5 17.5t-17.5 41.5t17.5 42z" />
    <glyph glyph-name="ugrave" unicode="&#xf9;" horiz-adv-x="451" 
d="M54 102v307q0 21 -8 32t-23 23q-18 13 -18 25q0 15 17 15q9 0 29 -2q28 -2 52 -2h51q15 0 15 -12q0 -3 -4.5 -16t-4.5 -35v-328q0 -71 53 -71q23 0 46 20.5t39 52.5v298q0 21 -7.5 32t-22.5 23q-18 13 -18 25q0 15 17 15q9 0 29 -2q28 -2 51 -2h51q16 0 16 -12
q0 -3 -5 -16t-5 -35v-313q0 -42 7.5 -61.5t18.5 -31.5t11 -19t-8 -10.5t-27 -5.5q-31 -3 -57 -8q-30 -4 -37 -4q-8 0 -11 4.5t-3 16.5v67q-21 -36 -56 -62t-78 -26q-110 0 -110 118zM233 601l-47 69q-14 19 -14 31q0 25 46 25q29 0 46 -9.5t15 -34.5l-5 -79q0 -6 -4.5 -10.5
t-12.5 -4.5q-17 0 -24 13z" />
    <glyph glyph-name="uhungarumlaut" unicode="&#x171;" horiz-adv-x="451" 
d="M54 102v307q0 21 -8 32t-23 23q-18 13 -18 25q0 15 17 15q9 0 29 -2q28 -2 52 -2h51q15 0 15 -12q0 -3 -4.5 -16t-4.5 -35v-328q0 -71 53 -71q23 0 46 20.5t39 52.5v298q0 21 -7.5 32t-22.5 23q-18 13 -18 25q0 15 17 15q9 0 29 -2q28 -2 51 -2h51q16 0 16 -12
q0 -3 -5 -16t-5 -35v-313q0 -42 7.5 -61.5t18.5 -31.5t11 -19t-8 -10.5t-27 -5.5q-31 -3 -57 -8q-30 -4 -37 -4q-8 0 -11 4.5t-3 16.5v67q-21 -36 -56 -62t-78 -26q-110 0 -110 118zM119 592.5q-5 4.5 -5 10.5l-5 79q-2 25 15 34.5t46 9.5q46 0 46 -25q0 -11 -13 -31
l-48 -69q-7 -13 -24 -13q-7 0 -12 4.5zM251 716.5q17 9.5 46 9.5q46 0 46 -25q0 -11 -13 -31l-48 -69q-7 -13 -24 -13q-7 0 -12 4.5t-5 10.5l-5 79q-2 25 15 34.5z" />
    <glyph glyph-name="umacron" unicode="&#x16b;" horiz-adv-x="451" 
d="M54 102v307q0 21 -8 32t-23 23q-18 13 -18 25q0 15 17 15q9 0 29 -2q28 -2 52 -2h51q15 0 15 -12q0 -3 -4.5 -16t-4.5 -35v-328q0 -71 53 -71q23 0 46 20.5t39 52.5v298q0 21 -7.5 32t-22.5 23q-18 13 -18 25q0 15 17 15q9 0 29 -2q28 -2 51 -2h51q16 0 16 -12
q0 -3 -5 -16t-5 -35v-313q0 -42 7.5 -61.5t18.5 -31.5t11 -19t-8 -10.5t-27 -5.5q-31 -3 -57 -8q-30 -4 -37 -4q-8 0 -11 4.5t-3 16.5v67q-21 -36 -56 -62t-78 -26q-110 0 -110 118zM134 687h183v-50h-183v50z" />
    <glyph glyph-name="uogonek" unicode="&#x173;" horiz-adv-x="451" 
d="M54 102v307q0 21 -8 32t-23 23q-18 13 -18 25q0 15 17 15q9 0 29 -2q28 -2 52 -2h51q15 0 15 -12q0 -3 -4.5 -16t-4.5 -35v-328q0 -71 53 -71q23 0 46 20.5t39 52.5v298q0 21 -7.5 32t-22.5 23q-18 13 -18 25q0 15 17 15q9 0 29 -2q28 -2 51 -2h51q16 0 16 -12
q0 -3 -5 -16t-5 -35v-313q0 -42 7.5 -61.5t18.5 -31.5t11 -19t-8 -10.5t-27 -5.5h-3q-23 -17 -42 -41.5t-19 -44.5q0 -11 8.5 -18t24.5 -7q6 0 10 -4t4 -10q0 -13 -15 -24.5t-41 -11.5q-27 0 -41 14.5t-14 35.5q0 59 79 105q-7 -1 -21 -3.5t-24 -2.5q-8 0 -11 4.5t-3 16.5
v67q-21 -36 -56 -62t-78 -26q-110 0 -110 118z" />
    <glyph glyph-name="uring" unicode="&#x16f;" horiz-adv-x="451" 
d="M54 102v307q0 21 -8 32t-23 23q-18 13 -18 25q0 15 17 15q9 0 29 -2q28 -2 52 -2h51q15 0 15 -12q0 -3 -4.5 -16t-4.5 -35v-328q0 -71 53 -71q23 0 46 20.5t39 52.5v298q0 21 -7.5 32t-22.5 23q-18 13 -18 25q0 15 17 15q9 0 29 -2q28 -2 51 -2h51q16 0 16 -12
q0 -3 -5 -16t-5 -35v-313q0 -42 7.5 -61.5t18.5 -31.5t11 -19t-8 -10.5t-27 -5.5q-31 -3 -57 -8q-30 -4 -37 -4q-8 0 -11 4.5t-3 16.5v67q-21 -36 -56 -62t-78 -26q-110 0 -110 118zM167.5 610q-23.5 20 -23.5 49q0 28 24 47.5t60 19.5q34 0 57 -19t23 -48t-23.5 -49
t-58.5 -20t-58.5 20zM201 636.5q10 -8.5 25 -8.5q16 0 26 8.5t10 22.5q0 13 -10.5 21.5t-24.5 8.5q-16 0 -26 -8.5t-10 -21.5q0 -14 10 -22.5z" />
    <glyph glyph-name="utilde" unicode="&#x169;" horiz-adv-x="451" 
d="M54 102v307q0 21 -8 32t-23 23q-18 13 -18 25q0 15 17 15q9 0 29 -2q28 -2 52 -2h51q15 0 15 -12q0 -3 -4.5 -16t-4.5 -35v-328q0 -71 53 -71q23 0 46 20.5t39 52.5v298q0 21 -7.5 32t-22.5 23q-18 13 -18 25q0 15 17 15q9 0 29 -2q28 -2 51 -2h51q16 0 16 -12
q0 -3 -5 -16t-5 -35v-313q0 -42 7.5 -61.5t18.5 -31.5t11 -19t-8 -10.5t-27 -5.5q-31 -3 -57 -8q-30 -4 -37 -4q-8 0 -11 4.5t-3 16.5v67q-21 -36 -56 -62t-78 -26q-110 0 -110 118zM246.5 616q-13.5 7 -32.5 20q-13 10 -22.5 14.5t-18.5 4.5q-15 0 -25 -11.5t-10 -29.5
q0 -5 -4 -8t-8 -3q-5 0 -9 4t-4 10q0 45 18 67.5t46 22.5q14 0 26 -5t30 -16q29 -19 46 -19q15 0 23.5 12.5t8.5 27.5q0 7 3.5 11.5t8.5 4.5q6 0 10.5 -4.5t4.5 -14.5q0 -46 -16 -70.5t-45 -24.5q-17 0 -30.5 7z" />
    <glyph glyph-name="v" unicode="v" horiz-adv-x="519" 
d="M217 12q0 12 -14 46l-139 349q-7 19 -19.5 30t-31.5 23q-13 8 -19.5 13.5t-6.5 14.5q0 17 19 17q10 0 34 -2q48 -3 59 -3q10 0 52 3q22 2 30 2q17 0 17 -17q0 -12 -15 -25q-9 -8 -13.5 -14.5t-4.5 -17.5q0 -10 6 -25l121 -299l115 296q5 11 5 24q0 12 -5.5 19.5
t-15.5 15.5q-8 7 -12.5 12.5t-4.5 13.5q0 17 19 17q9 0 29 -2q18 -2 31 -2q9 0 23 2l29 1q18 0 18 -15q0 -8 -5.5 -13t-18.5 -13q-16 -9 -27.5 -19.5t-18.5 -27.5l-137 -357q-13 -35 -13 -47t-15 -12h-55q-16 0 -16 12z" />
    <glyph glyph-name="w" unicode="w" horiz-adv-x="757" 
d="M210 12q0 12 -13 47l-134 348q-7 19 -19 29.5t-31 23.5q-13 7 -19.5 13t-6.5 15q0 17 19 17q10 0 34 -2q48 -3 59 -3q10 0 52 3q22 2 30 2q17 0 17 -17q0 -12 -15 -25q-9 -8 -13.5 -15t-4.5 -18t5 -24l116 -305l83 224l-27 81q-6 20 -17.5 31t-30.5 23q-13 9 -19 14.5
t-6 13.5q0 17 19 17q10 0 34 -2q48 -3 58 -3q8 0 53 3q20 2 30 2q17 0 17 -17q0 -8 -4 -13.5t-12 -12.5q-10 -8 -15 -15.5t-5 -19.5q0 -11 4 -22l94 -303l109 301q4 12 4 22q0 12 -5.5 20t-16.5 17q-8 7 -12.5 12.5t-4.5 13.5q0 17 19 17q10 0 58 -4q10 0 22 2l28 1
q18 0 18 -15q0 -8 -5.5 -13t-17.5 -13q-16 -9 -27.5 -19.5t-18.5 -28.5l-130 -356q-11 -30 -11 -47q0 -12 -16 -12h-55q-16 0 -16 12q0 17 -9 48l-69 211l-78 -212q-12 -33 -12 -47q0 -12 -15 -12h-56q-15 0 -15 12z" />
    <glyph glyph-name="wacute" unicode="&#x1e83;" horiz-adv-x="757" 
d="M210 12q0 12 -13 47l-134 348q-7 19 -19 29.5t-31 23.5q-13 7 -19.5 13t-6.5 15q0 17 19 17q10 0 34 -2q48 -3 59 -3q10 0 52 3q22 2 30 2q17 0 17 -17q0 -12 -15 -25q-9 -8 -13.5 -15t-4.5 -18t5 -24l116 -305l83 224l-27 81q-6 20 -17.5 31t-30.5 23q-13 9 -19 14.5
t-6 13.5q0 17 19 17q10 0 34 -2q48 -3 58 -3q8 0 53 3q20 2 30 2q17 0 17 -17q0 -8 -4 -13.5t-12 -12.5q-10 -8 -15 -15.5t-5 -19.5q0 -11 4 -22l94 -303l109 301q4 12 4 22q0 12 -5.5 20t-16.5 17q-8 7 -12.5 12.5t-4.5 13.5q0 17 19 17q10 0 58 -4q10 0 22 2l28 1
q18 0 18 -15q0 -8 -5.5 -13t-17.5 -13q-16 -9 -27.5 -19.5t-18.5 -28.5l-130 -356q-11 -30 -11 -47q0 -12 -16 -12h-55q-16 0 -16 12q0 17 -9 48l-69 211l-78 -212q-12 -33 -12 -47q0 -12 -15 -12h-56q-15 0 -15 12zM335 592.5q-5 4.5 -5 10.5l-5 79q-2 25 15 34.5t46 9.5
q46 0 46 -25q0 -11 -13 -31l-48 -69q-7 -13 -24 -13q-7 0 -12 4.5z" />
    <glyph glyph-name="wcircumflex" unicode="&#x175;" horiz-adv-x="757" 
d="M210 12q0 12 -13 47l-134 348q-7 19 -19 29.5t-31 23.5q-13 7 -19.5 13t-6.5 15q0 17 19 17q10 0 34 -2q48 -3 59 -3q10 0 52 3q22 2 30 2q17 0 17 -17q0 -12 -15 -25q-9 -8 -13.5 -15t-4.5 -18t5 -24l116 -305l83 224l-27 81q-6 20 -17.5 31t-30.5 23q-13 9 -19 14.5
t-6 13.5q0 17 19 17q10 0 34 -2q48 -3 58 -3q8 0 53 3q20 2 30 2q17 0 17 -17q0 -8 -4 -13.5t-12 -12.5q-10 -8 -15 -15.5t-5 -19.5q0 -11 4 -22l94 -303l109 301q4 12 4 22q0 12 -5.5 20t-16.5 17q-8 7 -12.5 12.5t-4.5 13.5q0 17 19 17q10 0 58 -4q10 0 22 2l28 1
q18 0 18 -15q0 -8 -5.5 -13t-17.5 -13q-16 -9 -27.5 -19.5t-18.5 -28.5l-130 -356q-11 -30 -11 -47q0 -12 -16 -12h-55q-16 0 -16 12q0 17 -9 48l-69 211l-78 -212q-12 -33 -12 -47q0 -12 -15 -12h-56q-15 0 -15 12zM282 601q0 5 2 8l56 94q14 23 39 23q11 0 21.5 -6
t16.5 -17l57 -95q2 -2 2 -7t-3.5 -8t-10.5 -3q-9 0 -19 9l-65 55l-64 -58q-7 -6 -17 -6q-15 0 -15 11z" />
    <glyph glyph-name="wdieresis" unicode="&#x1e85;" horiz-adv-x="757" 
d="M210 12q0 12 -13 47l-134 348q-7 19 -19 29.5t-31 23.5q-13 7 -19.5 13t-6.5 15q0 17 19 17q10 0 34 -2q48 -3 59 -3q10 0 52 3q22 2 30 2q17 0 17 -17q0 -12 -15 -25q-9 -8 -13.5 -15t-4.5 -18t5 -24l116 -305l83 224l-27 81q-6 20 -17.5 31t-30.5 23q-13 9 -19 14.5
t-6 13.5q0 17 19 17q10 0 34 -2q48 -3 58 -3q8 0 53 3q20 2 30 2q17 0 17 -17q0 -8 -4 -13.5t-12 -12.5q-10 -8 -15 -15.5t-5 -19.5q0 -11 4 -22l94 -303l109 301q4 12 4 22q0 12 -5.5 20t-16.5 17q-8 7 -12.5 12.5t-4.5 13.5q0 17 19 17q10 0 58 -4q10 0 22 2l28 1
q18 0 18 -15q0 -8 -5.5 -13t-17.5 -13q-16 -9 -27.5 -19.5t-18.5 -28.5l-130 -356q-11 -30 -11 -47q0 -12 -16 -12h-55q-16 0 -16 12q0 17 -9 48l-69 211l-78 -212q-12 -33 -12 -47q0 -12 -15 -12h-56q-15 0 -15 12zM262 616.5q-18 17.5 -18 41.5t18 42t43 18t43 -18t18 -42
t-18 -41.5t-43 -17.5t-43 17.5zM408.5 700q17.5 18 42.5 18t43 -18t18 -42t-18 -41.5t-43 -17.5t-42.5 17.5t-17.5 41.5t17.5 42z" />
    <glyph glyph-name="wgrave" unicode="&#x1e81;" horiz-adv-x="757" 
d="M210 12q0 12 -13 47l-134 348q-7 19 -19 29.5t-31 23.5q-13 7 -19.5 13t-6.5 15q0 17 19 17q10 0 34 -2q48 -3 59 -3q10 0 52 3q22 2 30 2q17 0 17 -17q0 -12 -15 -25q-9 -8 -13.5 -15t-4.5 -18t5 -24l116 -305l83 224l-27 81q-6 20 -17.5 31t-30.5 23q-13 9 -19 14.5
t-6 13.5q0 17 19 17q10 0 34 -2q48 -3 58 -3q8 0 53 3q20 2 30 2q17 0 17 -17q0 -8 -4 -13.5t-12 -12.5q-10 -8 -15 -15.5t-5 -19.5q0 -11 4 -22l94 -303l109 301q4 12 4 22q0 12 -5.5 20t-16.5 17q-8 7 -12.5 12.5t-4.5 13.5q0 17 19 17q10 0 58 -4q10 0 22 2l28 1
q18 0 18 -15q0 -8 -5.5 -13t-17.5 -13q-16 -9 -27.5 -19.5t-18.5 -28.5l-130 -356q-11 -30 -11 -47q0 -12 -16 -12h-55q-16 0 -16 12q0 17 -9 48l-69 211l-78 -212q-12 -33 -12 -47q0 -12 -15 -12h-56q-15 0 -15 12zM386 601l-47 69q-14 19 -14 31q0 25 46 25q29 0 46 -9.5
t15 -34.5l-5 -79q0 -6 -4.5 -10.5t-12.5 -4.5q-17 0 -24 13z" />
    <glyph glyph-name="x" unicode="x" horiz-adv-x="521" 
d="M14.5 26q7.5 6 22.5 13q19 10 31.5 19t22.5 23l111 162l-116 175q-10 15 -22 24t-29 19q-14 7 -20.5 13t-6.5 15q0 15 17 15q9 0 29 -2q28 -2 52 -2h31q24 0 52 2q20 2 29 2q17 0 17 -15q0 -11 -14 -23q-7 -6 -10.5 -11t-3.5 -12q0 -12 9 -25l75 -114l76 114q9 13 9 24
q0 12 -16 24q-15 13 -15 23q0 15 19 15l31 -1q16 -2 28 -2t28 2l31 1q18 0 18 -15q0 -9 -7 -15t-22 -13q-18 -10 -30 -19t-22 -23l-104 -152l122 -185q10 -15 22 -24t29 -19q14 -7 20.5 -13t6.5 -15q0 -15 -17 -15q-9 0 -29 2q-28 2 -51 2h-32q-23 0 -51 -2q-20 -2 -30 -2
q-17 0 -17 15q0 7 4 12t11 11q14 12 14 23q0 12 -9 25l-82 124l-83 -124q-9 -13 -9 -24q0 -12 16 -24q15 -13 15 -23q0 -15 -18 -15l-32 1q-16 2 -27 2q-13 0 -29 -2l-33 -1q-19 0 -19 15q0 9 7.5 15z" />
    <glyph glyph-name="y" unicode="y" horiz-adv-x="517" 
d="M45.5 -210q-22.5 17 -22.5 47q0 25 16 40.5t38 15.5q15 0 26.5 -4.5t24.5 -12.5q9 -5 18.5 -9.5t19.5 -4.5q21 0 45 37.5t42 89.5q-15 2 -25.5 10t-18.5 29l-151 379q-7 19 -19.5 30t-31.5 23q-13 8 -19.5 13.5t-6.5 14.5q0 17 19 17q10 0 34 -2q48 -3 59 -3h3q11 0 53 3
q20 2 29 2q18 0 18 -17q0 -12 -15 -25q-9 -8 -14 -15t-5 -18q0 -9 6 -24l123 -305l116 302q5 15 5 23q0 12 -5.5 19.5t-16.5 16.5q-8 7 -12.5 12.5t-4.5 13.5q0 17 19 17q9 0 29 -2q18 -2 31 -2q9 0 23 2l30 1q18 0 18 -15q0 -8 -6 -13.5t-18 -13.5q-18 -10 -29 -20.5
t-18 -28.5l-155 -402q-29 -76 -53.5 -124.5t-58.5 -81t-78 -32.5q-39 0 -61.5 17z" />
    <glyph glyph-name="yacute" unicode="&#xfd;" horiz-adv-x="517" 
d="M45.5 -210q-22.5 17 -22.5 47q0 25 16 40.5t38 15.5q15 0 26.5 -4.5t24.5 -12.5q9 -5 18.5 -9.5t19.5 -4.5q21 0 45 37.5t42 89.5q-15 2 -25.5 10t-18.5 29l-151 379q-7 19 -19.5 30t-31.5 23q-13 8 -19.5 13.5t-6.5 14.5q0 17 19 17q10 0 34 -2q48 -3 59 -3h3q11 0 53 3
q20 2 29 2q18 0 18 -17q0 -12 -15 -25q-9 -8 -14 -15t-5 -18q0 -9 6 -24l123 -305l116 302q5 15 5 23q0 12 -5.5 19.5t-16.5 16.5q-8 7 -12.5 12.5t-4.5 13.5q0 17 19 17q9 0 29 -2q18 -2 31 -2q9 0 23 2l30 1q18 0 18 -15q0 -8 -6 -13.5t-18 -13.5q-18 -10 -29 -20.5
t-18 -28.5l-155 -402q-29 -76 -53.5 -124.5t-58.5 -81t-78 -32.5q-39 0 -61.5 17zM215 592.5q-5 4.5 -5 10.5l-5 79q-2 25 15 34.5t46 9.5q46 0 46 -25q0 -11 -13 -31l-48 -69q-7 -13 -24 -13q-7 0 -12 4.5z" />
    <glyph glyph-name="ycircumflex" unicode="&#x177;" horiz-adv-x="517" 
d="M45.5 -210q-22.5 17 -22.5 47q0 25 16 40.5t38 15.5q15 0 26.5 -4.5t24.5 -12.5q9 -5 18.5 -9.5t19.5 -4.5q21 0 45 37.5t42 89.5q-15 2 -25.5 10t-18.5 29l-151 379q-7 19 -19.5 30t-31.5 23q-13 8 -19.5 13.5t-6.5 14.5q0 17 19 17q10 0 34 -2q48 -3 59 -3h3q11 0 53 3
q20 2 29 2q18 0 18 -17q0 -12 -15 -25q-9 -8 -14 -15t-5 -18q0 -9 6 -24l123 -305l116 302q5 15 5 23q0 12 -5.5 19.5t-16.5 16.5q-8 7 -12.5 12.5t-4.5 13.5q0 17 19 17q9 0 29 -2q18 -2 31 -2q9 0 23 2l30 1q18 0 18 -15q0 -8 -6 -13.5t-18 -13.5q-18 -10 -29 -20.5
t-18 -28.5l-155 -402q-29 -76 -53.5 -124.5t-58.5 -81t-78 -32.5q-39 0 -61.5 17zM162 601q0 5 2 8l56 94q14 23 39 23q11 0 21.5 -6t16.5 -17l57 -95q2 -2 2 -7t-3.5 -8t-10.5 -3q-9 0 -19 9l-65 55l-64 -58q-7 -6 -17 -6q-15 0 -15 11z" />
    <glyph glyph-name="ydieresis" unicode="&#xff;" horiz-adv-x="517" 
d="M45.5 -210q-22.5 17 -22.5 47q0 25 16 40.5t38 15.5q15 0 26.5 -4.5t24.5 -12.5q9 -5 18.5 -9.5t19.5 -4.5q21 0 45 37.5t42 89.5q-15 2 -25.5 10t-18.5 29l-151 379q-7 19 -19.5 30t-31.5 23q-13 8 -19.5 13.5t-6.5 14.5q0 17 19 17q10 0 34 -2q48 -3 59 -3h3q11 0 53 3
q20 2 29 2q18 0 18 -17q0 -12 -15 -25q-9 -8 -14 -15t-5 -18q0 -9 6 -24l123 -305l116 302q5 15 5 23q0 12 -5.5 19.5t-16.5 16.5q-8 7 -12.5 12.5t-4.5 13.5q0 17 19 17q9 0 29 -2q18 -2 31 -2q9 0 23 2l30 1q18 0 18 -15q0 -8 -6 -13.5t-18 -13.5q-18 -10 -29 -20.5
t-18 -28.5l-155 -402q-29 -76 -53.5 -124.5t-58.5 -81t-78 -32.5q-39 0 -61.5 17zM142 616.5q-18 17.5 -18 41.5t18 42t43 18t43 -18t18 -42t-18 -41.5t-43 -17.5t-43 17.5zM288.5 700q17.5 18 42.5 18t43 -18t18 -42t-18 -41.5t-43 -17.5t-42.5 17.5t-17.5 41.5t17.5 42z
" />
    <glyph glyph-name="ygrave" unicode="&#x1ef3;" horiz-adv-x="517" 
d="M45.5 -210q-22.5 17 -22.5 47q0 25 16 40.5t38 15.5q15 0 26.5 -4.5t24.5 -12.5q9 -5 18.5 -9.5t19.5 -4.5q21 0 45 37.5t42 89.5q-15 2 -25.5 10t-18.5 29l-151 379q-7 19 -19.5 30t-31.5 23q-13 8 -19.5 13.5t-6.5 14.5q0 17 19 17q10 0 34 -2q48 -3 59 -3h3q11 0 53 3
q20 2 29 2q18 0 18 -17q0 -12 -15 -25q-9 -8 -14 -15t-5 -18q0 -9 6 -24l123 -305l116 302q5 15 5 23q0 12 -5.5 19.5t-16.5 16.5q-8 7 -12.5 12.5t-4.5 13.5q0 17 19 17q9 0 29 -2q18 -2 31 -2q9 0 23 2l30 1q18 0 18 -15q0 -8 -6 -13.5t-18 -13.5q-18 -10 -29 -20.5
t-18 -28.5l-155 -402q-29 -76 -53.5 -124.5t-58.5 -81t-78 -32.5q-39 0 -61.5 17zM266 601l-47 69q-14 19 -14 31q0 25 46 25q29 0 46 -9.5t15 -34.5l-5 -79q0 -6 -4.5 -10.5t-12.5 -4.5q-17 0 -24 13z" />
    <glyph glyph-name="uni1EF9" unicode="&#x1ef9;" horiz-adv-x="517" 
d="M45.5 -210q-22.5 17 -22.5 47q0 25 16 40.5t38 15.5q15 0 26.5 -4.5t24.5 -12.5q9 -5 18.5 -9.5t19.5 -4.5q21 0 45 37.5t42 89.5q-15 2 -25.5 10t-18.5 29l-151 379q-7 19 -19.5 30t-31.5 23q-13 8 -19.5 13.5t-6.5 14.5q0 17 19 17q10 0 34 -2q48 -3 59 -3h3q11 0 53 3
q20 2 29 2q18 0 18 -17q0 -12 -15 -25q-9 -8 -14 -15t-5 -18q0 -9 6 -24l123 -305l116 302q5 15 5 23q0 12 -5.5 19.5t-16.5 16.5q-8 7 -12.5 12.5t-4.5 13.5q0 17 19 17q9 0 29 -2q18 -2 31 -2q9 0 23 2l30 1q18 0 18 -15q0 -8 -6 -13.5t-18 -13.5q-18 -10 -29 -20.5
t-18 -28.5l-155 -402q-29 -76 -53.5 -124.5t-58.5 -81t-78 -32.5q-39 0 -61.5 17zM279.5 616q-13.5 7 -32.5 20q-13 10 -22.5 14.5t-18.5 4.5q-15 0 -25 -11.5t-10 -29.5q0 -5 -4 -8t-8 -3q-5 0 -9 4t-4 10q0 45 18 67.5t46 22.5q14 0 26 -5t30 -16q29 -19 46 -19
q15 0 23.5 12.5t8.5 27.5q0 7 3.5 11.5t8.5 4.5q6 0 10.5 -4.5t4.5 -14.5q0 -46 -16 -70.5t-45 -24.5q-17 0 -30.5 7z" />
    <glyph glyph-name="z" unicode="z" horiz-adv-x="431" 
d="M15 9q0 5 3 9t15 16.5t27 38.5l221 396h-89q-34 0 -58.5 -19.5t-49.5 -52.5q-14 -18 -22.5 -26t-15.5 -8q-10 0 -10 11q0 9 10 49q1 6 6 26.5t5 29.5q0 11 7 16t23 5h317q10 0 10 -8q0 -5 -3 -10q-1 -3 -14.5 -16.5t-26.5 -38.5l-220 -396h110q36 0 61.5 20.5t50.5 55.5
q15 19 22.5 26.5t15.5 7.5q5 0 8 -3t3 -8q0 -9 -10 -51q-2 -7 -6.5 -28t-4.5 -30q0 -11 -7 -16t-23 -5h-345q-10 0 -10 9z" />
    <glyph glyph-name="zacute" unicode="&#x17a;" horiz-adv-x="431" 
d="M15 9q0 5 3 9t15 16.5t27 38.5l221 396h-89q-34 0 -58.5 -19.5t-49.5 -52.5q-14 -18 -22.5 -26t-15.5 -8q-10 0 -10 11q0 9 10 49q1 6 6 26.5t5 29.5q0 11 7 16t23 5h317q10 0 10 -8q0 -5 -3 -10q-1 -3 -14.5 -16.5t-26.5 -38.5l-220 -396h110q36 0 61.5 20.5t50.5 55.5
q15 19 22.5 26.5t15.5 7.5q5 0 8 -3t3 -8q0 -9 -10 -51q-2 -7 -6.5 -28t-4.5 -30q0 -11 -7 -16t-23 -5h-345q-10 0 -10 9zM172 592.5q-5 4.5 -5 10.5l-5 79q-2 25 15 34.5t46 9.5q46 0 46 -25q0 -11 -13 -31l-48 -69q-7 -13 -24 -13q-7 0 -12 4.5z" />
    <glyph glyph-name="zcaron" unicode="&#x17e;" horiz-adv-x="431" 
d="M15 9q0 5 3 9t15 16.5t27 38.5l221 396h-89q-34 0 -58.5 -19.5t-49.5 -52.5q-14 -18 -22.5 -26t-15.5 -8q-10 0 -10 11q0 9 10 49q1 6 6 26.5t5 29.5q0 11 7 16t23 5h317q10 0 10 -8q0 -5 -3 -10q-1 -3 -14.5 -16.5t-26.5 -38.5l-220 -396h110q36 0 61.5 20.5t50.5 55.5
q15 19 22.5 26.5t15.5 7.5q5 0 8 -3t3 -8q0 -9 -10 -51q-2 -7 -6.5 -28t-4.5 -30q0 -11 -7 -16t-23 -5h-345q-10 0 -10 9zM177 613l-56 94q-2 3 -2 8q0 11 15 11q10 0 17 -6l64 -58l65 55q10 9 19 9t13 -6t-1 -12l-57 -95q-7 -11 -17 -17t-21 -6q-24 0 -39 23z" />
    <glyph glyph-name="zdotaccent" unicode="&#x17c;" horiz-adv-x="431" 
d="M15 9q0 5 3 9t15 16.5t27 38.5l221 396h-89q-34 0 -58.5 -19.5t-49.5 -52.5q-14 -18 -22.5 -26t-15.5 -8q-10 0 -10 11q0 9 10 49q1 6 6 26.5t5 29.5q0 11 7 16t23 5h317q10 0 10 -8q0 -5 -3 -10q-1 -3 -14.5 -16.5t-26.5 -38.5l-220 -396h110q36 0 61.5 20.5t50.5 55.5
q15 19 22.5 26.5t15.5 7.5q5 0 8 -3t3 -8q0 -9 -10 -51q-2 -7 -6.5 -28t-4.5 -30q0 -11 -7 -16t-23 -5h-345q-10 0 -10 9zM166.5 610.5q-20.5 20.5 -20.5 47.5q0 28 20.5 48t49.5 20q28 0 48.5 -20t20.5 -48q0 -27 -20.5 -47.5t-48.5 -20.5q-29 0 -49.5 20.5z" />
    <glyph glyph-name="uni013C.loclMAH" horiz-adv-x="228" 
d="M62 -2q-20 -2 -30 -2q-17 0 -17 15q0 12 18 25q15 12 23 23t8 32v492q0 30 -7.5 45t-18.5 25t-11 16q0 14 35 19q18 1 32 5.5t32 12.5q22 9 30 9t11 -4.5t3 -15.5v-604q0 -21 8 -32t23 -23q18 -13 18 -25q0 -15 -17 -15q-10 0 -30 2q-28 2 -51 2h-8q-23 0 -51 -2z
M53 -360q-2 2 -1 5t4 4q37 23 56 49.5t19 51.5q0 17 -10 26t-25 10q-25 3 -41 21t-16 42q0 28 20 47t52 19q34 0 57 -24t23 -72q0 -65 -36 -112t-93 -71q-6 -3 -9 4z" />
    <glyph glyph-name="uni0146.loclMAH" horiz-adv-x="474" 
d="M62 -2q-20 -2 -30 -2q-17 0 -17 15q0 12 18 25q15 12 23 23t8 32v285q0 32 -7.5 47.5t-18.5 26.5t-11 17q0 15 35 20q27 2 64 19q20 10 30 10q8 0 11 -4.5t3 -16.5v-78h2q12 36 46 67.5t84 31.5q112 0 112 -118v-307q0 -21 8 -32t23 -23q18 -13 18 -25q0 -15 -17 -15
q-10 0 -30 2q-28 2 -51 2h-8q-23 0 -51 -2q-20 -2 -30 -2q-17 0 -17 15q0 12 18 25q15 12 23 23t8 32v300q0 38 -13.5 53.5t-36.5 15.5q-29 0 -53 -29.5t-35 -78.5v-261q0 -21 8 -32t23 -23q18 -13 18 -25q0 -15 -17 -15q-10 0 -30 2q-28 2 -51 2h-8q-23 0 -51 -2zM175 -360
q-2 2 -1 5t4 4q37 23 56 49.5t19 51.5q0 17 -10 26t-25 10q-25 3 -41 21t-16 42q0 28 20 47t52 19q34 0 57 -24t23 -72q0 -65 -36 -112t-93 -71q-6 -3 -9 4z" />
    <glyph glyph-name="f_b" horiz-adv-x="739" 
d="M460.5 -4.5q-28.5 11.5 -47.5 34.5h-5q-9 -12 -20.5 -21t-21.5 -9h-48q-17 0 -17 12q0 3 5.5 17.5t5.5 37.5v517q0 63 -12.5 99t-45.5 36q-38 0 -60.5 -39.5t-22.5 -123.5v-56h96q21 0 28 -6.5t7 -23.5q0 -34 -19 -34q-13 0 -28 12q-14 10 -28 15.5t-36 5.5h-20v-378
q0 -21 7.5 -32t22.5 -23q18 -13 18 -25q0 -15 -17 -15q-9 0 -29 2q-28 2 -52 2h-7q-24 0 -52 -2q-20 -2 -29 -2q-17 0 -17 15q0 12 18 25q15 12 23 23t8 32v334q0 15 -7.5 23t-22.5 15q-11 7 -15.5 11t-4.5 11q0 15 19 15h31v15q0 119 52 174t141 55q34 0 53.5 -6t38.5 -16
q8 -4 17 -7.5t18 -3.5q4 0 11 2t12 2q6 0 8 -3.5t2 -16.5v-218h3q20 20 43.5 29.5t54.5 9.5q45 0 91.5 -27.5t77.5 -86t31 -146.5q0 -92 -27 -153t-71.5 -90t-99.5 -29q-32 0 -60.5 11.5zM447.5 51.5q22.5 -21.5 56.5 -21.5q44 0 71.5 56t27.5 173q0 103 -31.5 156.5
t-79.5 53.5q-28 0 -47.5 -13.5t-26.5 -36.5v-313q7 -33 29.5 -54.5z" />
    <glyph glyph-name="f_f_j" horiz-adv-x="674" 
d="M62 -2q-20 -2 -29 -2q-17 0 -17 15q0 12 18 25q15 12 23 23t8 32v334q0 15 -7.5 23t-22.5 15q-11 7 -15.5 11t-4.5 11q0 15 19 15h31v15q0 119 51.5 174t139.5 55q40 0 71 -11.5t50 -30.5q49 42 131 42q45 0 80 -16.5t54.5 -43t19.5 -53.5q0 -19 -11.5 -30t-27.5 -11
q-27 0 -40 17t-25 50q-11 31 -22 46.5t-34 15.5q-39 0 -61.5 -39.5t-22.5 -123.5v-56h242v-557q0 -83 -40.5 -127t-116.5 -44q-39 0 -72.5 14t-53 36.5t-19.5 47.5q0 20 12.5 32t32.5 12q21 0 32.5 -13.5t22.5 -38.5q11 -24 21 -36t28 -12q21 0 34 20t13 63v572h-136v-378
q0 -21 7.5 -32t22.5 -23q18 -13 18 -25q0 -15 -17 -15q-9 0 -29 2q-28 2 -52 2h-7q-24 0 -52 -2q-20 -2 -29 -2q-17 0 -17 15q0 12 18 25q15 12 23 23t8 32v378h-141v-378q0 -21 7.5 -32t22.5 -23q18 -13 18 -25q0 -15 -17 -15q-9 0 -29 2q-28 2 -52 2h-7q-24 0 -52 -2z
M312 500v15q0 70 19 119q-8 9 -20 33q-13 26 -25 39t-33 13q-38 0 -60 -39.5t-22 -123.5v-56h141z" />
    <glyph glyph-name="f_h" horiz-adv-x="722" 
d="M62 -2q-20 -2 -29 -2q-17 0 -17 15q0 12 18 25q15 12 23 23t8 32v334q0 15 -7.5 23t-22.5 15q-11 7 -15.5 11t-4.5 11q0 15 19 15h31v15q0 119 52 174t141 55q47 0 89 -22q3 -1 13 -5.5t19 -4.5q10 0 16.5 2.5t10.5 2.5q6 0 9 -4t3 -14v-282h2q14 37 47 68t83 31
q112 0 112 -118v-307q0 -21 8 -32t23 -23q18 -13 18 -25q0 -15 -17 -15q-9 0 -29 2q-28 2 -52 2h-8q-23 0 -51 -2q-20 -2 -29 -2q-17 0 -17 15q0 12 18 25q15 12 22.5 23t7.5 32v300q0 39 -13 54t-37 15q-29 0 -53 -29.5t-35 -78.5v-261q0 -21 7.5 -32t22.5 -23
q18 -13 18 -25q0 -15 -17 -15q-9 0 -29 2q-28 2 -52 2h-7q-24 0 -52 -2q-20 -2 -29 -2q-17 0 -17 15q0 12 18 25q15 12 23 23t8 32v489q0 64 -12.5 101.5t-45.5 37.5q-83 0 -83 -163v-56h96q21 0 28 -6.5t7 -23.5q0 -34 -19 -34q-13 0 -28 12q-15 10 -28 15.5t-37 5.5h-19
v-378q0 -21 7.5 -32t22.5 -23q18 -13 18 -25q0 -15 -17 -15q-9 0 -29 2q-28 2 -52 2h-7q-24 0 -52 -2z" />
    <glyph glyph-name="f_j" horiz-adv-x="427" 
d="M62 -2q-20 -2 -29 -2q-17 0 -17 15q0 12 18 25q15 12 23 23t8 32v334q0 15 -7.5 23t-22.5 15q-11 7 -15.5 11t-4.5 11q0 15 19 15h31v15q0 119 52.5 174t143.5 55q45 0 80 -16.5t54.5 -43t19.5 -53.5q0 -19 -11.5 -30t-27.5 -11q-27 0 -40 17t-25 50q-11 31 -22 46.5
t-34 15.5q-39 0 -61.5 -39.5t-22.5 -123.5v-56h242v-557q0 -83 -40.5 -127t-116.5 -44q-39 0 -72.5 14t-53 36.5t-19.5 47.5q0 20 12.5 32t32.5 12q21 0 32.5 -13.5t22.5 -38.5q11 -24 21 -36t28 -12q21 0 34 20t13 63v572h-136v-378q0 -21 7.5 -32t22.5 -23q18 -13 18 -25
q0 -15 -17 -15q-9 0 -29 2q-28 2 -52 2h-7q-24 0 -52 -2z" />
    <glyph glyph-name="f_k" horiz-adv-x="781" 
d="M63 -2q-20 -2 -30 -2q-17 0 -17 15q0 12 18 25q15 12 23 23t8 32v334q0 15 -7.5 23t-22.5 15q-11 7 -15.5 11t-4.5 11q0 15 20 15h30v15q0 119 52.5 174t141.5 55q32 0 51.5 -6t39.5 -16q22 -11 36 -11q5 0 12 2t11 2q9 0 9 -17v-426l138 143q14 14 14 26q0 7 -4.5 12.5
t-10.5 9.5q-8 7 -12.5 12.5t-4.5 12.5q0 17 21 17q10 0 32 -2q20 -2 32 -2q16 0 38 2q28 2 38 2q24 0 24 -18q0 -11 -9.5 -17t-32.5 -16q-23 -9 -40 -18t-31 -24l-87 -90l158 -231q11 -17 25.5 -27t35.5 -21q17 -8 25 -14.5t8 -16.5q0 -17 -21 -17q-11 0 -37 2q-51 3 -64 3
h-1q-24 0 -50 -2q-18 -2 -26 -2q-16 0 -16 15q0 7 3 11.5t10 11.5q12 12 12 21q0 12 -10 26l-120 171l-37 -40v-121q0 -21 8 -32t23 -23q18 -13 18 -25q0 -15 -17 -15q-10 0 -30 2q-28 2 -51 2h-8q-23 0 -51 -2q-20 -2 -30 -2q-17 0 -17 15q0 12 18 25q15 12 23 23t8 32v493
q0 62 -12.5 98.5t-45.5 36.5q-38 0 -60.5 -39.5t-22.5 -123.5v-56h93q23 0 30.5 -6.5t7.5 -23.5q0 -34 -19 -34q-7 0 -14 3.5t-13 7.5q-13 10 -28 16t-42 6h-15v-378q0 -21 8 -32t23 -23q18 -13 18 -25q0 -15 -17 -15q-10 0 -30 2q-28 2 -51 2h-8q-23 0 -51 -2z" />
    <glyph glyph-name="f_t" horiz-adv-x="550" 
d="M62 -2q-20 -2 -29 -2q-17 0 -17 15q0 12 18 25q15 12 23 23t8 32v334q0 15 -7.5 23t-22.5 15q-11 7 -15.5 11t-4.5 11q0 15 19 15h31v15q0 119 51.5 174t139.5 55q43 0 76 -13.5t50.5 -34.5t17.5 -43q0 -13 -9.5 -21.5t-24.5 -8.5q-20 0 -31 11.5t-24 35.5q-13 25 -25 37
t-33 12q-38 0 -60 -39.5t-22 -123.5v-56h116q21 0 36 18t33 50q13 22 21 33t17 11q19 0 19 -31v-81h88q15 0 21 -7t6 -25q0 -29 -18 -29q-7 0 -13 3.5t-12 8.5q-13 9 -22 13.5t-23 4.5h-27v-359q0 -39 9.5 -54t30.5 -15q16 0 35 11.5t34 25.5q8 7 14 7q4 0 4 -5
q0 -8 -11 -25q-51 -70 -117 -70q-46 0 -75.5 29.5t-29.5 90.5v321q0 18 -6 27t-16 16h-114v-378q0 -21 7.5 -32t22.5 -23q18 -13 18 -25q0 -15 -17 -15q-9 0 -29 2q-28 2 -52 2h-7q-24 0 -52 -2z" />
    <glyph glyph-name="s_t" horiz-adv-x="753" 
d="M539 14.5q-29 29.5 -29 90.5v321q0 19 -7 28t-19 17q-5 3 -9 7t-4 9q0 7 5 11t14 4q26 0 43 19.5t17 50.5q0 66 -28 101.5t-93 35.5q-58 0 -96 -30.5t-38 -78.5q0 -57 72 -106q16 -9 19 -18q10 -32 18 -59t9 -40v-2q0 -8 -9 -8q-5 0 -15 7.5t-21 18.5q-37 34 -72 55.5
t-80 21.5q-39 0 -59.5 -14.5t-20.5 -37.5q0 -32 31 -54.5t96 -52.5q58 -26 94 -48t62 -55t26 -79q0 -69 -54 -106.5t-148 -37.5q-58 0 -103.5 12t-72 27.5t-28.5 25.5q-15 77 -15 101q0 11 7 11q6 0 35 -27q50 -46 95 -75.5t99 -29.5q37 0 59 16.5t22 45.5t-19 51.5t-48 39
t-77 38.5q-56 26 -89 46t-56.5 50t-23.5 70q0 64 57.5 96.5t144.5 32.5q43 0 68 -4q-36 36 -36 85q0 40 23 71.5t61.5 49t82.5 17.5q187 0 187 -178v-57h87q15 0 21.5 -7t6.5 -25q0 -29 -18 -29q-7 0 -13.5 3.5t-12.5 8.5q-11 9 -20.5 13.5t-24.5 4.5h-26v-359
q0 -39 9.5 -54t30.5 -15q27 0 69 37q11 11 16 6q2 -2 2 -5q0 -9 -12 -24q-51 -70 -117 -70q-46 0 -75 29.5z" />
    <glyph glyph-name="zero" unicode="0" horiz-adv-x="588" 
d="M152 30q-62 46 -96.5 129t-34.5 191t34.5 191t96.5 129t142 46t142 -46t96.5 -129t34.5 -191t-34.5 -191t-96.5 -129t-142 -46t-142 46zM182.5 117q39.5 -87 111.5 -87t111.5 87t39.5 233t-39.5 233t-111.5 87t-111.5 -87t-39.5 -233t39.5 -233z" />
    <glyph glyph-name="one" unicode="1" horiz-adv-x="292" 
d="M71 -2q-20 -2 -29 -2q-17 0 -17 15q0 12 18 25q15 12 23 23t8 32v485q0 32 -8.5 47.5t-21 26.5t-12.5 17q0 15 39 20q28 2 48 10t23 9q20 10 32 10q8 0 12 -4.5t4 -16.5v-604q0 -21 7.5 -32t22.5 -23q18 -13 18 -25q0 -15 -17 -15q-9 0 -29 2q-28 2 -52 2h-17
q-24 0 -52 -2z" />
    <glyph glyph-name="two" unicode="2" horiz-adv-x="524" 
d="M46 84q98 95 166 168t119.5 156.5t51.5 155.5q0 51 -28 74.5t-86 23.5t-98 -31t-77 -78q-10 -13 -18 -22t-13 -9q-8 0 -8 14q0 13 2 22l16 98q5 26 62 43t138 17q109 0 168.5 -43.5t59.5 -130.5q0 -65 -44 -140t-105 -144.5t-162 -172.5l-30 -30h178q34 0 57.5 21
t51.5 58q14 19 23 28.5t17 9.5q4 0 6.5 -3.5t2.5 -8.5q0 -17 -11 -56q-5 -19 -9 -39.5t-4 -35.5q0 -16 -5.5 -22.5t-17.5 -6.5h-434v54z" />
    <glyph glyph-name="three" unicode="3" horiz-adv-x="532" 
d="M146.5 3.5q-49.5 19.5 -79 51t-29.5 67.5q0 25 13 38.5t37 13.5q23 0 39.5 -15t39.5 -47q26 -36 48.5 -55t55.5 -19q53 0 86.5 44t33.5 116q0 93 -53 130t-147 37q-36 0 -36 26t37 26q41 0 82 14.5t69.5 49t28.5 91.5q0 40 -24.5 65.5t-75.5 25.5q-61 0 -103 -31t-80 -79
q-2 -3 -9.5 -12t-12.5 -13t-8 -4q-8 0 -8 16l2 20l16 100q2 15 30 27.5t71.5 20.5t89.5 8q98 0 159 -41t61 -110q0 -71 -52 -114.5t-126 -55.5v-2q50 -1 96.5 -22t76.5 -63.5t30 -105.5q0 -65 -32.5 -114.5t-90 -76.5t-129.5 -27q-57 0 -106.5 19.5z" />
    <glyph glyph-name="four" unicode="4" horiz-adv-x="533" 
d="M339 -2q-20 -2 -29 -2q-17 0 -17 15q0 12 18 25q15 12 22.5 23t7.5 32v111h-299l-22 41l277 405q6 9 15.5 22t9.5 18q0 12 16 12h114q15 0 15 -12q0 -3 -5 -16t-5 -35v-376q18 1 33 7t17 6q9 0 9 -10q0 -5 -1 -8l-18 -49q-6 -14 -17 -11q-8 4 -23 5v-110q0 -21 8 -32
t23 -23q18 -13 18 -25q0 -15 -17 -15q-9 0 -29 2q-28 2 -52 2h-17q-24 0 -52 -2zM341 261v386l-263 -386h263z" />
    <glyph glyph-name="five" unicode="5" horiz-adv-x="535" 
d="M140 1q-46 17 -76.5 47.5t-30.5 70.5q0 27 13.5 41.5t37.5 14.5q27 0 44.5 -16.5t39.5 -51.5t41 -53t49 -18q57 0 90 54t33 137q0 85 -32.5 143.5t-97.5 58.5q-39 0 -68.5 -19.5t-61.5 -52.5q-18 -18 -30 -27t-22 -9q-24 0 -21 38l22 276q1 22 -3 35.5t-4 17.5
q0 12 18 12h285q29 0 52.5 9.5t27.5 8.5q11 -4 11 -14q0 -7 -2 -11l-26 -81q-3 -12 -13 -12q-3 0 -14.5 3t-37.5 3h-239l-20 -205l5 -1q34 39 76.5 61.5t101.5 22.5q70 0 118.5 -32t72 -85.5t23.5 -116.5q0 -124 -70 -195t-200 -71q-46 0 -92 17z" />
    <glyph glyph-name="six" unicode="6" horiz-adv-x="593" 
d="M155.5 29.5q-61.5 45.5 -93 124.5t-31.5 179q0 102 50 191t136.5 142.5t192.5 53.5q22 0 22 -13q0 -14 -17 -14q-53 0 -105.5 -30t-92.5 -87t-55 -135h5q31 44 77 68t99 24q64 0 115 -32.5t80.5 -91.5t29.5 -135q0 -85 -33 -151t-93 -102.5t-139 -36.5q-86 0 -147.5 45.5
zM175 150.5q21 -58.5 57.5 -89.5t83.5 -31q39 0 70.5 27.5t49.5 77.5t18 114q0 111 -37 172.5t-106 61.5q-40 0 -76 -26.5t-58.5 -70.5t-22.5 -95q0 -82 21 -140.5z" />
    <glyph glyph-name="seven" unicode="7" horiz-adv-x="480" 
d="M64 -2q-20 -2 -29 -2q-17 0 -17 15q0 9 5.5 14t18.5 13q17 10 28 20.5t19 27.5l263 559h-175q-38 0 -62 -21.5t-47 -57.5q-14 -20 -21.5 -29t-16.5 -9q-4 0 -7 4t-3 11q0 13 10 55q1 4 7 28.5t6 45.5q0 16 5.5 22t17.5 6h389q16 0 16 -12q0 -2 -12.5 -15t-20.5 -31
l-222 -555q-5 -13 -5 -21q0 -10 5 -17t14 -15q15 -11 15 -23q0 -15 -17 -15q-9 0 -29 2q-28 2 -52 2h-31q-24 0 -52 -2z" />
    <glyph glyph-name="eight" unicode="8" horiz-adv-x="563" 
d="M143.5 11q-59.5 27 -91.5 76.5t-32 113.5q0 72 44.5 123t108.5 67v2q-29 6 -57 27t-45.5 53.5t-17.5 70.5q0 47 29 86.5t81 62.5t118 23q72 0 123.5 -22.5t78 -61t26.5 -86.5q0 -38 -17 -70.5t-44.5 -54t-57.5 -27.5v-2q66 -16 109.5 -67t43.5 -122q0 -65 -32.5 -115
t-92 -77t-136.5 -27q-79 0 -138.5 27zM169.5 84q41.5 -44 111.5 -44q72 0 113 43t41 112q0 54 -21.5 91.5t-56 56t-72.5 18.5q-42 0 -77.5 -18.5t-57.5 -56t-22 -91.5q0 -67 41.5 -111zM187.5 446.5q38.5 -29.5 93.5 -29.5q56 0 94.5 29.5t38.5 97.5q0 56 -37 88t-99 32
q-56 0 -92.5 -32t-36.5 -88q0 -68 38.5 -97.5z" />
    <glyph glyph-name="nine" unicode="9" horiz-adv-x="593" 
d="M161 -3q0 14 17 14q53 0 105.5 30t92.5 87t55 135h-5q-31 -44 -77 -68t-99 -24q-64 0 -115 32.5t-80.5 91.5t-29.5 135q0 85 33 151t93 102.5t139 36.5q86 0 147.5 -45.5t93 -124.5t31.5 -179q0 -102 -50 -191t-137.5 -142.5t-193.5 -53.5q-20 0 -20 13zM176 282.5
q37 -61.5 106 -61.5q40 0 76 26.5t58.5 70.5t22.5 95q0 82 -21 140.5t-57.5 89.5t-83.5 31q-39 0 -70.5 -27.5t-49.5 -77.5t-18 -114q0 -111 37 -172.5z" />
    <glyph glyph-name="zero.dnom" horiz-adv-x="412" 
d="M106.5 -53.5q-43.5 32.5 -67.5 90.5t-24 133t24 133t67.5 90.5t99.5 32.5t99.5 -32t67.5 -90.5t24 -133.5t-24 -133.5t-67.5 -90.5t-99.5 -32t-99.5 32.5zM128 7q28 -61 78 -61t78 61t28 163t-28 163t-78 61t-78 -61t-28 -163t28 -163z" />
    <glyph glyph-name="one.dnom" horiz-adv-x="204" 
d="M21 -39q15 12 22.5 23t7.5 32v313q0 22 -5.5 33t-14 18.5t-8.5 11.5q0 11 27 14q23 2 49 13q16 7 23 7q11 0 11 -15v-395q0 -21 7.5 -32t22.5 -23q18 -13 18 -25q0 -15 -17 -15q-9 0 -31 2t-41 2q-17 0 -41 -2q-22 -2 -31 -2q-17 0 -17 15q0 12 18 25z" />
    <glyph glyph-name="two.dnom" horiz-adv-x="367" 
d="M36 -13q67 65 114 116t82.5 109t35.5 108q0 36 -19.5 52t-60.5 16t-68 -21t-54 -55q-7 -8 -13 -14.5t-9 -6.5q-5 0 -5 10q0 9 1 15l12 68q2 18 42 30t97 12q76 0 117.5 -30.5t41.5 -91.5q0 -46 -31.5 -99.5t-76.5 -103.5t-115 -121l-15 -16h124q24 0 41.5 15t35.5 40
q8 10 15.5 18t12.5 8q6 0 6 -8q0 -13 -7 -39q-1 -4 -5 -21.5t-4 -31.5q0 -11 -4 -15.5t-13 -4.5h-303v38z" />
    <glyph glyph-name="three.dnom" horiz-adv-x="372" 
d="M102.5 -72.5q-34.5 13.5 -55.5 36t-21 46.5q0 18 9.5 27.5t25.5 9.5t27 -10t29 -33q19 -26 34 -39t39 -13q37 0 60 30.5t23 81.5q0 66 -36.5 91.5t-102.5 25.5q-14 0 -19.5 4.5t-5.5 13.5q0 10 6 14t20 4q47 0 86.5 25.5t39.5 82.5q0 28 -17.5 46t-52.5 18q-44 0 -73 -22
t-55 -55q-2 -2 -9.5 -11t-11.5 -9q-6 0 -6 12q0 8 1 13l11 70q2 16 43.5 27.5t90.5 11.5q68 0 110.5 -28.5t42.5 -77.5q0 -50 -36 -80.5t-87 -37.5v-2q34 -1 66.5 -15.5t53.5 -44.5t21 -74q0 -68 -49.5 -110t-126.5 -42q-40 0 -74.5 13.5z" />
    <glyph glyph-name="four.dnom" horiz-adv-x="373" 
d="M197 363q5 8 15 20q2 3 6.5 10t4.5 10q0 12 16 12h75q16 0 16 -12q0 -3 -5 -16t-5 -35v-243q9 2 20 7.5t14 4.5q7 -3 7 -11q0 -5 -1 -8l-12 -31q-5 -15 -16 -10l-12 3v-48q0 -21 7.5 -32t22.5 -23q18 -13 18 -25q0 -15 -17 -15q-9 0 -31 2t-41 2q-17 0 -41 -2
q-22 -2 -31 -2q-17 0 -17 15q0 12 18 25q15 12 23 23t8 32v50h-209l-15 29zM239 107v271l-186 -271h186z" />
    <glyph glyph-name="five.dnom" horiz-adv-x="375" 
d="M98.5 -74q-32.5 12 -54 33t-21.5 49q0 18 10 29t26 11q19 0 31 -12t27 -35q16 -25 29.5 -37.5t34.5 -12.5q40 0 63 37t23 96t-23 100t-69 41q-27 0 -47 -13t-44 -37q-23 -25 -35 -25q-18 0 -15 26l13 174q2 23 -2.5 36.5t-4.5 17.5q1 11 18 11h170q30 0 53.5 9.5
t26.5 8.5q12 -4 12 -15q0 -2 -2 -10l-17 -53q-6 -15 -16 -12q-14 6 -49 6h-149l-13 -143l3 -1q51 58 124 58q74 0 112 -46.5t38 -116.5q0 -87 -49 -136.5t-139 -49.5q-32 0 -64.5 12z" />
    <glyph glyph-name="six.dnom" horiz-adv-x="415" 
d="M72 -17.5q-50 68.5 -50 175.5q0 72 35 134.5t96 99.5t135 37q15 0 15 -9t-12 -9q-37 0 -74 -21t-65 -61t-39 -95h4q22 31 54 47.5t69 16.5q45 0 81 -23t56.5 -64.5t20.5 -94.5q0 -59 -23 -105t-65.5 -71.5t-97.5 -25.5q-90 0 -140 68.5zM139.5 -5.5
q31.5 -48.5 81.5 -48.5q42 0 69.5 42.5t27.5 110.5q0 78 -26 121t-74 43q-28 0 -53.5 -18.5t-41 -49t-15.5 -66.5q0 -86 31.5 -134.5z" />
    <glyph glyph-name="seven.dnom" horiz-adv-x="336" 
d="M8.5 -50q5.5 5 18.5 13q17 11 28.5 21t19.5 27l171 366h-122q-26 0 -43 -15t-34 -41q-8 -13 -14 -19.5t-12 -6.5q-7 0 -7 11q0 12 7 38q1 4 5 20.5t4 30.5q0 11 4 15.5t12 4.5h271q15 0 15 -12q0 -2 -12.5 -15t-20.5 -31l-138 -345q-5 -13 -5 -21q0 -10 5 -17t14 -15
q15 -11 15 -23q0 -15 -17 -15q-8 0 -28 2q-26 2 -48 2q-23 0 -49 -2q-20 -2 -28 -2q-17 0 -17 15q0 9 5.5 14z" />
    <glyph glyph-name="eight.dnom" horiz-adv-x="394" 
d="M64 -44q-50 42 -50 110q0 50 31 86t76 46v3q-32 6 -57.5 35.5t-25.5 69.5q0 51 44 85.5t115 34.5q75 0 117.5 -33.5t42.5 -84.5q0 -41 -25.5 -71t-58.5 -36v-2q46 -12 76.5 -47t30.5 -85q0 -70 -50 -111.5t-133 -41.5t-133 42zM119 -16.5q29 -30.5 78 -30.5q51 0 79.5 30
t28.5 78q0 56 -31.5 86.5t-73.5 30.5q-46 0 -78 -30t-32 -87q0 -47 29 -77.5zM132 237.5q27 -20.5 65 -20.5q39 0 66 20.5t27 68.5q0 39 -26 61t-69 22q-39 0 -64.5 -22t-25.5 -61q0 -48 27 -68.5z" />
    <glyph glyph-name="nine.dnom" horiz-adv-x="415" 
d="M113 -77q0 10 12 10q37 0 73.5 21t64 60.5t38.5 94.5h-3q-22 -30 -54 -47t-69 -17q-44 0 -80 23t-56.5 64t-20.5 94q0 60 23 106t65 71.5t97 25.5q90 0 140 -68.5t50 -176.5q0 -71 -35 -133t-96 -99.5t-135 -37.5q-14 0 -14 9zM123.5 123q26.5 -43 74.5 -43q28 0 53 18.5
t40.5 49t15.5 66.5q0 86 -31 134.5t-82 48.5q-42 0 -69.5 -42.5t-27.5 -110.5q0 -78 26.5 -121z" />
    <glyph glyph-name="zero.numr" horiz-adv-x="412" 
d="M106.5 446.5q-43.5 32.5 -67.5 90.5t-24 133t24 133t67.5 90.5t99.5 32.5t99.5 -32t67.5 -90.5t24 -133.5t-24 -133.5t-67.5 -90.5t-99.5 -32t-99.5 32.5zM128 507q28 -61 78 -61t78 61t28 163t-28 163t-78 61t-78 -61t-28 -163t28 -163z" />
    <glyph glyph-name="one.numr" horiz-adv-x="204" 
d="M21 461q15 12 22.5 23t7.5 32v313q0 22 -5.5 33t-14 18.5t-8.5 11.5q0 11 27 14q23 2 49 13q16 7 23 7q11 0 11 -15v-395q0 -21 7.5 -32t22.5 -23q18 -13 18 -25q0 -15 -17 -15q-9 0 -31 2t-41 2q-17 0 -41 -2q-22 -2 -31 -2q-17 0 -17 15q0 12 18 25z" />
    <glyph glyph-name="two.numr" horiz-adv-x="367" 
d="M36 487q67 65 114 116t82.5 109t35.5 108q0 36 -19.5 52t-60.5 16t-68 -21t-54 -55q-7 -8 -13 -14.5t-9 -6.5q-5 0 -5 10q0 9 1 15l12 68q2 18 42 30t97 12q76 0 117.5 -30.5t41.5 -91.5q0 -46 -31.5 -99.5t-76.5 -103.5t-115 -121l-15 -16h124q24 0 41.5 15t35.5 40
q8 10 15.5 18t12.5 8q6 0 6 -8q0 -13 -7 -39q-1 -4 -5 -21.5t-4 -31.5q0 -11 -4 -15.5t-13 -4.5h-303v38z" />
    <glyph glyph-name="three.numr" horiz-adv-x="372" 
d="M102.5 427.5q-34.5 13.5 -55.5 36t-21 46.5q0 18 9.5 27.5t25.5 9.5t27 -10t29 -33q19 -26 34 -39t39 -13q37 0 60 30.5t23 81.5q0 66 -36.5 91.5t-102.5 25.5q-14 0 -19.5 4.5t-5.5 13.5q0 10 6 14t20 4q47 0 86.5 25.5t39.5 82.5q0 28 -17.5 46t-52.5 18q-44 0 -73 -22
t-55 -55q-2 -2 -9.5 -11t-11.5 -9q-6 0 -6 12q0 8 1 13l11 70q2 16 43.5 27.5t90.5 11.5q68 0 110.5 -28.5t42.5 -77.5q0 -50 -36 -80.5t-87 -37.5v-2q34 -1 66.5 -15.5t53.5 -44.5t21 -74q0 -68 -49.5 -110t-126.5 -42q-40 0 -74.5 13.5z" />
    <glyph glyph-name="four.numr" horiz-adv-x="373" 
d="M197 863q5 8 15 20q2 3 6.5 10t4.5 10q0 12 16 12h75q16 0 16 -12q0 -3 -5 -16t-5 -35v-243q9 2 20 7.5t14 4.5q7 -3 7 -11q0 -5 -1 -8l-12 -31q-5 -15 -16 -10l-12 3v-48q0 -21 7.5 -32t22.5 -23q18 -13 18 -25q0 -15 -17 -15q-9 0 -31 2t-41 2q-17 0 -41 -2
q-22 -2 -31 -2q-17 0 -17 15q0 12 18 25q15 12 23 23t8 32v50h-209l-15 29zM239 607v271l-186 -271h186z" />
    <glyph glyph-name="five.numr" horiz-adv-x="375" 
d="M98.5 426q-32.5 12 -54 33t-21.5 49q0 18 10 29t26 11q19 0 31 -12t27 -35q16 -25 29.5 -37.5t34.5 -12.5q40 0 63 37t23 96t-23 100t-69 41q-27 0 -47 -13t-44 -37q-23 -25 -35 -25q-18 0 -15 26l13 174q2 23 -2.5 36.5t-4.5 17.5q1 11 18 11h170q30 0 53.5 9.5
t26.5 8.5q12 -4 12 -15q0 -2 -2 -10l-17 -53q-6 -15 -16 -12q-14 6 -49 6h-149l-13 -143l3 -1q51 58 124 58q74 0 112 -46.5t38 -116.5q0 -87 -49 -136.5t-139 -49.5q-32 0 -64.5 12z" />
    <glyph glyph-name="six.numr" horiz-adv-x="415" 
d="M72 482.5q-50 68.5 -50 175.5q0 72 35 134.5t96 99.5t135 37q15 0 15 -9t-12 -9q-37 0 -74 -21t-65 -61t-39 -95h4q22 31 54 47.5t69 16.5q45 0 81 -23t56.5 -64.5t20.5 -94.5q0 -59 -23 -105t-65.5 -71.5t-97.5 -25.5q-90 0 -140 68.5zM139.5 494.5
q31.5 -48.5 81.5 -48.5q42 0 69.5 42.5t27.5 110.5q0 78 -26 121t-74 43q-28 0 -53.5 -18.5t-41 -49t-15.5 -66.5q0 -86 31.5 -134.5z" />
    <glyph glyph-name="seven.numr" horiz-adv-x="336" 
d="M8.5 450q5.5 5 18.5 13q17 11 28.5 21t19.5 27l171 366h-122q-26 0 -43 -15t-34 -41q-8 -13 -14 -19.5t-12 -6.5q-7 0 -7 11q0 12 7 38q1 4 5 20.5t4 30.5q0 11 4 15.5t12 4.5h271q15 0 15 -12q0 -2 -12.5 -15t-20.5 -31l-138 -345q-5 -13 -5 -21q0 -10 5 -17t14 -15
q15 -11 15 -23q0 -15 -17 -15q-8 0 -28 2q-26 2 -48 2q-23 0 -49 -2q-20 -2 -28 -2q-17 0 -17 15q0 9 5.5 14z" />
    <glyph glyph-name="eight.numr" horiz-adv-x="394" 
d="M64 456q-50 42 -50 110q0 50 31 86t76 46v3q-32 6 -57.5 35.5t-25.5 69.5q0 51 44 85.5t115 34.5q75 0 117.5 -33.5t42.5 -84.5q0 -41 -25.5 -71t-58.5 -36v-2q46 -12 76.5 -47t30.5 -85q0 -70 -50 -111.5t-133 -41.5t-133 42zM119 483.5q29 -30.5 78 -30.5q51 0 79.5 30
t28.5 78q0 56 -31.5 86.5t-73.5 30.5q-46 0 -78 -30t-32 -87q0 -47 29 -77.5zM132 737.5q27 -20.5 65 -20.5q39 0 66 20.5t27 68.5q0 39 -26 61t-69 22q-39 0 -64.5 -22t-25.5 -61q0 -48 27 -68.5z" />
    <glyph glyph-name="nine.numr" horiz-adv-x="415" 
d="M113 423q0 10 12 10q37 0 73.5 21t64 60.5t38.5 94.5h-3q-22 -30 -54 -47t-69 -17q-44 0 -80 23t-56.5 64t-20.5 94q0 60 23 106t65 71.5t97 25.5q90 0 140 -68.5t50 -176.5q0 -71 -35 -133t-96 -99.5t-135 -37.5q-14 0 -14 9zM123.5 623q26.5 -43 74.5 -43q28 0 53 18.5
t40.5 49t15.5 66.5q0 86 -31 134.5t-82 48.5q-42 0 -69.5 -42.5t-27.5 -110.5q0 -78 26.5 -121z" />
    <glyph glyph-name="fraction" unicode="&#x2044;" horiz-adv-x="184" 
d="M314 818h58l-492 -818h-58z" />
    <glyph glyph-name="uni215F" unicode="&#x215f;" horiz-adv-x="389" 
d="M21 461q15 12 22.5 23t7.5 32v313q0 22 -5.5 33t-14 18.5t-8.5 11.5q0 11 27 14q23 2 49 13q16 7 23 7q11 0 11 -15v-395q0 -21 7.5 -32t22.5 -23q18 -13 18 -25q0 -15 -17 -15q-9 0 -31 2t-41 2q-17 0 -41 -2q-22 -2 -31 -2q-17 0 -17 15q0 12 18 25zM518 818h58
l-492 -818h-58z" />
    <glyph glyph-name="onehalf" unicode="&#xbd;" horiz-adv-x="756" 
d="M21 461q15 12 22.5 23t7.5 32v313q0 22 -5.5 33t-14 18.5t-8.5 11.5q0 11 27 14q23 2 49 13q16 7 23 7q11 0 11 -15v-395q0 -21 7.5 -32t22.5 -23q18 -13 18 -25q0 -15 -17 -15q-9 0 -31 2t-41 2q-17 0 -41 -2q-22 -2 -31 -2q-17 0 -17 15q0 12 18 25zM518 818h58
l-492 -818h-58zM425 -13q67 65 114 116t82.5 109t35.5 108q0 36 -19.5 52t-60.5 16t-68 -21t-54 -55q-7 -8 -13 -14.5t-9 -6.5q-5 0 -5 10q0 9 1 15l12 68q2 18 42 30t97 12q76 0 117.5 -30.5t41.5 -91.5q0 -46 -31.5 -99.5t-76.5 -103.5t-115 -121l-15 -16h124
q24 0 41.5 15t35.5 40q8 10 15.5 18t12.5 8q6 0 6 -8q0 -13 -7 -39q-1 -4 -5 -21.5t-4 -31.5q0 -11 -4 -15.5t-13 -4.5h-303v38z" />
    <glyph glyph-name="uni2189" unicode="&#x2189;" horiz-adv-x="969" 
d="M106.5 446.5q-43.5 32.5 -67.5 90.5t-24 133t24 133t67.5 90.5t99.5 32.5t99.5 -32t67.5 -90.5t24 -133.5t-24 -133.5t-67.5 -90.5t-99.5 -32t-99.5 32.5zM128 507q28 -61 78 -61t78 61t28 163t-28 163t-78 61t-78 -61t-28 -163t28 -163zM726 818h58l-492 -818h-58z
M698.5 -72.5q-34.5 13.5 -55.5 36t-21 46.5q0 18 9.5 27.5t25.5 9.5t27 -10t29 -33q19 -26 34 -39t39 -13q37 0 60 30.5t23 81.5q0 66 -36.5 91.5t-102.5 25.5q-14 0 -19.5 4.5t-5.5 13.5q0 10 6 14t20 4q47 0 86.5 25.5t39.5 82.5q0 28 -17.5 46t-52.5 18q-44 0 -73 -22
t-55 -55q-2 -2 -9.5 -11t-11.5 -9q-6 0 -6 12q0 8 1 13l11 70q2 16 43.5 27.5t90.5 11.5q68 0 110.5 -28.5t42.5 -77.5q0 -50 -36 -80.5t-87 -37.5v-2q34 -1 66.5 -15.5t53.5 -44.5t21 -74q0 -68 -49.5 -110t-126.5 -42q-40 0 -74.5 13.5z" />
    <glyph glyph-name="uni2153" unicode="&#x2153;" horiz-adv-x="761" 
d="M21 461q15 12 22.5 23t7.5 32v313q0 22 -5.5 33t-14 18.5t-8.5 11.5q0 11 27 14q23 2 49 13q16 7 23 7q11 0 11 -15v-395q0 -21 7.5 -32t22.5 -23q18 -13 18 -25q0 -15 -17 -15q-9 0 -31 2t-41 2q-17 0 -41 -2q-22 -2 -31 -2q-17 0 -17 15q0 12 18 25zM518 818h58
l-492 -818h-58zM491.5 -72.5q-34.5 13.5 -55.5 36t-21 46.5q0 18 9.5 27.5t25.5 9.5t27 -10t29 -33q19 -26 34 -39t39 -13q37 0 60 30.5t23 81.5q0 66 -36.5 91.5t-102.5 25.5q-14 0 -19.5 4.5t-5.5 13.5q0 10 6 14t20 4q47 0 86.5 25.5t39.5 82.5q0 28 -17.5 46t-52.5 18
q-44 0 -73 -22t-55 -55q-2 -2 -9.5 -11t-11.5 -9q-6 0 -6 12q0 8 1 13l11 70q2 16 43.5 27.5t90.5 11.5q68 0 110.5 -28.5t42.5 -77.5q0 -50 -36 -80.5t-87 -37.5v-2q34 -1 66.5 -15.5t53.5 -44.5t21 -74q0 -68 -49.5 -110t-126.5 -42q-40 0 -74.5 13.5z" />
    <glyph glyph-name="uni2154" unicode="&#x2154;" horiz-adv-x="924" 
d="M36 487q67 65 114 116t82.5 109t35.5 108q0 36 -19.5 52t-60.5 16t-68 -21t-54 -55q-7 -8 -13 -14.5t-9 -6.5q-5 0 -5 10q0 9 1 15l12 68q2 18 42 30t97 12q76 0 117.5 -30.5t41.5 -91.5q0 -46 -31.5 -99.5t-76.5 -103.5t-115 -121l-15 -16h124q24 0 41.5 15t35.5 40
q8 10 15.5 18t12.5 8q6 0 6 -8q0 -13 -7 -39q-1 -4 -5 -21.5t-4 -31.5q0 -11 -4 -15.5t-13 -4.5h-303v38zM681 818h58l-492 -818h-58zM653.5 -72.5q-34.5 13.5 -55.5 36t-21 46.5q0 18 9.5 27.5t25.5 9.5t27 -10t29 -33q19 -26 34 -39t39 -13q37 0 60 30.5t23 81.5
q0 66 -36.5 91.5t-102.5 25.5q-14 0 -19.5 4.5t-5.5 13.5q0 10 6 14t20 4q47 0 86.5 25.5t39.5 82.5q0 28 -17.5 46t-52.5 18q-44 0 -73 -22t-55 -55q-2 -2 -9.5 -11t-11.5 -9q-6 0 -6 12q0 8 1 13l11 70q2 16 43.5 27.5t90.5 11.5q68 0 110.5 -28.5t42.5 -77.5
q0 -50 -36 -80.5t-87 -37.5v-2q34 -1 66.5 -15.5t53.5 -44.5t21 -74q0 -68 -49.5 -110t-126.5 -42q-40 0 -74.5 13.5z" />
    <glyph glyph-name="onequarter" unicode="&#xbc;" horiz-adv-x="658" 
d="M21 461q15 12 22.5 23t7.5 32v313q0 22 -5.5 33t-14 18.5t-8.5 11.5q0 11 27 14q23 2 49 13q16 7 23 7q11 0 11 -15v-395q0 -21 7.5 -32t22.5 -23q18 -13 18 -25q0 -15 -17 -15q-9 0 -31 2t-41 2q-17 0 -41 -2q-22 -2 -31 -2q-17 0 -17 15q0 12 18 25zM518 818h58
l-492 -818h-58zM464 363q5 8 15 20q2 3 6.5 10t4.5 10q0 12 16 12h75q16 0 16 -12q0 -3 -5 -16t-5 -35v-243q9 2 20 7.5t14 4.5q7 -3 7 -11q0 -5 -1 -8l-12 -31q-5 -15 -16 -10l-12 3v-48q0 -21 7.5 -32t22.5 -23q18 -13 18 -25q0 -15 -17 -15q-9 0 -31 2t-41 2
q-17 0 -41 -2q-22 -2 -31 -2q-17 0 -17 15q0 12 18 25q15 12 23 23t8 32v50h-209l-15 29zM506 107v271l-186 -271h186z" />
    </font>
</defs>
</svg>
